<svg width="117" height="30" viewBox="0 0 117 30" fill="none" xmlns="http://www.w3.org/2000/svg">
<path d="M31.5027 3.28051C31.3423 2.78321 31.0804 2.32466 30.7335 1.93393C30.3866 1.5432 29.9623 1.22881 29.4875 1.01071C28.8408 0.708503 28.1334 0.558325 27.4197 0.571681H24.4694C24.366 0.570816 24.2629 0.581865 24.1621 0.604608C23.8993 0.665786 23.6662 0.816867 23.5031 1.03172C23.3399 1.24658 23.257 1.51169 23.2686 1.78121V13.2136H25.6065V9.1833H27.5141C27.9027 9.18705 28.2902 9.13982 28.6665 9.04281C30.1109 8.66305 31.068 7.78718 31.5202 6.44374C31.8646 5.41644 31.8584 4.30392 31.5027 3.28051V3.28051ZM25.6109 2.90953H27.4768C27.8603 2.90352 28.2387 2.99813 28.5743 3.18392C28.7765 3.2892 28.9513 3.44029 29.0847 3.62515C29.2181 3.81001 29.3064 4.0235 29.3426 4.24858C29.4332 4.68869 29.428 5.14314 29.3273 5.58104C29.2666 5.84561 29.137 6.08939 28.9515 6.28758C28.766 6.48577 28.5314 6.6313 28.2714 6.70935C28.0109 6.80251 27.7359 6.8486 27.4592 6.84545H25.6131L25.6109 2.90953Z" fill="white"/>
<path d="M24.8535 2.90948H25.6109V13.2136H23.2686V4.49439C23.2686 4.07405 23.4356 3.67092 23.7328 3.37369C24.0301 3.07647 24.4332 2.90948 24.8535 2.90948V2.90948Z" fill="white"/>
<path d="M52.5521 3.76787C52.5516 2.92038 52.2146 2.10776 51.6154 1.50849C51.0161 0.909221 50.2035 0.572298 49.356 0.571716H45.3301C44.9852 0.571716 44.6544 0.708561 44.4104 0.952208C44.1663 1.19586 44.0289 1.52639 44.0283 1.87125V6.95744V13.2158H46.3618V8.34259H48.8665C48.9934 8.34154 49.1201 8.35479 49.244 8.3821C49.8126 8.51162 49.9509 8.82113 50.0101 9.07577C50.0259 9.17152 50.0325 9.26854 50.0299 9.36553C50.0299 10.1865 50.0299 11.0229 50.0299 11.8307V13.2202H52.3677V11.7692C52.3677 10.9768 52.3677 10.1558 52.3677 9.35456C52.3679 9.1343 52.3533 8.91429 52.3238 8.69601C52.258 8.17845 52.0446 7.69076 51.7092 7.29111C52.2447 6.70401 52.5427 5.93883 52.5456 5.14424L52.5521 3.76787ZM50.2231 3.76787V5.14204C50.2231 5.37303 50.1321 5.59472 49.9698 5.75908C49.8075 5.92344 49.587 6.01722 49.356 6.02011H46.3508V2.91615H49.3516C49.5781 2.91771 49.7952 3.00674 49.9577 3.16465C50.1201 3.32255 50.2152 3.53711 50.2231 3.76348V3.76787Z" fill="white"/>
<path d="M52.5521 3.76787C52.5516 2.92038 52.2146 2.10776 51.6154 1.50849C51.0161 0.909221 50.2035 0.572298 49.356 0.571716H45.3301C44.9852 0.571716 44.6544 0.708561 44.4104 0.952208C44.1663 1.19586 44.0289 1.52639 44.0283 1.87125V6.95744V13.2158H46.3618V8.34259H48.8665C48.9934 8.34154 49.1201 8.35479 49.244 8.3821C49.8126 8.51162 49.9509 8.82113 50.0101 9.07577C50.0259 9.17152 50.0325 9.26854 50.0299 9.36553C50.0299 10.1865 50.0299 11.0229 50.0299 11.8307V13.2202H52.3677V11.7692C52.3677 10.9768 52.3677 10.1558 52.3677 9.35456C52.3679 9.1343 52.3533 8.91429 52.3238 8.69601C52.258 8.17845 52.0446 7.69076 51.7092 7.29111C52.2447 6.70401 52.5427 5.93883 52.5456 5.14424L52.5521 3.76787ZM50.2231 3.76787V5.14204C50.2231 5.37303 50.1321 5.59472 49.9698 5.75908C49.8075 5.92344 49.587 6.01722 49.356 6.02011H46.3508V2.91615H49.3516C49.5781 2.91771 49.7952 3.00674 49.9577 3.16465C50.1201 3.32255 50.2152 3.53711 50.2231 3.76348V3.76787Z" fill="white"/>
<path d="M52.5476 4.92684V4.80171C52.5476 4.29928 52.3481 3.81743 51.9928 3.46215C51.6375 3.10688 51.1557 2.90729 50.6532 2.90729H49.459C49.669 2.93197 49.8627 3.03269 50.0034 3.19043C50.1442 3.34817 50.2223 3.552 50.223 3.7634V5.13757C50.2205 5.34926 50.1416 5.55292 50.0008 5.71104C49.86 5.86916 49.6668 5.9711 49.4569 5.99807L51.7113 7.29102C52.2467 6.70393 52.5448 5.93875 52.5476 5.14416V4.92684Z" fill="white"/>
<path d="M44.0217 13.2158H46.3617V8.34259C45.7409 8.34317 45.1457 8.5902 44.7069 9.02939C44.2682 9.46858 44.0217 10.064 44.0217 10.6848V13.2158Z" fill="white"/>
<path d="M20.4764 2.25538V0.549744H18.1144V4.88738C18.1184 5.1248 18.0955 5.36191 18.0464 5.59422C17.9879 5.90915 17.8274 6.19609 17.5898 6.41082C17.2381 6.71208 16.7947 6.88539 16.3319 6.90254C16.0306 6.92658 15.7273 6.89685 15.4363 6.81473C15.1648 6.75045 14.9136 6.6197 14.7051 6.43425C14.4967 6.24879 14.3376 6.01445 14.2421 5.75228C14.1507 5.48399 14.1083 5.20143 14.117 4.91811C14.117 4.02542 14.117 3.13125 14.117 2.23563V0.549744H11.7748V5.01909C11.7762 5.42299 11.8293 5.82505 11.9328 6.21545C12.1553 7.08923 12.6657 7.86256 13.3816 8.41062C13.8488 8.7632 14.39 9.00491 14.9644 9.11746C14.9644 10.0833 14.9644 11.0492 14.9644 12.0151V13.2378H17.3066V9.12624L17.4032 9.10429C17.9956 8.98458 18.5498 8.72205 19.0176 8.33949C19.4855 7.95693 19.8529 7.46593 20.0879 6.90913C20.3607 6.27624 20.4933 5.59175 20.4764 4.90275V2.25538Z" fill="white"/>
<path d="M14.9643 9.12622C14.9643 10.0921 14.9643 11.058 14.9643 12.0238V13.2378H17.3065V9.12622C16.931 9.21735 16.5448 9.25723 16.1585 9.24476C15.7572 9.25105 15.3565 9.21128 14.9643 9.12622V9.12622Z" fill="white"/>
<path d="M35.8601 10.8889V8.61257H39.4602V6.27472H35.8579V2.88978H41.0495V0.55413H34.6835C34.6056 0.552836 34.5277 0.558715 34.4508 0.571691C34.1791 0.625697 33.9354 0.774576 33.7632 0.991728C33.5911 1.20888 33.5018 1.48015 33.5113 1.75708V8.53793C33.5113 9.70868 33.5113 10.8794 33.5113 12.0502C33.5091 12.1552 33.5209 12.26 33.5464 12.3619C33.6106 12.6172 33.7595 12.8432 33.9689 13.0027C34.1783 13.1622 34.4357 13.2459 34.6989 13.24H41.0495V10.8889H35.8601Z" fill="white"/>
<path d="M38.1956 0.55634H41.0493V2.8898H35.8578C35.8578 2.58299 35.9183 2.2792 36.0358 1.99581C36.1534 1.71241 36.3256 1.45498 36.5428 1.23824C36.7599 1.0215 37.0177 0.84971 37.3013 0.732702C37.5849 0.615693 37.8888 0.555762 38.1956 0.55634V0.55634Z" fill="white"/>
<path d="M39.4602 6.27471H35.8602V5.56567H33.5179V9.41818C33.5179 9.80825 33.6729 10.1823 33.9487 10.4582C34.2245 10.734 34.5986 10.8889 34.9887 10.8889H35.8667V8.61256H39.4668L39.4602 6.27471Z" fill="white"/>
<path d="M35.8602 6.27468V2.70974C35.8602 2.67462 35.8602 2.6395 35.8602 2.60437C35.8602 2.56925 35.8602 2.58242 35.8602 2.57145V2.5012C35.8591 2.48732 35.8591 2.47338 35.8602 2.45949V2.39803V2.35413C35.8602 2.33437 35.8602 2.31461 35.8602 2.29705C35.861 2.28243 35.861 2.26777 35.8602 2.25315L35.8733 2.19607C35.8783 2.18179 35.8819 2.1671 35.8843 2.15217C35.8907 2.13427 35.8959 2.11593 35.8997 2.09729L35.9128 2.05558L35.9326 2.0007L35.9458 1.959C35.9458 1.94144 35.9611 1.92387 35.9677 1.90412C35.9743 1.88436 35.9787 1.87997 35.9831 1.8668C35.9875 1.85363 36.0028 1.8229 36.0138 1.80094C36.0248 1.77899 36.0314 1.76143 36.0424 1.74168L36.0687 1.69119C36.0759 1.6761 36.084 1.66145 36.0928 1.64728L36.117 1.60558C36.1257 1.58973 36.1352 1.57434 36.1455 1.55948L36.1697 1.52216C36.1792 1.50702 36.1894 1.49237 36.2004 1.47826C36.2072 1.46572 36.2153 1.45395 36.2246 1.44313L36.2575 1.39704L36.2838 1.3663L36.3211 1.3202L36.3453 1.29386L36.3848 1.24776L36.4068 1.22362L36.4551 1.17752L36.466 1.16435C36.5495 1.08353 36.6399 1.01008 36.736 0.944832V0.944832L36.8019 0.903124L36.8787 0.878977L36.9446 0.839464H36.9621L37.0302 0.802147H37.0455L37.118 0.769219H37.1312L37.208 0.736292C37.3539 0.676008 37.5064 0.633269 37.6624 0.608972V0.608972V0.556289H34.6945C34.6166 0.554907 34.5387 0.560786 34.4618 0.57385C34.1886 0.625914 33.9429 0.7736 33.7687 0.990425C33.5945 1.20725 33.5033 1.47903 33.5113 1.75704C33.5113 3.14585 33.5113 4.53612 33.5113 5.92785V9.41815C33.5113 9.80784 33.666 10.1816 33.9413 10.4574C34.2167 10.7331 34.5902 10.8883 34.9799 10.8889H35.858L35.8602 6.27468Z" fill="white"/>
<path d="M6.32637 0.558533V6.26595H2.33337V0.560728H-8.7738e-05V13.2246H2.33776V8.62136H6.33076V13.2268H8.67958V0.558533H6.32637Z" fill="white"/>
<path d="M6.33073 6.26593H2.33334V8.61914H6.33073V6.26593Z" fill="white"/>
<path d="M2.33337 0.56073H-8.7738e-05V3.93469C-8.78738e-05 4.24102 0.0602846 4.54435 0.177579 4.82734C0.294873 5.11032 0.466789 5.36741 0.683499 5.58392C0.900209 5.80043 1.15746 5.9721 1.44056 6.08913C1.72365 6.20616 2.02704 6.26624 2.33337 6.26595V6.26595V0.56073Z" fill="white"/>
<path d="M82.9023 2.27075C82.7664 1.80092 82.4815 1.38797 82.0905 1.09409C81.6996 0.800203 81.2237 0.641296 80.7346 0.641296C80.2455 0.641296 79.7696 0.800203 79.3787 1.09409C78.9877 1.38797 78.7028 1.80092 78.5669 2.27075L75.4058 13.3497H77.8425L78.501 11.0097H82.955L83.6135 13.3497H86.048L82.9023 2.27075ZM80.7357 3.19711L82.2964 8.68501H79.1749L80.7357 3.19711Z" fill="white"/>
<path style="mix-blend-mode:multiply" d="M82.9024 2.27079C82.8187 1.98566 82.6792 1.72002 82.4919 1.48931C81.2604 1.15126 80.7358 3.19715 80.7358 3.19715L81.9738 7.54357L84.2941 7.14405L82.9024 2.27079Z" fill="url(#paint0_linear_2_43)"/>
<path d="M82.2964 8.67841H79.1749L78.5076 11.0163H82.9616L82.2964 8.67841Z" fill="url(#paint1_linear_2_43)"/>
<path d="M69.6656 10.8889V8.61257H73.2657V6.27472H69.6634V2.88978H74.855V0.55413H68.489C68.4111 0.552836 68.3332 0.558715 68.2563 0.571691C67.9846 0.625697 67.7408 0.774576 67.5687 0.991728C67.3966 1.20888 67.3073 1.48015 67.3168 1.75708V8.53793C67.3168 9.70868 67.3168 10.8794 67.3168 12.0502C67.3146 12.1552 67.3264 12.26 67.3519 12.3619C67.4161 12.6172 67.565 12.8432 67.7744 13.0027C67.9838 13.1622 68.2412 13.2459 68.5044 13.24H69.6634" fill="white"/>
<path d="M72.0011 0.55634H74.8548V2.8898H69.6633C69.6633 2.58299 69.7238 2.2792 69.8413 1.99581C69.9588 1.71241 70.1311 1.45498 70.3483 1.23824C70.5654 1.0215 70.8232 0.84971 71.1068 0.732702C71.3904 0.615693 71.6943 0.555762 72.0011 0.55634V0.55634Z" fill="white"/>
<path d="M73.2657 6.27471H69.6656V5.56567H67.3234V9.41818C67.3234 9.80825 67.4784 10.1823 67.7542 10.4582C68.03 10.734 68.4041 10.8889 68.7942 10.8889H69.6722V8.61256H73.2723L73.2657 6.27471Z" fill="white"/>
<path d="M69.6656 6.27468V2.70974C69.6656 2.67462 69.6656 2.6395 69.6656 2.60437C69.6656 2.56925 69.6656 2.58242 69.6656 2.57145V2.5012C69.6646 2.48732 69.6646 2.47338 69.6656 2.45949V2.39803V2.35413C69.6656 2.33437 69.6656 2.31461 69.6766 2.29705C69.6775 2.28243 69.6775 2.26777 69.6766 2.25315L69.6898 2.19607C69.6947 2.18179 69.6984 2.1671 69.7008 2.15217C69.7072 2.13427 69.7123 2.11593 69.7161 2.09729L69.7293 2.05558L69.7491 2.0007L69.7622 1.959C69.7622 1.94144 69.7776 1.92387 69.7842 1.90412C69.7908 1.88436 69.7952 1.87997 69.7996 1.8668C69.8039 1.85363 69.8193 1.8229 69.8303 1.80094C69.8413 1.77899 69.8478 1.76143 69.8588 1.74168L69.8852 1.69119C69.8924 1.6761 69.9004 1.66145 69.9093 1.64728L69.9335 1.60558C69.9422 1.58973 69.9517 1.57434 69.962 1.55948L69.9861 1.52216C69.9956 1.50702 70.0059 1.49237 70.0169 1.47826C70.0236 1.46572 70.0317 1.45395 70.041 1.44313L70.0739 1.39704L70.1003 1.3663L70.1376 1.3202L70.1618 1.29386L70.2013 1.24776L70.2232 1.22362L70.2715 1.17752V1.16435C70.355 1.08353 70.4454 1.01008 70.5415 0.944832V0.944832L70.6074 0.903124L70.6842 0.878977L70.7501 0.839464H70.7676L70.8357 0.802147H70.851L70.9235 0.769219H70.9366L71.0135 0.736292C71.1594 0.676008 71.3119 0.633269 71.4679 0.608972V0.608972V0.556289H68.5C68.4221 0.554907 68.3442 0.560786 68.2673 0.57385C67.9941 0.625914 67.7484 0.7736 67.5742 0.990425C67.4 1.20725 67.3088 1.47903 67.3168 1.75704C67.3168 3.14585 67.3168 4.53612 67.3168 5.92785V9.41815C67.3168 9.80784 67.4715 10.1816 67.7468 10.4574C68.0222 10.7331 68.3957 10.8883 68.7854 10.8889H69.6635L69.6656 6.27468Z" fill="url(#paint2_linear_2_43)"/>
<path d="M97.0261 3.77446C97.0249 2.92484 96.6865 2.11045 96.0851 1.51029C95.4837 0.910134 94.6686 0.573332 93.819 0.573914H89.7821C89.437 0.574495 89.1062 0.711827 88.8623 0.955824C88.6183 1.19982 88.4809 1.53058 88.4803 1.87565V6.96842V13.2334H90.8248V8.34259H93.3317C93.4593 8.34345 93.5866 8.35742 93.7114 8.3843C94.28 8.51162 94.4183 8.82333 94.4775 9.07797C94.493 9.17377 94.5003 9.2707 94.4995 9.36773V13.2312H96.8395V11.7846C96.8395 10.9921 96.8395 10.1712 96.8395 9.36993C96.8407 9.14964 96.826 8.92955 96.7956 8.71138C96.7298 8.19315 96.5164 7.70474 96.181 7.30428C96.7177 6.71708 97.0159 5.95073 97.0173 5.15522L97.0261 3.77446ZM94.6926 3.77446V5.15083C94.6926 5.3837 94.6001 5.60704 94.4355 5.77171C94.2708 5.93638 94.0475 6.02889 93.8146 6.02889H90.8116V2.90518H93.8168C94.0459 2.90744 94.265 2.99915 94.4274 3.16074C94.5898 3.32233 94.6826 3.54099 94.6861 3.77007L94.6926 3.77446Z" fill="white"/>
<path d="M97.0261 3.77446C97.0249 2.92484 96.6865 2.11045 96.0851 1.51029C95.4837 0.910134 94.6686 0.573332 93.819 0.573914H89.7821C89.437 0.574495 89.1062 0.711827 88.8623 0.955824C88.6183 1.19982 88.4809 1.53058 88.4803 1.87565V6.96842V13.2334H90.8248V8.34259H93.3317C93.4593 8.34345 93.5866 8.35742 93.7114 8.3843C94.28 8.51162 94.4183 8.82333 94.4775 9.07797C94.493 9.17377 94.5003 9.2707 94.4995 9.36773V13.2312H96.8395V11.7846C96.8395 10.9921 96.8395 10.1712 96.8395 9.36993C96.8407 9.14964 96.826 8.92955 96.7956 8.71138C96.7298 8.19315 96.5164 7.70474 96.181 7.30428C96.7177 6.71708 97.0159 5.95073 97.0173 5.15522L97.0261 3.77446ZM94.6926 3.77446V5.15083C94.6926 5.3837 94.6001 5.60704 94.4355 5.77171C94.2708 5.93638 94.0475 6.02889 93.8146 6.02889H90.8116V2.90518H93.8168C94.0459 2.90744 94.265 2.99915 94.4274 3.16074C94.5898 3.32233 94.6826 3.54099 94.6861 3.77007L94.6926 3.77446Z" fill="white"/>
<path d="M97.0128 4.93562V4.8083C97.0128 4.30529 96.813 3.82287 96.4573 3.46719C96.1016 3.1115 95.6192 2.91168 95.1162 2.91168H93.922C94.1312 2.93909 94.3236 3.04092 94.4638 3.19854C94.6041 3.35615 94.683 3.55901 94.6859 3.76999V5.14636C94.6839 5.35843 94.6053 5.56262 94.4644 5.72119C94.3236 5.87977 94.1302 5.98202 93.9198 6.00905L96.1764 7.29981C96.7131 6.71261 97.0114 5.94626 97.0128 5.15075V4.93562Z" fill="url(#paint3_linear_2_43)"/>
<path d="M88.4758 13.2334H90.8203V8.34259C90.1989 8.34259 89.6029 8.58929 89.1633 9.02848C88.7237 9.46767 88.4764 10.0634 88.4758 10.6848V13.2334Z" fill="url(#paint4_linear_2_43)"/>
<path d="M101.667 13.2114L104.67 2.67465L107.04 11.6748C107.083 11.8384 107.178 11.9832 107.311 12.0867C107.445 12.1901 107.609 12.2463 107.778 12.2463C107.947 12.2463 108.111 12.1901 108.245 12.0867C108.378 11.9832 108.473 11.8384 108.516 11.6748L110.886 2.67465L113.892 13.2114H116.42L113.128 1.69341C112.986 1.205 112.689 0.775847 112.282 0.470472C111.876 0.165097 111.381 0 110.872 0C110.363 0 109.869 0.165097 109.462 0.470472C109.055 0.775847 108.758 1.205 108.617 1.69341L107.782 5.12884L106.935 1.71756V1.69341C106.793 1.205 106.497 0.775847 106.09 0.470472C105.683 0.165097 105.188 0 104.68 0C104.171 0 103.676 0.165097 103.269 0.470472C102.863 0.775847 102.566 1.205 102.424 1.69341L99.1093 13.2114H101.667Z" fill="white"/>
<path style="mix-blend-mode:multiply" d="M113.141 1.67805C113.055 1.38032 112.909 1.10321 112.713 0.863641C111.433 0.512415 110.886 2.66806 110.886 2.66806L112.173 7.16815L114.587 6.75545L113.141 1.67805Z" fill="url(#paint5_linear_2_43)"/>
<path d="M107.04 11.6704C107.082 11.834 107.178 11.9789 107.311 12.0823C107.445 12.1857 107.609 12.2419 107.778 12.2419C107.947 12.2419 108.111 12.1857 108.244 12.0823C108.378 11.9789 108.473 11.834 108.515 11.6704L110.886 2.67027C110.886 2.67027 111.426 0.534374 112.695 0.861453C112.424 0.530418 112.068 0.279843 111.664 0.136871C111.261 -0.0061001 110.827 -0.0360176 110.408 0.0503596C109.989 0.136737 109.601 0.336116 109.287 0.626899C108.974 0.917682 108.745 1.28878 108.627 1.7L107.782 5.12885L106.935 1.71757V1.69342C106.924 1.6583 106.913 1.62317 106.9 1.58805C106.809 1.32329 106.672 1.07711 106.494 0.861453C105.218 0.523398 104.676 2.66807 104.676 2.66807L107.04 11.6704Z" fill="url(#paint6_linear_2_43)"/>
<path d="M26.5262 26.9487C26.0244 26.9533 25.5269 26.8555 25.0642 26.6612C24.6248 26.4768 24.2274 26.2049 23.8964 25.8621C23.5633 25.5129 23.3002 25.1031 23.1215 24.6548C22.9308 24.1743 22.8354 23.6614 22.8405 23.1445C22.8352 22.6259 22.9291 22.111 23.1171 21.6277C23.2886 21.1807 23.549 20.7733 23.8826 20.4299C24.2161 20.0866 24.6159 19.8145 25.0576 19.6301C25.5234 19.4391 26.0228 19.3436 26.5262 19.3491C27.012 19.341 27.4944 19.4313 27.9443 19.6147C28.3411 19.7788 28.7021 20.0189 29.0067 20.3215C29.2855 20.5951 29.5 20.9273 29.6345 21.294L28.4294 21.8669C28.2891 21.4797 28.0298 21.1469 27.6887 20.9162C27.3476 20.6855 26.9422 20.5688 26.5306 20.5828C26.1011 20.5747 25.678 20.688 25.3101 20.9098C24.9577 21.1263 24.6733 21.4374 24.4891 21.8077C24.2981 22.231 24.1994 22.69 24.1994 23.1544C24.1994 23.6188 24.2981 24.0778 24.4891 24.5011C24.6717 24.8742 24.9564 25.1878 25.3101 25.4055C25.678 25.6273 26.1011 25.7407 26.5306 25.7326C26.9403 25.7432 27.3431 25.6262 27.6833 25.3977C28.0236 25.1691 28.2843 24.8405 28.4294 24.4572L29.6345 25.0214C29.5001 25.3845 29.2872 25.7135 29.0111 25.985C28.7065 26.2872 28.3455 26.5266 27.9487 26.6897C27.4969 26.8714 27.013 26.9595 26.5262 26.9487V26.9487Z" fill="white"/>
<path d="M33.127 26.9487C32.634 26.9534 32.1482 26.8303 31.717 26.5914C31.2857 26.3525 30.9237 26.006 30.6662 25.5855C30.4146 25.1461 30.2822 24.6486 30.2822 24.1422C30.2822 23.6359 30.4146 23.1383 30.6662 22.6989C30.9172 22.2824 31.2719 21.9383 31.6958 21.7001C32.1373 21.4609 32.6315 21.3356 33.1336 21.3356C33.6357 21.3356 34.1299 21.4609 34.5714 21.7001C34.9927 21.9375 35.3452 22.2801 35.5944 22.6945C35.8454 23.1349 35.9773 23.6331 35.9773 24.14C35.9773 24.6469 35.8454 25.1451 35.5944 25.5855C35.3385 26.0075 34.9769 26.3552 34.5452 26.5943C34.1136 26.8334 33.627 26.9556 33.1336 26.9487H33.127ZM33.127 25.7633C33.4017 25.7659 33.6714 25.6897 33.9041 25.5438C34.1272 25.4021 34.3077 25.2026 34.4266 24.9665C34.5585 24.7077 34.6248 24.4205 34.6197 24.1301C34.6251 23.8418 34.5587 23.5567 34.4266 23.3004C34.307 23.066 34.1265 22.8681 33.9041 22.7274C33.6699 22.5943 33.4052 22.5242 33.1358 22.5242C32.8664 22.5242 32.6017 22.5943 32.3675 22.7274C32.1427 22.8672 31.9599 23.0651 31.8385 23.3004C31.7077 23.5571 31.6421 23.8421 31.6475 24.1301C31.6427 24.4203 31.7082 24.7072 31.8385 24.9665C31.9591 25.2034 32.142 25.403 32.3675 25.5438C32.5951 25.6866 32.8583 25.7627 33.127 25.7633V25.7633Z" fill="white"/>
<path d="M36.9423 26.8302V21.4542H38.1694V22.6989L38.0289 22.5013C38.1055 22.1424 38.3189 21.8275 38.6238 21.6233C38.9374 21.4278 39.3015 21.3286 39.6709 21.3379C40.0832 21.3303 40.4879 21.4499 40.8299 21.6803C41.1554 21.8912 41.3903 22.2161 41.4885 22.5913L41.1241 22.6199C41.2609 22.2276 41.5203 21.8897 41.8638 21.6562C42.2032 21.4401 42.5987 21.3287 43.0009 21.3357C43.3586 21.3296 43.7115 21.4182 44.0239 21.5925C44.3212 21.7611 44.5659 22.0088 44.7307 22.3082C44.9067 22.6342 44.9951 23.0002 44.9876 23.3706V26.8302H43.6836V23.6779C43.6895 23.4667 43.6459 23.2569 43.5563 23.0655C43.4769 22.9011 43.351 22.7637 43.1941 22.6704C43.0281 22.5749 42.839 22.5271 42.6475 22.5321C42.4569 22.5282 42.2688 22.576 42.1031 22.6704C41.9445 22.7628 41.8169 22.9004 41.7365 23.0655C41.647 23.2569 41.6034 23.4667 41.6092 23.6779V26.8302H40.3141V23.6779C40.3189 23.4668 40.2753 23.2573 40.1867 23.0655C40.1067 22.9015 39.9809 22.7643 39.8245 22.6704C39.6562 22.5785 39.4675 22.5304 39.2757 22.5304C39.084 22.5304 38.8953 22.5785 38.727 22.6704C38.5683 22.7628 38.4407 22.9004 38.3604 23.0655C38.2708 23.2569 38.2272 23.4667 38.233 23.6779V26.8302H36.9423Z" fill="white"/>
<path d="M46.0741 20.8549V19.472H47.378V20.8549H46.0741ZM46.0741 26.8346V21.4542H47.378V26.8302L46.0741 26.8346Z" fill="white"/>
<path d="M48.5657 26.8302V21.4542H49.7906V22.5123L49.6918 22.3235C49.8057 22.0141 50.0238 21.7541 50.3087 21.5881C50.6141 21.4147 50.9608 21.3275 51.3119 21.3357C51.6794 21.3288 52.0424 21.4173 52.3655 21.5925C52.6664 21.7593 52.9143 22.0073 53.0812 22.3081C53.2571 22.6342 53.3456 23.0002 53.338 23.3706V26.8302H52.0428V23.6779C52.0485 23.4654 52.001 23.2549 51.9046 23.0655C51.8176 22.8992 51.6841 22.7619 51.5204 22.6703C51.3466 22.5795 51.1534 22.5321 50.9573 22.5321C50.7613 22.5321 50.5681 22.5795 50.3943 22.6703C50.2299 22.7618 50.0957 22.8991 50.0079 23.0655C49.9115 23.2549 49.864 23.4654 49.8696 23.6779V26.8302H48.5657Z" fill="white"/>
<path d="M57.0434 29.0034C56.6626 29.0072 56.2845 28.9402 55.9282 28.8058C55.6026 28.6828 55.3043 28.4971 55.0502 28.2592C54.8065 28.0315 54.6213 27.7484 54.5102 27.4339L55.7175 26.9795C55.7962 27.2313 55.9629 27.4464 56.1873 27.5853C56.4421 27.7469 56.7396 27.828 57.0412 27.818C57.2814 27.8234 57.5196 27.7731 57.737 27.6709C57.9347 27.5742 58.0995 27.4215 58.2112 27.2319C58.3318 27.0267 58.3919 26.7915 58.3846 26.5536V25.3287L58.6217 25.6251C58.4517 25.9342 58.1965 26.1879 57.8863 26.356C57.5584 26.5261 57.1932 26.6114 56.8239 26.6041C56.3559 26.6107 55.8948 26.4908 55.4892 26.2573C55.0982 26.0313 54.7758 25.7036 54.5563 25.309C54.325 24.8955 54.2069 24.4283 54.2138 23.9545C54.2048 23.4849 54.3207 23.0213 54.5497 22.6111C54.7689 22.2226 55.0879 21.8997 55.4738 21.676C55.8746 21.4469 56.3294 21.3294 56.7909 21.3357C57.1595 21.3272 57.524 21.4142 57.849 21.5882C58.1595 21.7622 58.4209 22.0122 58.6085 22.3148L58.4417 22.6396V21.4542H59.6666V26.5624C59.6733 27.0046 59.5554 27.4397 59.3263 27.818C59.1013 28.1888 58.7805 28.4921 58.3978 28.6961C57.9788 28.9094 57.5134 29.015 57.0434 29.0034V29.0034ZM56.9841 25.4165C57.2383 25.4223 57.4893 25.3594 57.7107 25.2343C57.9177 25.1129 58.0871 24.9367 58.2002 24.725C58.3224 24.494 58.3836 24.2356 58.378 23.9743C58.3822 23.7154 58.3194 23.4598 58.1958 23.2323C58.0787 23.021 57.9085 22.844 57.7019 22.7187C57.4844 22.5915 57.236 22.527 56.9841 22.5321C56.7282 22.5281 56.4758 22.5925 56.2531 22.7187C56.0396 22.8393 55.8639 23.0172 55.746 23.2323C55.6249 23.4605 55.5616 23.7149 55.5616 23.9732C55.5616 24.2315 55.6249 24.4859 55.746 24.7141C55.8632 24.9288 56.0371 25.1072 56.2487 25.2299C56.4726 25.3571 56.7267 25.4216 56.9841 25.4165V25.4165Z" fill="white"/>
<path d="M64.6737 26.9487C64.1453 26.9614 63.6247 26.8186 63.1766 26.5382C62.7654 26.2794 62.4555 25.8873 62.2985 25.4275L63.2776 24.9621C63.4018 25.2473 63.6014 25.4932 63.8549 25.6733C64.0966 25.8427 64.3851 25.9325 64.6803 25.9302C64.8771 25.9402 65.0717 25.8846 65.2335 25.7721C65.2993 25.7251 65.3527 25.6627 65.389 25.5904C65.4254 25.5182 65.4436 25.4381 65.442 25.3572C65.4459 25.2627 65.4155 25.1699 65.3564 25.096C65.2967 25.0218 65.2218 24.9612 65.1369 24.9182C65.0366 24.8652 64.9305 24.824 64.8208 24.7953L63.9427 24.5472C63.55 24.4543 63.1938 24.2464 62.9198 23.9501C62.6894 23.6825 62.5652 23.3396 62.5708 22.9864C62.564 22.6794 62.6513 22.3776 62.821 22.1216C62.997 21.8671 63.2402 21.6664 63.5235 21.542C63.8483 21.399 64.2003 21.3286 64.5552 21.3357C65.0294 21.3258 65.4964 21.4522 65.9008 21.7001C66.2857 21.9398 66.5781 22.3026 66.7306 22.7296L65.7428 23.1928C65.6549 22.9547 65.4914 22.7519 65.2774 22.6155C65.0611 22.4709 64.8065 22.3944 64.5464 22.3959C64.3642 22.386 64.1837 22.4362 64.0327 22.5386C63.972 22.5837 63.9231 22.6427 63.8903 22.7108C63.8574 22.7788 63.8415 22.8538 63.8439 22.9294C63.8428 23.0184 63.8706 23.1054 63.923 23.1774C63.9803 23.254 64.0557 23.3151 64.1425 23.3552C64.249 23.4057 64.359 23.4482 64.4718 23.4826L65.3323 23.7394C65.7208 23.8402 66.0745 24.0451 66.3552 24.3321C66.5959 24.597 66.7249 24.9446 66.7152 25.3023C66.7209 25.6068 66.6311 25.9054 66.4584 26.1563C66.2789 26.4104 66.0328 26.6102 65.7472 26.7336C65.4091 26.8822 65.0429 26.9556 64.6737 26.9487Z" fill="white"/>
<path d="M70.3262 26.9487C69.8332 26.9534 69.3474 26.8303 68.9162 26.5914C68.4849 26.3525 68.1229 26.006 67.8654 25.5855C67.6138 25.1461 67.4814 24.6486 67.4814 24.1422C67.4814 23.6359 67.6138 23.1383 67.8654 22.6989C68.1161 22.283 68.47 21.939 68.8928 21.7001C69.3303 21.4548 69.8247 21.3291 70.3262 21.3357C70.835 21.3262 71.3373 21.452 71.7816 21.7001C72.2029 21.9375 72.5553 22.2801 72.8045 22.6945C73.0555 23.1349 73.1875 23.6331 73.1875 24.14C73.1875 24.6469 73.0555 25.1451 72.8045 25.5855C72.5487 26.0075 72.187 26.3552 71.7554 26.5943C71.3238 26.8334 70.8372 26.9556 70.3438 26.9487H70.3262ZM70.3262 25.7633C70.6009 25.7659 70.8706 25.6897 71.1033 25.5438C71.3264 25.4021 71.5069 25.2026 71.6257 24.9665C71.7576 24.7077 71.824 24.4205 71.8189 24.1301C71.8243 23.8418 71.7579 23.5567 71.6257 23.3004C71.5062 23.066 71.3257 22.8681 71.1033 22.7274C70.8678 22.5922 70.601 22.5211 70.3295 22.5211C70.058 22.5211 69.7912 22.5922 69.5557 22.7274C69.3309 22.8672 69.1481 23.0651 69.0267 23.3004C68.8952 23.5569 68.8288 23.8419 68.8335 24.1301C68.8295 24.4204 68.8958 24.7074 69.0267 24.9665C69.1473 25.2034 69.3302 25.403 69.5557 25.5438C69.7865 25.6886 70.0537 25.7648 70.3262 25.7633V25.7633Z" fill="white"/>
<path d="M76.7713 26.9487C76.2709 26.9549 75.7779 26.8284 75.3422 26.5821C74.9174 26.3455 74.5618 26.0019 74.3105 25.5855C74.0574 25.1467 73.9241 24.6489 73.9241 24.1422C73.9241 23.6356 74.0574 23.1378 74.3105 22.6989C74.5654 22.2761 74.9268 21.9276 75.3587 21.6884C75.7905 21.4491 76.2777 21.3275 76.7713 21.3357C77.2758 21.3275 77.7734 21.4533 78.2135 21.7001C78.6348 21.9375 78.9872 22.2801 79.2364 22.6945C79.4868 23.1352 79.6184 23.6332 79.6184 24.14C79.6184 24.6468 79.4868 25.1449 79.2364 25.5855C78.9801 26.007 78.6183 26.3544 78.1868 26.5935C77.7553 26.8325 77.2689 26.955 76.7757 26.9487H76.7713ZM76.7713 25.7634C77.0453 25.7659 77.3142 25.6897 77.5462 25.5438C77.7699 25.4022 77.9512 25.2027 78.0708 24.9665C78.201 24.7072 78.2666 24.4203 78.2618 24.1302C78.2672 23.8421 78.2016 23.5571 78.0708 23.3004C77.9504 23.0658 77.7692 22.868 77.5462 22.7274C77.3107 22.5923 77.0439 22.5211 76.7724 22.5211C76.5009 22.5211 76.2341 22.5923 75.9986 22.7274C75.7739 22.8666 75.5916 23.0648 75.4717 23.3004C75.3396 23.5567 75.2732 23.8418 75.2786 24.1302C75.2735 24.4206 75.3398 24.7077 75.4717 24.9665C75.5911 25.2076 75.7768 25.4096 76.007 25.5488C76.2372 25.688 76.5023 25.7586 76.7713 25.7524V25.7634Z" fill="white"/>
<path d="M80.5842 26.8302V21.4542H81.8113V22.5123L81.7125 22.3235C81.8257 22.0137 82.044 21.7535 82.3293 21.5881C82.6347 21.4147 82.9815 21.3275 83.3325 21.3357C83.6994 21.3286 84.0618 21.4171 84.384 21.5925C84.6859 21.7586 84.9348 22.0067 85.1018 22.3081C85.2778 22.6342 85.3663 23.0002 85.3587 23.3706V26.8302H84.0745V23.6779C84.0802 23.4654 84.0326 23.2549 83.9362 23.0655C83.8486 22.8997 83.7153 22.7625 83.5521 22.6703C83.3779 22.5795 83.1843 22.5321 82.9879 22.5321C82.7915 22.5321 82.5979 22.5795 82.4237 22.6703C82.26 22.7619 82.1265 22.8992 82.0396 23.0655C81.9432 23.2549 81.8956 23.4654 81.9013 23.6779V26.8302H80.5842Z" fill="white"/>
<defs>
<linearGradient id="paint0_linear_2_43" x1="82.876" y1="5.91695" x2="80.6897" y2="0.782471" gradientUnits="userSpaceOnUse">
<stop stop-color="white"/>
<stop offset="1"/>
</linearGradient>
<linearGradient id="paint1_linear_2_43" x1="81.6576" y1="10.1492" x2="77.9039" y2="9.24476" gradientUnits="userSpaceOnUse">
<stop stop-color="#4CD0ED"/>
<stop offset="0.97" stop-color="#2C3BFB"/>
</linearGradient>
<linearGradient id="paint2_linear_2_43" x1="67.3168" y1="5.7215" x2="71.4657" y2="5.7215" gradientUnits="userSpaceOnUse">
<stop stop-color="#4CD0ED"/>
<stop offset="0.97" stop-color="#2C3BFB"/>
</linearGradient>
<linearGradient id="paint3_linear_2_43" x1="95.0503" y1="6.42614" x2="95.7615" y2="2.58241" gradientUnits="userSpaceOnUse">
<stop stop-color="white"/>
<stop offset="1"/>
</linearGradient>
<linearGradient id="paint4_linear_2_43" x1="90.3505" y1="12.228" x2="88.4934" y2="8.42161" gradientUnits="userSpaceOnUse">
<stop stop-color="#4CD0ED"/>
<stop offset="0.97" stop-color="#2C3BFB"/>
</linearGradient>
<linearGradient id="paint5_linear_2_43" x1="113.116" y1="5.47348" x2="110.84" y2="0.130459" gradientUnits="userSpaceOnUse">
<stop stop-color="white"/>
<stop offset="1"/>
</linearGradient>
<linearGradient id="paint6_linear_2_43" x1="110.691" y1="7.45352" x2="103.717" y2="-2.2447" gradientUnits="userSpaceOnUse">
<stop stop-color="#4CD0ED"/>
<stop offset="0.97" stop-color="#2C3BFB"/>
</linearGradient>
</defs>
</svg>
