<svg width="101" height="24" viewBox="0 0 101 24" fill="none" xmlns="http://www.w3.org/2000/svg">
<path d="M1.48041 15.3686C0.814082 13.0908 0.838147 10.6667 1.54956 8.40258C2.26098 6.13851 3.6278 4.13622 5.47719 2.6489C7.32658 1.16159 9.57548 0.256035 11.9395 0.0467556C14.3036 -0.162524 16.6766 0.333871 18.7585 1.47316C20.8404 2.61246 22.5378 4.34349 23.6359 6.44737C24.734 8.55125 25.1836 10.9335 24.9278 13.2929C24.672 15.6523 23.7223 17.8828 22.1988 19.7025C20.6754 21.5222 18.6465 22.8492 16.3687 23.5159C14.8562 23.9591 13.2711 24.0999 11.7041 23.9303C10.1371 23.7607 8.61887 23.2839 7.23621 22.5273C5.85355 21.7707 4.63355 20.749 3.64594 19.5207C2.65833 18.2923 1.92247 16.8814 1.48041 15.3686V15.3686Z" fill="url(#paint0_linear_0_1)"/>
<path d="M12.7668 13.8334L17.4121 11.7671L13.0645 3.57315L8.25233 11.5013L12.7668 13.8334Z" fill="#D0D4DE"/>
<path d="M13.0645 3.57315L12.9528 13.839L8.25232 11.5013L13.0645 3.57315Z" fill="#E7E9EE"/>
<path d="M12.75 20.8012L17.7581 12.5101L12.9265 14.6686L8.23694 12.2368L12.75 20.8012Z" fill="#D0D4DE"/>
<path d="M12.8948 9.43743L17.414 11.7671L12.7688 13.8335L8.25427 11.5014L12.8948 9.43743Z" fill="#7062FF" fill-opacity="0.7"/>
<path d="M8.25427 11.5014L12.8948 9.43743L12.7688 13.8335L8.25427 11.5014Z" fill="#7D70FF"/>
<path d="M8.22514 12.2517L12.9147 14.6836L12.7382 20.8162L8.22514 12.2517Z" fill="#E7E9EE"/>
<path d="M36.0057 18V7.57H42.9357V9.25H37.9097V11.924H42.6557V13.604H37.9097V16.32H42.9357V18H36.0057ZM47.6499 18.084C46.7912 18.084 46.1239 17.8507 45.6479 17.384C45.1812 16.908 44.9479 16.2407 44.9479 15.382V12.022H43.6319V10.384H43.7719C44.1452 10.384 44.4346 10.286 44.6399 10.09C44.8452 9.894 44.9479 9.60933 44.9479 9.236V8.648H46.7819V10.384H48.5319V12.022H46.7819V15.284C46.7819 15.536 46.8239 15.7507 46.9079 15.928C47.0012 16.1053 47.1412 16.2407 47.3279 16.334C47.5239 16.4273 47.7712 16.474 48.0699 16.474C48.1352 16.474 48.2099 16.4693 48.2939 16.46C48.3872 16.4507 48.4759 16.4413 48.5599 16.432V18C48.4292 18.0187 48.2799 18.0373 48.1119 18.056C47.9439 18.0747 47.7899 18.084 47.6499 18.084ZM49.9611 18V7.402H51.7951V11.882L51.5431 11.616C51.7205 11.1587 52.0098 10.8133 52.4111 10.58C52.8218 10.3373 53.2978 10.216 53.8391 10.216C54.3991 10.216 54.8938 10.3373 55.3231 10.58C55.7618 10.8227 56.1025 11.1633 56.3451 11.602C56.5878 12.0313 56.7091 12.5307 56.7091 13.1V18H54.8751V13.534C54.8751 13.198 54.8098 12.9087 54.6791 12.666C54.5485 12.4233 54.3665 12.2367 54.1331 12.106C53.9091 11.966 53.6431 11.896 53.3351 11.896C53.0365 11.896 52.7705 11.966 52.5371 12.106C52.3038 12.2367 52.1218 12.4233 51.9911 12.666C51.8605 12.9087 51.7951 13.198 51.7951 13.534V18H49.9611ZM61.8719 18.168C61.0879 18.168 60.4019 17.9907 59.8139 17.636C59.2259 17.2813 58.7686 16.8007 58.4419 16.194C58.1153 15.5873 57.9519 14.9153 57.9519 14.178C57.9519 13.4127 58.1153 12.736 58.4419 12.148C58.7779 11.5507 59.2306 11.0793 59.7999 10.734C60.3786 10.3887 61.0226 10.216 61.7319 10.216C62.3293 10.216 62.8519 10.314 63.2999 10.51C63.7573 10.706 64.1446 10.9767 64.4619 11.322C64.7793 11.6673 65.0219 12.064 65.1899 12.512C65.3579 12.9507 65.4419 13.4267 65.4419 13.94C65.4419 14.0707 65.4326 14.206 65.4139 14.346C65.4046 14.486 65.3813 14.6073 65.3439 14.71H59.4639V13.31H64.3079L63.4399 13.968C63.5239 13.5387 63.5006 13.156 63.3699 12.82C63.2486 12.484 63.0433 12.218 62.7539 12.022C62.4739 11.826 62.1333 11.728 61.7319 11.728C61.3493 11.728 61.0086 11.826 60.7099 12.022C60.4113 12.2087 60.1826 12.4887 60.0239 12.862C59.8746 13.226 59.8186 13.6693 59.8559 14.192C59.8186 14.6587 59.8793 15.074 60.0379 15.438C60.2059 15.7927 60.4486 16.068 60.7659 16.264C61.0926 16.46 61.4659 16.558 61.8859 16.558C62.3059 16.558 62.6606 16.4693 62.9499 16.292C63.2486 16.1147 63.4819 15.8767 63.6499 15.578L65.1339 16.306C64.9846 16.67 64.7513 16.992 64.4339 17.272C64.1166 17.552 63.7386 17.7713 63.2999 17.93C62.8706 18.0887 62.3946 18.168 61.8719 18.168ZM66.8322 18V10.384H68.5542V12.078L68.4142 11.826C68.5915 11.2567 68.8669 10.86 69.2402 10.636C69.6229 10.412 70.0802 10.3 70.6122 10.3H71.0602V11.924H70.4022C69.8795 11.924 69.4595 12.0873 69.1422 12.414C68.8249 12.7313 68.6662 13.1793 68.6662 13.758V18H66.8322ZM75.6805 18.168C74.8965 18.168 74.2105 17.9907 73.6225 17.636C73.0345 17.2813 72.5772 16.8007 72.2505 16.194C71.9239 15.5873 71.7605 14.9153 71.7605 14.178C71.7605 13.4127 71.9239 12.736 72.2505 12.148C72.5865 11.5507 73.0392 11.0793 73.6085 10.734C74.1872 10.3887 74.8312 10.216 75.5405 10.216C76.1379 10.216 76.6605 10.314 77.1085 10.51C77.5659 10.706 77.9532 10.9767 78.2705 11.322C78.5879 11.6673 78.8305 12.064 78.9985 12.512C79.1665 12.9507 79.2505 13.4267 79.2505 13.94C79.2505 14.0707 79.2412 14.206 79.2225 14.346C79.2132 14.486 79.1899 14.6073 79.1525 14.71H73.2725V13.31H78.1165L77.2485 13.968C77.3325 13.5387 77.3092 13.156 77.1785 12.82C77.0572 12.484 76.8519 12.218 76.5625 12.022C76.2825 11.826 75.9419 11.728 75.5405 11.728C75.1579 11.728 74.8172 11.826 74.5185 12.022C74.2199 12.2087 73.9912 12.4887 73.8325 12.862C73.6832 13.226 73.6272 13.6693 73.6645 14.192C73.6272 14.6587 73.6879 15.074 73.8465 15.438C74.0145 15.7927 74.2572 16.068 74.5745 16.264C74.9012 16.46 75.2745 16.558 75.6945 16.558C76.1145 16.558 76.4692 16.4693 76.7585 16.292C77.0572 16.1147 77.2905 15.8767 77.4585 15.578L78.9425 16.306C78.7932 16.67 78.5599 16.992 78.2425 17.272C77.9252 17.552 77.5472 17.7713 77.1085 17.93C76.6792 18.0887 76.2032 18.168 75.6805 18.168ZM83.3568 18.168C82.7688 18.168 82.2555 18.0373 81.8168 17.776C81.3875 17.5147 81.0561 17.1507 80.8228 16.684C80.5988 16.2173 80.4868 15.6713 80.4868 15.046V10.384H82.3208V14.892C82.3208 15.2093 82.3815 15.4893 82.5028 15.732C82.6335 15.9653 82.8155 16.152 83.0488 16.292C83.2915 16.4227 83.5621 16.488 83.8608 16.488C84.1595 16.488 84.4255 16.4227 84.6588 16.292C84.8921 16.152 85.0741 15.9607 85.2048 15.718C85.3355 15.4753 85.4008 15.186 85.4008 14.85V10.384H87.2348V18H85.4988V16.502L85.6528 16.768C85.4755 17.2347 85.1815 17.5847 84.7708 17.818C84.3695 18.0513 83.8981 18.168 83.3568 18.168ZM88.9396 18V10.384H90.6616V12.148L90.4656 11.854C90.6056 11.3033 90.8856 10.8927 91.3056 10.622C91.7256 10.3513 92.2203 10.216 92.7896 10.216C93.415 10.216 93.9656 10.3793 94.4416 10.706C94.9176 11.0327 95.2256 11.462 95.3656 11.994L94.8476 12.036C95.081 11.4293 95.431 10.9767 95.8976 10.678C96.3643 10.37 96.901 10.216 97.5076 10.216C98.049 10.216 98.5296 10.3373 98.9496 10.58C99.379 10.8227 99.715 11.1633 99.9576 11.602C100.2 12.0313 100.322 12.5307 100.322 13.1V18H98.4876V13.534C98.4876 13.198 98.427 12.9087 98.3056 12.666C98.1843 12.4233 98.0163 12.2367 97.8016 12.106C97.587 11.966 97.3256 11.896 97.0176 11.896C96.7283 11.896 96.4716 11.966 96.2476 12.106C96.0236 12.2367 95.851 12.4233 95.7296 12.666C95.6083 12.9087 95.5476 13.198 95.5476 13.534V18H93.7136V13.534C93.7136 13.198 93.653 12.9087 93.5316 12.666C93.4103 12.4233 93.2376 12.2367 93.0136 12.106C92.799 11.966 92.5423 11.896 92.2436 11.896C91.9543 11.896 91.6976 11.966 91.4736 12.106C91.2496 12.2367 91.077 12.4233 90.9556 12.666C90.8343 12.9087 90.7736 13.198 90.7736 13.534V18H88.9396Z" fill="#D0D4DE"/>
<defs>
<linearGradient id="paint0_linear_0_1" x1="25.6067" y1="24.5001" x2="-4.7648" y2="-7.29325" gradientUnits="userSpaceOnUse">
<stop stop-color="#78FFFF"/>
<stop offset="1" stop-color="#803BD8" stop-opacity="0.94"/>
</linearGradient>
</defs>
</svg>
