<svg width="390" height="1067" viewBox="0 0 390 1067" fill="none" xmlns="http://www.w3.org/2000/svg">
<path d="M275.847 1066.39H273.704V1059.8H275.847V1066.39ZM275.847 1046.6H273.704V1040.01H275.847V1046.6ZM275.847 1026.82H273.704V1020.22H275.847V1026.82ZM275.847 1007.03H273.704V1000.43H275.847V1007.03ZM272.889 987.459C272.568 985.305 272.161 983.172 271.689 981.083L273.768 980.577C274.261 982.71 274.69 984.931 275.011 987.13L272.889 987.459ZM267.703 968.748C266.868 966.77 265.946 964.791 264.96 962.9L266.846 961.867C267.853 963.823 268.818 965.846 269.654 967.891L267.682 968.748H267.703ZM258.081 951.994C256.796 950.279 255.424 948.608 254.01 947.025L255.596 945.53C257.053 947.179 258.467 948.894 259.796 950.653L258.103 951.994H258.081ZM244.709 938.209C243.059 936.889 241.323 935.614 239.544 934.427L240.723 932.58C242.545 933.811 244.323 935.108 246.016 936.472L244.688 938.209H244.709ZM228.401 928.27C226.472 927.413 224.479 926.621 222.486 925.94L223.172 923.851C225.208 924.555 227.265 925.368 229.258 926.248L228.401 928.27ZM210.185 922.862C208.107 922.532 205.985 922.29 203.885 922.136L204.035 919.937C206.178 920.091 208.364 920.333 210.507 920.685L210.185 922.862ZM191.113 921.96H184.684V919.761H191.113V921.96ZM171.826 921.96H165.397V919.761H171.826V921.96ZM152.539 921.96H146.11V919.761H152.539V921.96ZM133.252 921.96H126.823V919.761H133.252V921.96ZM113.965 921.96H107.536V919.761H113.965V921.96ZM94.678 921.96H88.249V919.761H94.678V921.96ZM75.391 921.96H68.962V919.761H75.391V921.96ZM56.1041 921.96H49.6751V919.761H56.1041V921.96ZM36.7099 921.477C34.5669 921.235 32.4025 920.883 30.281 920.443L30.7096 918.288C32.7668 918.706 34.8884 919.036 36.9671 919.278L36.7314 921.454L36.7099 921.477ZM17.7659 916.727C15.7514 915.936 13.737 915.034 11.7869 914.067L12.7298 912.088C14.6157 913.033 16.5872 913.913 18.5373 914.682L17.7659 916.727ZM0.621887 907.229C-1.13537 905.954 -2.84976 904.568 -4.52129 903.117L-3.12835 901.446C-1.52111 902.853 0.171867 904.195 1.86483 905.448L0.621887 907.229ZM-13.6933 893.641C-15.0863 891.948 -16.4149 890.167 -17.6793 888.342L-15.922 887.067C-14.7005 888.826 -13.4147 890.563 -12.0432 892.212L-13.6933 893.619V893.641ZM-24.2797 876.821C-25.2012 874.82 -26.0798 872.753 -26.8513 870.665L-24.8369 869.895C-24.0868 871.918 -23.2511 873.919 -22.351 875.875L-24.2797 876.821ZM-30.3873 857.824C-30.7944 855.647 -31.1159 853.427 -31.3516 851.206L-29.23 850.964C-29.0157 853.119 -28.6943 855.274 -28.2871 857.384L-30.3873 857.802V857.824ZM-29.5301 837.992L-31.6731 837.882C-31.5659 835.661 -31.3516 833.419 -31.0516 831.22L-28.93 831.528C-29.2086 833.66 -29.4229 835.837 -29.5301 837.992ZM-26.1227 818.863L-28.1585 818.204C-27.4942 816.093 -26.7442 813.982 -25.9084 811.937L-23.9368 812.773C-24.7512 814.774 -25.4798 816.818 -26.1227 818.863ZM-18.1079 801.252L-19.9294 800.086C-18.7722 798.217 -17.5293 796.37 -16.2221 794.59L-14.5077 795.909C-15.7935 797.646 -16.9935 799.449 -18.1079 801.252ZM-6.06425 786.234L-7.54292 784.629C-5.97853 783.112 -4.307 781.639 -2.61403 780.254L-1.28537 781.969C-2.93548 783.31 -4.54273 784.739 -6.06425 786.234ZM9.25817 774.757L8.22952 772.844C10.1154 771.767 12.0869 770.756 14.0585 769.854L14.9371 771.855C13.0084 772.734 11.1011 773.724 9.25817 774.757ZM26.8736 767.59L26.3378 765.457C28.438 764.907 30.581 764.445 32.724 764.094L33.0668 766.27C30.9881 766.622 28.9094 767.062 26.8736 767.612V767.59ZM341.401 765.215H334.972V763.016H341.401V765.215ZM322.114 765.215H315.685V763.016H322.114V765.215ZM302.827 765.215H296.398V763.016H302.827V765.215ZM283.54 765.215H277.111V763.016H283.54V765.215ZM264.253 765.215H257.824V763.016H264.253V765.215ZM244.966 765.215H238.537V763.016H244.966V765.215ZM225.679 765.215H219.25V763.016H225.679V765.215ZM206.392 765.215H199.963V763.016H206.392V765.215ZM187.105 765.215H180.676V763.016H187.105V765.215ZM167.818 765.215H161.389V763.016H167.818V765.215ZM148.531 765.215H142.102V763.016H148.531V765.215ZM129.245 765.215H122.816V763.016H129.245V765.215ZM109.958 765.215H103.529V763.016H109.958V765.215ZM90.6706 765.215H84.2416V763.016H90.6706V765.215ZM71.3836 765.215H64.9546V763.016H71.3836V765.215ZM52.0966 765.215H45.6677V763.016H52.0966V765.215ZM354.302 765.083L354.173 762.884C356.273 762.752 358.395 762.533 360.474 762.225L360.774 764.401C358.631 764.709 356.445 764.951 354.28 765.061L354.302 765.083ZM373.46 761.389L372.796 759.3C374.789 758.641 376.782 757.871 378.732 757.036L379.568 759.059C377.575 759.916 375.518 760.708 373.46 761.389ZM391.076 752.836L389.918 750.989C391.697 749.824 393.433 748.571 395.105 747.274L396.412 749.011C394.697 750.352 392.897 751.649 391.076 752.836ZM406.077 740.04L404.512 738.545C405.948 736.962 407.341 735.291 408.648 733.62L410.341 734.983C409.013 736.72 407.577 738.435 406.098 740.062L406.077 740.04ZM417.499 723.835L415.613 722.78C416.62 720.889 417.563 718.932 418.42 716.953L420.392 717.833C419.513 719.856 418.549 721.879 417.52 723.835H417.499ZM424.592 705.19L422.513 704.663C423.028 702.574 423.456 700.419 423.778 698.287L425.899 698.638C425.557 700.837 425.107 703.036 424.592 705.19ZM426.864 685.336H424.721V678.74H426.864V685.336ZM426.864 665.548H424.721V658.952H426.864V665.548ZM424.014 645.936C423.735 643.825 423.349 641.67 422.878 639.537L424.956 639.054C425.428 641.23 425.835 643.451 426.114 645.628L423.992 645.936H424.014ZM419.042 627.181C418.227 625.18 417.327 623.201 416.363 621.288L418.27 620.277C419.256 622.234 420.178 624.278 421.013 626.323L419.042 627.159V627.181ZM409.613 610.295C408.348 608.58 406.998 606.887 405.584 605.282L407.191 603.808C408.627 605.458 410.02 607.195 411.327 608.975L409.613 610.295ZM396.39 596.355C394.74 595.014 393.026 593.716 391.29 592.507L392.49 590.682C394.29 591.914 396.047 593.233 397.74 594.64L396.412 596.355H396.39ZM380.211 586.219C378.303 585.339 376.31 584.526 374.317 583.822L375.025 581.756C377.082 582.481 379.118 583.317 381.089 584.218L380.211 586.219ZM362.06 580.59C360.002 580.238 357.881 579.975 355.781 579.799L355.952 577.6C358.116 577.776 360.302 578.062 362.424 578.414L362.06 580.59ZM343.008 579.557H336.579V577.358H343.008V579.557ZM323.721 579.557H317.292V577.358H323.721V579.557ZM304.434 579.557H298.005V577.358H304.434V579.557ZM285.147 579.557H278.718V577.358H285.147V579.557ZM265.796 579.425C263.632 579.293 261.446 579.073 259.303 578.743L259.603 576.567C261.682 576.874 263.803 577.094 265.903 577.226L265.775 579.425H265.796ZM246.638 575.709C244.559 575.006 242.523 574.236 240.53 573.379L241.366 571.356C243.295 572.191 245.288 572.961 247.302 573.62L246.638 575.709ZM229.022 567.156C227.201 565.969 225.401 564.672 223.686 563.33L224.994 561.593C226.665 562.913 228.422 564.166 230.18 565.331L229.022 567.178V567.156ZM214.043 554.36C212.564 552.733 211.128 551.018 209.8 549.281L211.493 547.918C212.8 549.611 214.171 551.26 215.607 552.843L214.043 554.338V554.36ZM202.621 538.133C201.592 536.198 200.628 534.176 199.749 532.131L201.721 531.251C202.578 533.23 203.521 535.209 204.507 537.078L202.621 538.133ZM195.527 519.488C195.013 517.334 194.563 515.135 194.22 512.936L196.342 512.584C196.663 514.717 197.092 516.85 197.606 518.961L195.527 519.488ZM195.42 499.634H193.277V493.038H195.42V499.634ZM195.42 479.846H193.277V473.25H195.42V479.846ZM192.163 460.321C191.799 458.189 191.349 456.056 190.813 453.967L192.891 453.395C193.449 455.55 193.92 457.749 194.284 459.926L192.184 460.299L192.163 460.321ZM186.527 441.764C185.648 439.808 184.684 437.873 183.655 435.982L185.52 434.904C186.591 436.839 187.577 438.84 188.477 440.863L186.527 441.786V441.764ZM176.519 425.252C175.19 423.581 173.776 421.932 172.319 420.371L173.862 418.854C175.362 420.459 176.819 422.13 178.169 423.867L176.498 425.252H176.519ZM162.825 411.796C161.132 410.521 159.375 409.29 157.575 408.146L158.711 406.277C160.554 407.443 162.375 408.718 164.111 410.037L162.825 411.796ZM146.303 402.254C144.353 401.44 142.338 400.715 140.324 400.077L140.945 397.988C143.003 398.648 145.081 399.395 147.096 400.231L146.303 402.276V402.254ZM127.959 397.307C125.88 397.021 123.758 396.845 121.658 396.757L121.744 394.558C123.908 394.646 126.094 394.844 128.237 395.13L127.959 397.307ZM108.843 396.669H102.414V394.47H108.843V396.669ZM89.5562 396.669H83.1272V394.47H89.5562V396.669ZM70.2693 396.669H63.8403V394.47H70.2693V396.669ZM50.9823 396.669H44.5533V394.47H50.9823V396.669ZM31.6953 396.669H25.2663V394.47H31.6953V396.669ZM12.4084 396.669C10.2439 396.669 8.05809 396.537 5.89367 396.339L6.08652 394.141C8.18666 394.338 10.3082 394.448 12.4084 394.47V396.669ZM-6.92146 393.965C-9.00016 393.393 -11.1003 392.711 -13.1361 391.942L-12.4075 389.875C-10.436 390.623 -8.40012 391.282 -6.36427 391.832L-6.92146 393.965ZM-24.944 386.335C-26.8085 385.236 -28.6729 384.049 -30.4515 382.773L-29.23 380.97C-27.4942 382.202 -25.6941 383.367 -23.8726 384.422L-24.944 386.335ZM-40.5236 374.308C-42.0666 372.769 -43.5881 371.142 -45.0025 369.449L-43.3952 367.998C-42.0023 369.625 -40.5451 371.208 -39.045 372.725L-40.5451 374.308H-40.5236ZM-52.7173 358.698C-53.8531 356.807 -54.9246 354.828 -55.8889 352.849L-53.9816 351.86C-53.0387 353.794 -52.0101 355.707 -50.8957 357.532L-52.7173 358.676V358.698ZM-60.7107 340.448C-61.3321 338.316 -61.8893 336.139 -62.3393 333.984L-60.2392 333.522C-59.8106 335.633 -59.2748 337.744 -58.6534 339.811L-60.7107 340.448ZM-63.9466 320.726C-63.9894 319.693 -64.0109 318.659 -64.0109 317.626V316.79C-64.0109 315.867 -64.0109 314.965 -63.968 314.064L-61.825 314.13C-61.8464 315.009 -61.8679 315.889 -61.8679 316.79V317.626C-61.8679 318.637 -61.8679 319.649 -61.8036 320.638L-63.9466 320.726ZM-60.3035 301.246L-62.4036 300.806C-61.9536 298.629 -61.4178 296.452 -60.8178 294.32L-58.7605 294.957C-59.3606 297.024 -59.8749 299.135 -60.3035 301.268V301.246ZM-54.1102 282.864L-56.0389 281.897C-55.0746 279.918 -54.0245 277.939 -52.9101 276.048L-51.0672 277.192C-52.1601 279.039 -53.1887 280.974 -54.1102 282.886V282.864ZM-43.6095 266.66L-45.2382 265.231C-43.8238 263.538 -42.3237 261.911 -40.7808 260.35L-39.2807 261.911C-40.7808 263.428 -42.238 265.011 -43.6095 266.638V266.66ZM-29.5086 253.644L-30.7301 251.841C-28.9515 250.566 -27.087 249.356 -25.2226 248.257L-24.1511 250.17C-25.9727 251.247 -27.7728 252.412 -29.5086 253.644ZM-12.6861 244.629L-13.4362 242.562C-11.4217 241.793 -9.32161 241.111 -7.22147 240.518L-6.64286 242.628C-8.67871 243.2 -10.7146 243.882 -12.6647 244.629H-12.6861ZM5.78651 240.276L5.57221 238.077C7.71521 237.857 9.92249 237.747 12.0869 237.703V239.902C10.0082 239.924 7.88664 240.056 5.78651 240.254V240.276ZM218.993 239.902H217.815V237.703H218.993C220.708 237.703 222.465 237.637 224.158 237.527L224.308 239.726C222.551 239.858 220.772 239.902 218.993 239.924V239.902ZM204.957 239.902H198.528V237.703H204.957V239.902ZM185.67 239.902H179.241V237.703H185.67V239.902ZM166.383 239.902H159.954V237.703H166.383V239.902ZM147.096 239.902H140.667V237.703H147.096V239.902ZM127.809 239.902H121.38V237.703H127.809V239.902ZM108.522 239.902H102.093V237.703H108.522V239.902ZM89.2348 239.902H82.8058V237.703H89.2348V239.902ZM69.9478 239.902H63.5188V237.703H69.9478V239.902ZM50.6609 239.902H44.2319V237.703H50.6609V239.902ZM31.3739 239.902H24.9449V237.703H31.3739V239.902ZM237.166 237.659L236.651 235.526C238.687 235.021 240.745 234.405 242.738 233.724L243.423 235.812C241.366 236.516 239.266 237.154 237.166 237.681V237.659ZM255.36 230.469L254.353 228.535C256.217 227.501 258.039 226.38 259.796 225.215L260.974 227.061C259.174 228.271 257.288 229.414 255.381 230.491L255.36 230.469ZM271.218 218.838L269.761 217.233C271.304 215.782 272.804 214.221 274.218 212.616L275.804 214.089C274.347 215.738 272.804 217.321 271.218 218.838ZM283.776 203.513L281.976 202.326C283.112 200.523 284.205 198.632 285.19 196.719L287.076 197.753C286.047 199.71 284.955 201.667 283.776 203.513ZM292.198 185.462L290.162 184.781C290.826 182.714 291.405 180.625 291.898 178.536L293.977 179.042C293.484 181.197 292.884 183.351 292.198 185.484V185.462ZM295.905 165.828L293.762 165.696C293.869 164.091 293.912 162.464 293.912 160.837V159.166H296.055V160.837C296.055 162.508 296.012 164.179 295.905 165.828ZM296.055 145.973H293.912V139.377H296.055V145.973ZM296.055 126.185H293.912V119.589H296.055V126.185ZM296.055 106.397H293.912V99.8008H296.055V106.397ZM296.055 86.6086H293.912V80.0125H296.055V86.6086ZM296.055 66.8203H293.912V60.2242H296.055V66.8203ZM296.055 47.032H293.912V40.4359H296.055V47.032ZM296.055 27.2438H293.912V20.6477H296.055V27.2438ZM296.055 7.45547H293.912V0.859375H296.055V7.45547Z" fill="url(#paint0_linear_3169_8976)" fill-opacity="0.25"/>
<defs>
<linearGradient id="paint0_linear_3169_8976" x1="209.324" y1="-21.5416" x2="179.926" y2="1066.35" gradientUnits="userSpaceOnUse">
<stop stop-color="white" stop-opacity="0"/>
<stop offset="0.12363" stop-color="white" stop-opacity="0.87637"/>
<stop offset="0.887038" stop-color="white" stop-opacity="0.112962"/>
<stop offset="1" stop-color="white" stop-opacity="0"/>
</linearGradient>
</defs>
</svg>
