<svg width="390" height="1100" viewBox="0 0 390 1100" fill="none" xmlns="http://www.w3.org/2000/svg">
<path d="M306.919 1100H242.629V1015.1C242.629 990.286 222.956 970.09 198.783 970.09H45.3019C-14.3162 970.09 -62.8336 920.282 -62.8336 859.078V858.242C-62.8336 797.038 -14.3162 747.23 45.3019 747.23H349.864C374.037 747.23 393.71 727.034 393.71 702.218V672.474C393.71 647.658 374.037 627.462 349.864 627.462H270.402C210.784 627.462 162.267 577.654 162.267 516.45V489.456C162.267 464.64 142.594 444.444 118.421 444.444H13.1356C-46.4826 444.444 -95 394.636 -95 333.432V332.596C-95 271.392 -46.4826 221.584 13.1356 221.584H219.035C243.208 221.584 262.88 201.388 262.88 176.572V0H327.17V176.55C327.17 237.754 278.653 287.562 219.035 287.562H13.1356C-11.0374 287.562 -30.7101 307.758 -30.7101 332.574V333.41C-30.7101 358.226 -11.0374 378.422 13.1356 378.422H118.421C178.039 378.422 226.556 428.23 226.556 489.434V516.428C226.556 541.244 246.229 561.44 270.402 561.44H349.864C409.483 561.44 458 611.248 458 672.452V702.196C458 763.4 409.483 813.208 349.864 813.208H45.3019C21.1289 813.208 1.45623 833.404 1.45623 858.22V859.056C1.45623 883.872 21.1289 904.068 45.3019 904.068H198.783C258.401 904.068 306.919 953.876 306.919 1015.08V1099.98V1100Z" fill="url(#paint0_linear_3169_8972)" fill-opacity="0.44"/>
<defs>
<linearGradient id="paint0_linear_3169_8972" x1="220.121" y1="39.4836" x2="508.454" y2="1066.37" gradientUnits="userSpaceOnUse">
<stop stop-color="#6D6E71" stop-opacity="0"/>
<stop offset="0.246649" stop-color="white" stop-opacity="0.13"/>
<stop offset="0.510417" stop-color="#71D0BB" stop-opacity="0.54"/>
<stop offset="0.918727" stop-color="#5FFBD5" stop-opacity="0"/>
</linearGradient>
</defs>
</svg>
