<svg width="44" height="40" viewBox="0 0 44 40" fill="none" xmlns="http://www.w3.org/2000/svg">
<path d="M17.3842 12.4617V24.7694L27.1381 30.6155L28.6765 28.0924L20.4612 23.2309V12.4617H17.3842Z" fill="white"/>
<path d="M33.9998 18.4615C34.2152 19.4461 34.3075 20.4923 34.3075 21.5384C34.3075 30.0307 27.4152 36.923 18.9229 36.923C10.4306 36.923 3.53834 30.0307 3.53834 21.5384C3.53834 13.0462 10.4306 6.15386 18.9229 6.15386C21.1075 6.15386 23.1998 6.6154 25.0768 7.44617V4.15387C23.1383 3.47695 21.0768 3.07695 18.9229 3.07695C8.73833 3.07695 0.461426 11.3539 0.461426 21.5384C0.461426 31.723 8.73833 39.9999 18.9229 39.9999C29.1075 39.9999 37.3844 31.723 37.3844 21.5384C37.3844 20.4923 37.2613 19.4769 37.1075 18.4615H33.9998Z" fill="white"/>
<path d="M37.3847 6.15383V0H34.3078V6.15383H28.1539V9.23075H34.3078V15.3846H37.3847V9.23075H43.5385V6.15383H37.3847Z" fill="white"/>
</svg>
