<svg width="1211" height="768" viewBox="0 0 1211 768" fill="none" xmlns="http://www.w3.org/2000/svg">
<path opacity="0.0144928" d="M1130.42 540.821C1140.39 539.787 1148.48 532.278 1150.24 522.407L1178.21 366.222C1179.26 360.385 1177.96 354.371 1174.59 349.488L1039.45 153.4C1036.8 149.56 1033.03 146.637 1028.65 145.036L835.978 74.5996C828.036 71.6963 819.137 73.4908 812.941 79.2452L713.361 171.727C707.165 177.481 704.719 186.224 707.028 194.358L763.05 391.702C764.324 396.188 766.96 400.168 770.594 403.09L956.173 552.337C960.794 556.053 966.695 557.795 972.594 557.184L1130.42 540.821Z" stroke="url(#paint0_linear_3078_7124)" stroke-width="5"/>
<path opacity="0.0289855" d="M1107.56 554.808C1117.55 554.282 1125.99 547.228 1128.28 537.493L1164.36 384.226C1165.72 378.445 1164.74 372.36 1161.63 367.299L1038.23 166.296C1035.78 162.31 1032.15 159.185 1027.85 157.357L840.732 77.9167C832.959 74.6164 823.992 75.9469 817.512 81.362L713.897 167.946C707.417 173.361 704.515 181.949 706.382 190.185L751.318 388.436C752.352 392.998 754.782 397.124 758.27 400.241L934.154 557.387C938.582 561.344 944.396 563.389 950.326 563.077L1107.56 554.808Z" stroke="url(#paint1_linear_3078_7124)" stroke-width="5"/>
<path opacity="0.0434783" d="M1084.45 568.002C1094.43 567.984 1103.2 561.402 1106 551.83L1149.95 401.897C1151.62 396.189 1150.97 390.051 1148.13 384.825L1036.61 179.594C1034.37 175.472 1030.9 172.153 1026.68 170.101L845.528 82.0416C837.943 78.3543 828.933 79.2185 822.187 84.2804L714.88 164.8C708.134 169.862 704.786 178.271 706.206 186.585L740.116 385.128C740.906 389.753 743.122 394.015 746.454 397.319L912.328 561.763C916.552 565.95 922.262 568.295 928.21 568.284L1084.45 568.002Z" stroke="url(#paint2_linear_3078_7124)" stroke-width="5"/>
<path opacity="0.057971" d="M1061.12 580.397C1071.06 580.883 1080.13 574.789 1083.44 565.409L1135.02 419.209C1137 413.591 1136.67 407.417 1134.11 402.04L1034.57 193.27C1032.55 189.022 1029.24 185.516 1025.12 183.245L850.319 86.9693C842.942 82.9059 833.912 83.3031 826.92 87.9988L716.27 162.307C709.277 167.002 705.493 175.21 706.463 183.576L729.442 381.806C729.984 386.481 731.979 390.869 735.145 394.351L890.732 565.48C894.739 569.888 900.33 572.526 906.28 572.818L1061.12 580.397Z" stroke="url(#paint3_linear_3078_7124)" stroke-width="5"/>
<path opacity="0.0724638" d="M1037.63 591.989C1047.5 592.975 1056.85 587.382 1060.65 578.22L1119.58 436.137C1121.86 430.627 1121.87 424.434 1119.59 418.921L1032.1 207.298C1030.29 202.935 1027.16 199.25 1023.15 196.764L855.061 92.6927C847.91 88.2649 838.886 88.1956 831.668 92.5129L718.026 160.481C710.808 164.799 706.6 172.782 707.118 181.177L719.294 378.498C719.585 383.21 721.351 387.712 724.341 391.365L869.399 568.558C873.178 573.174 878.636 576.101 884.572 576.694L1037.63 591.989Z" stroke="url(#paint4_linear_3078_7124)" stroke-width="5"/>
<path opacity="0.0869565" d="M1014.01 602.776C1023.79 604.257 1033.39 599.178 1037.67 590.26L1103.66 452.659C1106.25 447.272 1106.58 441.078 1104.59 435.444L1029.17 221.651C1027.59 217.185 1024.65 213.329 1020.75 210.634L859.711 99.2014C852.804 94.422 843.81 93.8879 836.386 97.8161L720.111 159.337C712.687 163.266 708.069 171.002 708.135 179.401L709.667 375.232C709.704 379.968 711.235 384.571 714.041 388.387L848.365 571.015C851.905 575.828 857.214 579.036 863.122 579.93L1014.01 602.776Z" stroke="url(#paint5_linear_3078_7124)" stroke-width="5"/>
<path opacity="0.101449" d="M990.315 612.76C999.979 614.728 1009.8 610.174 1014.54 601.525L1087.29 468.753C1090.17 463.505 1090.83 457.328 1089.14 451.587L1025.77 236.304C1024.43 231.746 1021.68 227.729 1017.92 224.83L864.225 106.484C857.58 101.367 848.639 100.371 841.03 103.9L722.484 158.886C714.875 162.415 709.86 169.884 709.475 178.263L700.554 372.034C700.336 376.78 701.626 381.474 704.239 385.443L827.66 572.873C830.951 577.871 836.098 581.352 841.962 582.546L990.315 612.76Z" stroke="url(#paint6_linear_3078_7124)" stroke-width="5"/>
<path opacity="0.115942" d="M966.588 621.944C976.112 624.392 986.122 620.371 991.307 612.016L1070.5 484.398C1073.66 479.306 1074.66 473.162 1073.27 467.331L1021.9 251.227C1020.8 246.589 1018.25 242.421 1014.62 239.325L868.562 114.525C862.194 109.084 853.332 107.631 845.56 110.752L725.103 159.136C717.331 162.257 711.936 169.437 711.101 177.771L691.949 368.931C691.474 373.675 692.517 378.446 694.929 382.558L807.316 574.155C810.349 579.325 815.319 583.071 821.124 584.563L966.588 621.944Z" stroke="url(#paint7_linear_3078_7124)" stroke-width="5"/>
<path opacity="0.130435" d="M942.873 630.335C952.233 633.252 962.405 629.773 968.017 621.734L1053.3 499.577C1056.74 494.655 1058.07 488.564 1056.99 482.658L1017.53 266.394C1016.67 261.688 1014.33 257.379 1010.86 254.091L872.68 123.308C866.606 117.559 857.845 115.654 849.932 118.361L727.928 160.093C720.015 162.799 714.256 169.672 712.976 177.936L683.841 365.95C683.109 370.677 683.901 375.514 686.105 379.759L787.362 574.886C790.127 580.214 794.906 584.217 800.638 586.003L942.873 630.335Z" stroke="url(#paint8_linear_3078_7124)" stroke-width="5"/>
<path opacity="0.144928" d="M919.215 637.94C928.388 641.316 938.691 638.384 944.712 630.685L1035.74 514.272C1039.45 509.536 1041.1 503.514 1040.34 497.55L1012.66 281.775C1012.05 277.014 1009.93 272.574 1006.62 269.103L876.542 132.814C870.777 126.774 862.14 124.423 854.108 126.708L730.92 161.761C722.888 164.046 716.783 170.592 715.061 178.763L676.222 363.116C675.233 367.812 675.771 372.701 677.758 377.07L767.825 575.092C770.315 580.565 774.891 584.814 780.534 586.891L919.215 637.94Z" stroke="url(#paint9_linear_3078_7124)" stroke-width="5"/>
<path opacity="0.15942" d="M895.656 644.771C904.619 648.595 915.024 646.215 921.434 638.875L1017.84 528.47C1021.8 523.934 1023.78 517.998 1023.33 511.993L1007.28 297.342C1006.92 292.539 1005.03 287.979 1001.89 284.331L880.108 143.023C874.665 136.707 866.175 133.919 858.047 135.778L734.037 164.143C725.909 166.002 719.476 172.203 717.319 180.258L669.079 360.453C667.834 365.105 668.114 370.034 669.878 374.514L748.733 574.801C750.939 580.405 755.3 584.89 760.839 587.254L895.656 644.771Z" stroke="url(#paint10_linear_3078_7124)" stroke-width="5"/>
<path opacity="0.173913" d="M872.237 650.841C880.968 655.099 891.446 653.274 898.222 646.314L999.63 542.156C1003.84 537.833 1006.13 532.002 1006 525.971L1001.38 313.065C1001.27 308.233 999.617 303.564 996.652 299.748L883.342 153.911C878.234 147.337 869.914 144.12 861.712 145.549L737.239 167.237C729.037 168.666 722.295 174.506 719.712 182.42L662.399 357.986C660.9 362.58 660.919 367.534 662.454 372.116L730.107 574.041C732.024 579.761 736.157 584.472 741.579 587.116L872.237 650.841Z" stroke="url(#paint11_linear_3078_7124)" stroke-width="5"/>
<path opacity="0.188406" d="M849 656.165C857.478 660.844 867.998 659.574 875.118 653.012L981.139 555.318C985.582 551.224 988.192 545.514 988.381 539.475L994.959 328.914C995.111 324.067 993.692 319.301 990.915 315.326L886.208 165.453C881.448 158.639 873.319 155.005 865.067 156.001L740.487 171.04C732.235 172.036 725.204 177.501 722.202 185.252L656.17 355.736C654.418 360.259 654.175 365.225 655.475 369.897L711.973 572.843C713.593 578.664 717.487 583.589 722.777 586.508L849 656.165Z" stroke="url(#paint12_linear_3078_7124)" stroke-width="5"/>
<path opacity="0.202899" d="M825.985 660.761C834.189 665.845 844.722 665.13 852.163 658.984L962.399 567.948C967.066 564.094 969.983 558.523 970.492 552.491L988.014 344.861C988.423 340.012 987.249 335.16 984.667 331.034L888.676 177.622C884.274 170.587 876.358 166.546 868.078 167.108L743.741 175.549C735.462 176.111 728.164 181.184 724.753 188.75L650.376 353.728C648.376 358.164 647.868 363.13 648.929 367.88L694.35 571.237C695.669 577.144 699.312 582.27 704.457 585.458L825.985 660.761Z" stroke="url(#paint13_linear_3078_7124)" stroke-width="5"/>
<path opacity="0.217391" d="M803.228 664.65C811.139 670.122 821.654 669.96 829.393 664.246L943.44 580.038C948.318 576.436 951.535 571.019 952.364 565.013L980.54 360.876C981.208 356.037 980.283 351.113 977.905 346.846L890.711 190.391C886.677 183.154 878.994 178.719 870.71 178.847L746.963 180.755C738.679 180.883 731.136 185.552 727.328 192.91L644.999 351.98C642.754 356.318 641.982 361.269 642.798 366.084L677.255 569.256C678.269 575.233 681.652 580.549 686.638 583.998L803.228 664.65Z" stroke="url(#paint14_linear_3078_7124)" stroke-width="5"/>
<path opacity="0.231884" d="M780.767 667.851C788.367 673.696 798.835 674.083 806.846 668.815L924.295 591.58C929.369 588.243 932.879 582.997 934.027 577.033L972.539 376.929C973.466 372.115 972.794 367.13 970.628 362.732L892.285 203.729C888.629 196.309 881.198 191.494 872.933 191.188L750.115 186.649C741.85 186.344 734.083 190.598 729.89 197.727L640.025 350.514C637.539 354.74 636.502 359.662 637.07 364.531L660.708 566.932C661.412 572.964 664.525 578.455 669.339 582.158L780.767 667.851Z" stroke="url(#paint15_linear_3078_7124)" stroke-width="5"/>
<path opacity="0.246377" d="M758.637 670.39C765.908 676.588 776.301 677.519 784.558 672.711L904.993 602.571C910.25 599.509 914.044 594.449 915.508 588.545L964.013 392.991C965.197 388.215 964.784 383.182 962.835 378.664L893.37 217.605C890.1 210.023 882.94 204.841 874.716 204.105L753.161 193.221C744.937 192.485 736.97 196.312 732.405 203.192L635.433 349.349C632.713 353.45 631.412 358.329 631.729 363.239L644.722 564.299C645.114 570.37 647.948 576.023 652.577 579.97L758.637 670.39Z" stroke="url(#paint16_linear_3078_7124)" stroke-width="5"/>
<path opacity="0.26087" d="M736.872 672.291C743.797 678.825 754.086 680.292 762.562 675.954L885.567 613.008C890.992 610.232 895.059 605.374 896.837 599.544L954.964 409.034C956.405 404.309 956.252 399.241 954.527 394.613L893.941 231.986C891.063 224.262 884.193 218.73 876.033 217.566L756.063 200.457C747.904 199.293 739.761 202.684 734.839 209.296L631.207 348.502C628.257 352.465 626.693 357.287 626.756 362.227L629.309 561.391C629.388 567.485 631.934 573.286 636.367 577.469L736.872 672.291Z" stroke="url(#paint17_linear_3078_7124)" stroke-width="5"/>
<path opacity="0.275362" d="M715.502 673.58C722.067 680.43 732.223 682.426 740.892 678.569L866.046 622.89C871.624 620.408 875.954 615.766 878.042 610.03L945.397 425.027C947.093 420.368 947.203 415.278 945.708 410.55L893.974 246.839C891.495 238.994 884.931 233.127 876.858 231.541L758.789 208.341C750.715 206.755 742.42 209.702 737.157 216.026L627.325 347.99C624.152 351.802 622.328 356.554 622.135 361.509L614.482 558.243C614.245 564.343 616.497 570.278 620.721 574.686L715.502 673.58Z" stroke="url(#paint18_linear_3078_7124)" stroke-width="5"/>
<path opacity="0.289855" d="M694.558 674.289C700.748 681.434 710.744 683.948 719.578 680.581L846.461 632.218C852.175 630.039 856.757 625.628 859.151 620L935.318 440.945C937.266 436.364 937.641 431.266 936.382 426.449L893.447 262.129C891.371 254.183 885.13 248 877.165 245.996L761.303 216.858C753.338 214.855 744.915 217.351 739.326 223.369L623.766 347.83C620.379 351.478 618.297 356.147 617.847 361.104L600.248 554.889C599.695 560.98 601.645 567.034 605.649 571.656L694.558 674.289Z" stroke="url(#paint19_linear_3078_7124)" stroke-width="5"/>
<path opacity="0.304348" d="M674.069 674.444C679.871 681.864 689.68 684.885 698.651 682.014L826.843 640.993C832.678 639.125 837.5 634.959 840.194 629.456L924.735 456.757C926.933 452.268 927.573 447.175 926.555 442.282L892.342 277.819C890.672 269.794 884.77 263.311 876.935 260.899L763.573 225.988C755.739 223.576 747.213 225.615 741.317 231.311L620.511 348.034C616.917 351.507 614.581 356.078 613.872 361.025L586.614 551.365C585.746 557.43 587.388 563.587 591.162 568.414L674.069 674.444Z" stroke="url(#paint20_linear_3078_7124)" stroke-width="5"/>
<path opacity="0.318841" d="M654.059 674.079C659.461 681.752 669.058 685.267 678.138 682.898L807.221 649.22C813.161 647.671 818.209 643.762 821.197 638.4L913.659 472.438C916.101 468.054 917.008 462.98 916.235 458.021L890.641 293.874C889.38 285.79 883.83 279.027 876.148 276.213L765.57 235.712C757.887 232.898 749.282 234.476 743.098 239.834L617.537 348.616C613.744 351.902 611.159 356.362 610.192 361.286L573.586 547.706C572.403 553.729 573.732 559.974 577.266 564.994L654.059 674.079Z" stroke="url(#paint21_linear_3078_7124)" stroke-width="5"/>
<path opacity="0.333333" d="M634.553 673.225C639.544 681.13 648.903 685.125 658.063 683.261L787.626 656.906C793.652 655.68 798.913 652.041 802.187 646.835L902.098 487.962C904.781 483.696 905.954 478.654 905.429 473.642L888.329 310.257C887.479 302.135 882.295 295.111 874.784 291.905L767.262 246.006C759.752 242.8 751.094 243.915 744.641 248.919L614.822 349.589C610.84 352.676 608.009 357.012 606.785 361.9L561.164 543.948C559.669 549.913 560.681 556.23 563.964 561.43L634.553 673.225Z" stroke="url(#paint22_linear_3078_7124)" stroke-width="5"/>
<path opacity="0.347826" d="M615.574 671.916C620.144 680.03 629.24 684.489 638.453 683.133L768.085 664.055C774.18 663.158 779.641 659.801 783.193 654.767L890.066 503.302C892.984 499.167 894.422 494.17 894.149 489.117L885.394 326.928C884.955 318.79 880.149 311.525 872.831 307.938L768.623 256.849C761.305 253.262 752.619 253.912 745.917 258.549L612.343 350.961C608.181 353.84 605.112 358.038 603.63 362.876L549.351 540.125C547.547 546.016 548.237 552.389 551.261 557.757L615.574 671.916Z" stroke="url(#paint23_linear_3078_7124)" stroke-width="5"/>
<path opacity="0.362319" d="M597.139 670.188C601.281 678.487 610.091 683.394 619.328 682.546L748.626 670.679C754.773 670.115 760.418 667.05 764.24 662.203L877.576 518.434C880.722 514.443 882.424 509.505 882.406 504.423L881.826 343.85C881.796 335.717 877.38 328.232 870.274 324.275L769.625 268.216C762.519 264.258 753.831 264.444 746.9 268.701L610.076 352.744C605.746 355.404 602.444 359.451 600.707 364.227L538.144 536.274C536.034 542.075 536.4 548.488 539.157 554.011L597.139 670.188Z" stroke="url(#paint24_linear_3078_7124)" stroke-width="5"/>
<path opacity="0.376812" d="M579.269 668.073C582.975 676.535 591.477 681.872 600.708 681.531L729.279 676.786C735.459 676.558 741.273 673.796 745.354 669.149L864.643 533.334C868.011 529.5 869.975 524.634 870.213 519.536L877.617 360.985C877.995 352.877 873.978 345.194 867.103 340.879L770.244 280.08C763.37 275.765 754.704 275.487 747.567 279.353L607.999 354.944C603.511 357.375 599.983 361.259 597.994 365.959L527.54 532.428C525.13 538.123 525.17 544.559 527.651 550.224L579.269 668.073Z" stroke="url(#paint25_linear_3078_7124)" stroke-width="5"/>
<path opacity="0.391304" d="M561.977 665.61C565.241 674.211 573.414 679.958 582.612 680.122L710.067 682.388C716.262 682.498 722.229 680.049 726.559 675.617L851.282 547.98C854.865 544.314 857.089 539.534 857.584 534.432L872.76 378.294C873.543 370.232 869.934 362.372 863.308 357.713L770.458 292.416C763.832 287.757 755.214 287.018 747.893 290.482L606.087 357.568C601.454 359.761 597.707 363.47 595.469 368.081L517.534 528.621C514.828 534.195 514.54 540.639 516.739 546.432L561.977 665.61Z" stroke="url(#paint26_linear_3078_7124)" stroke-width="5"/>
<path opacity="0.405797" d="M545.277 662.834C548.095 671.551 555.918 677.688 565.056 678.352L691.018 687.498C697.21 687.948 703.313 685.819 707.881 681.615L837.512 562.349C841.302 558.862 843.78 554.182 844.535 549.088L867.253 395.738C868.437 387.743 865.243 379.727 858.884 374.738L770.244 305.194C763.885 300.205 755.339 299.01 747.856 302.063L604.318 360.622C599.55 362.567 595.594 366.089 593.109 370.599L508.118 524.888C505.122 530.326 504.507 536.76 506.417 542.667L545.277 662.834Z" stroke="url(#paint27_linear_3078_7124)" stroke-width="5"/>
<path opacity="0.42029" d="M529.179 659.782C531.549 668.591 539.003 675.098 548.052 676.255L672.155 692.13C678.325 692.92 684.547 691.119 689.342 687.157L823.349 576.42C827.337 573.125 830.067 568.557 831.081 563.484L861.094 413.279C862.674 405.371 859.901 397.222 853.826 391.919L769.583 318.386C763.507 313.083 755.058 311.437 747.437 314.072L602.665 364.109C597.776 365.799 593.619 369.121 590.893 373.517L499.283 521.261C496.005 526.548 495.062 532.956 496.678 538.963L529.179 659.782Z" stroke="url(#paint28_linear_3078_7124)" stroke-width="5"/>
<path opacity="0.434783" d="M513.694 656.491C515.613 665.369 522.681 672.223 531.613 673.867L653.503 696.3C659.633 697.429 665.956 695.963 670.965 692.254L808.815 590.175C812.991 587.082 815.968 582.639 817.241 577.6L854.285 430.878C856.254 423.077 853.908 414.818 848.132 409.217L768.458 331.963C762.681 326.362 754.354 324.272 746.617 326.481L601.107 368.032C596.11 369.459 591.761 372.571 588.799 376.841L491.018 517.773C487.465 522.894 486.196 529.26 487.512 535.352L513.694 656.491Z" stroke="url(#paint29_linear_3078_7124)" stroke-width="5"/>
<path opacity="0.449275" d="M498.826 653C500.293 661.922 506.959 669.1 515.749 671.221L635.083 700.024C641.154 701.49 647.561 700.366 652.771 696.921L793.927 603.594C798.283 600.714 801.501 596.409 803.031 591.417L846.827 448.498C849.179 440.823 847.264 432.477 841.801 426.595L766.852 345.893C761.389 340.011 753.207 337.485 745.379 339.264L599.617 372.392C594.526 373.549 589.995 376.441 586.802 380.572L483.31 514.455C479.491 519.396 477.897 525.703 478.91 531.866L498.826 653Z" stroke="url(#paint30_linear_3078_7124)" stroke-width="5"/>
<path opacity="0.463768" d="M484.582 649.344C485.598 658.288 491.846 665.766 500.467 668.354L616.917 703.32C622.911 705.12 629.384 704.342 634.781 701.173L778.71 616.661C783.234 614.004 786.687 609.85 788.473 604.917L838.728 466.102C841.454 458.572 839.973 450.161 834.837 444.015L764.753 360.147C759.618 354.002 751.604 351.049 743.709 352.394L598.174 377.189C593.002 378.07 588.301 380.731 584.883 384.711L476.146 511.337C472.069 516.085 470.153 522.317 470.859 528.535L484.582 649.344Z" stroke="url(#paint31_linear_3078_7124)" stroke-width="5"/>
<path opacity="0.478261" d="M470.962 645.562C471.528 654.504 477.346 662.257 485.773 665.301L599.026 706.206C604.924 708.337 611.444 707.909 617.013 705.026L763.183 629.359C767.864 626.935 771.547 622.945 773.586 618.083L829.995 483.653C833.086 476.286 832.039 467.833 827.244 461.443L762.148 374.692C757.354 368.302 749.53 364.933 741.593 365.842L596.753 382.422C591.515 383.022 586.654 385.441 583.019 389.259L469.508 508.449C465.183 512.99 462.949 519.13 463.346 525.389L470.962 645.562Z" stroke="url(#paint32_linear_3078_7124)" stroke-width="5"/>
<path opacity="0.492754" d="M457.967 641.69C458.088 650.606 463.463 658.61 471.671 662.096L581.429 708.702C587.213 711.158 593.761 711.084 599.488 708.496L747.37 641.675C752.198 639.493 756.102 635.677 758.393 630.9L820.637 501.114C824.083 493.929 823.471 485.456 819.028 478.841L759.029 389.496C754.586 382.881 746.975 379.109 739.02 379.58L595.331 388.088C590.042 388.402 585.034 390.571 581.187 394.215L463.379 505.819C458.817 510.141 456.27 516.174 456.355 522.457L457.967 641.69Z" stroke="url(#paint33_linear_3078_7124)" stroke-width="5"/>
<path opacity="0.507246" d="M445.594 637.764C445.273 646.633 450.195 654.862 458.16 658.774L564.142 710.828C569.794 713.604 576.351 713.885 582.22 711.601L731.294 653.594C736.256 651.663 740.373 648.035 742.912 643.354L810.665 518.451C814.455 511.464 814.277 502.996 810.197 496.174L755.384 404.529C751.304 397.707 743.927 393.544 735.978 393.578L593.885 394.184C588.56 394.207 583.415 396.117 579.366 399.576L457.74 503.474C452.952 507.564 450.097 513.474 449.869 519.767L445.594 637.764Z" stroke="url(#paint34_linear_3078_7124)" stroke-width="5"/>
<path opacity="0.521739" d="M433.84 633.822C433.082 642.621 437.542 651.049 445.242 655.372L547.181 712.606C552.684 715.695 559.232 716.332 565.227 714.36L714.979 665.106C720.063 663.434 724.385 660.004 727.168 655.432L800.093 535.63C804.215 528.858 804.469 520.416 800.761 513.408L751.21 419.757C747.502 412.749 740.38 408.21 732.462 407.808L592.391 400.704C587.045 400.433 581.778 402.076 577.535 405.339L452.569 501.44C447.567 505.287 444.41 511.058 443.869 517.346L433.84 633.822Z" stroke="url(#paint35_linear_3078_7124)" stroke-width="5"/>
<path opacity="0.536232" d="M422.697 629.899C421.51 638.605 425.499 647.205 432.912 651.922L530.563 714.056C535.899 717.451 542.417 718.444 548.522 716.791L698.449 676.2C703.643 674.794 708.161 671.573 711.184 667.121L788.937 552.618C793.379 546.076 794.061 537.683 790.734 530.51L746.501 435.148C743.174 427.975 736.326 423.075 728.463 422.241L590.828 407.642C585.477 407.074 580.1 408.443 575.672 411.5L447.846 499.74C442.641 503.333 439.189 508.951 438.335 515.217L422.697 629.899Z" stroke="url(#paint36_linear_3078_7124)" stroke-width="5"/>
<path opacity="0.550725" d="M412.158 626.029C410.549 634.62 414.062 643.367 421.167 648.458L514.301 715.202C519.453 718.894 525.923 720.242 532.12 718.914L681.731 686.866C687.02 685.733 691.725 682.733 694.982 678.414L777.214 569.382C781.962 563.086 783.068 554.765 780.129 547.447L741.257 450.671C738.318 443.353 731.763 438.109 723.979 436.847L589.174 414.991C583.835 414.125 578.362 415.212 573.758 418.052L443.547 498.399C438.153 501.727 434.413 507.176 433.247 513.405L412.158 626.029Z" stroke="url(#paint37_linear_3078_7124)" stroke-width="5"/>
<path opacity="0.565217" d="M402.212 622.246C400.19 630.703 403.222 639.568 410 645.015L498.407 716.067C503.358 720.046 509.76 721.747 516.033 720.75L664.848 697.099C670.22 696.245 675.1 693.475 678.586 689.3L764.942 585.893C769.982 579.857 771.506 571.628 768.961 564.188L735.476 466.293C732.931 458.853 726.686 453.281 719.006 451.597L587.409 422.742C582.096 421.577 576.541 422.376 571.772 424.991L439.648 497.436C434.078 500.49 430.059 505.756 428.582 511.934L402.212 622.246Z" stroke="url(#paint38_linear_3078_7124)" stroke-width="5"/>
<path opacity="0.57971" d="M392.846 618.583C390.422 626.885 392.97 635.842 399.402 641.624L482.891 716.673C487.625 720.929 493.94 722.98 500.272 722.318L647.827 706.891C653.266 706.322 658.312 703.792 662.022 699.772L752.143 602.12C757.46 596.359 759.395 588.244 757.249 580.703L729.159 481.984C727.013 474.442 721.096 468.562 713.542 466.463L585.511 430.885C580.241 429.421 574.619 429.926 569.695 432.307L436.122 496.873C430.391 499.643 426.101 504.712 424.316 510.823L392.846 618.583Z" stroke="url(#paint39_linear_3078_7124)" stroke-width="5"/>
<path opacity="0.594203" d="M384.048 615.073C381.232 623.2 383.295 632.222 389.364 638.317L467.762 717.046C472.264 721.567 478.474 723.964 484.846 723.64L630.692 716.238C636.185 715.959 641.386 713.678 645.312 709.825L738.838 618.038C744.417 612.562 746.755 604.583 745.011 596.963L722.31 497.711C720.567 490.091 714.993 483.921 707.588 481.415L583.46 439.411C578.25 437.648 572.575 437.855 567.507 439.992L432.945 496.726C427.066 499.205 422.515 504.063 420.426 510.092L384.048 615.073Z" stroke="url(#paint40_linear_3078_7124)" stroke-width="5"/>
<path opacity="0.608696" d="M375.801 611.746C372.605 619.68 374.184 628.739 379.874 635.124L453.03 717.207C457.285 721.981 463.37 724.719 469.765 724.737L613.471 725.137C619.003 725.152 624.347 723.129 628.481 719.454L725.051 633.618C730.876 628.44 733.607 620.617 732.269 612.939L714.934 513.445C713.597 505.767 708.381 499.328 701.148 496.426L581.239 448.307C576.105 446.247 570.392 446.15 565.191 448.036L430.088 497.013C424.076 499.193 419.276 503.827 416.886 509.759L375.801 611.746Z" stroke="url(#paint41_linear_3078_7124)" stroke-width="5"/>
<path opacity="0.623188" d="M368.087 608.632C364.525 616.354 365.62 625.424 370.918 632.076L438.7 717.183C442.693 722.196 448.634 725.269 455.034 725.63L596.188 733.587C601.743 733.9 607.218 732.143 611.554 728.656L710.806 648.838C716.861 643.969 719.975 636.321 719.044 628.608L707.038 529.156C706.107 521.443 701.262 514.756 694.223 511.467L578.828 457.562C573.786 455.207 568.05 454.804 562.729 456.43L427.524 497.749C421.394 499.622 416.354 504.021 413.669 509.841L368.087 608.632Z" stroke="url(#paint42_linear_3078_7124)" stroke-width="5"/>
<path opacity="0.637681" d="M360.889 605.759C356.973 613.252 357.588 622.307 362.48 629.201L424.777 716.996C428.494 722.235 434.274 725.635 440.66 726.34L578.869 741.586C584.433 742.2 590.026 740.718 594.556 737.428L696.13 663.673C702.397 659.123 705.883 651.669 705.359 643.943L698.629 544.815C698.105 537.088 693.643 530.174 686.819 526.512L576.209 467.161C571.277 464.514 565.534 463.801 560.104 465.161L425.223 498.946C418.992 500.507 413.724 504.657 410.749 510.351L360.889 605.759Z" stroke="url(#paint43_linear_3078_7124)" stroke-width="5"/>
<path opacity="0.652174" d="M354.184 603.154C349.931 610.401 350.07 619.414 354.545 626.526L411.265 716.671C414.694 722.121 420.294 725.841 426.647 726.889L561.54 749.137C567.097 750.054 572.796 748.853 577.511 745.772L681.051 678.103C687.512 673.88 691.358 666.64 691.239 658.922L689.719 560.392C689.6 552.674 685.533 545.555 678.944 541.534L573.367 477.09C568.56 474.156 562.827 473.131 557.3 474.218L423.158 500.616C416.84 501.859 411.357 505.75 408.098 511.303L354.184 603.154Z" stroke="url(#paint44_linear_3078_7124)" stroke-width="5"/>
<path opacity="0.666667" d="M347.952 600.842C343.376 607.828 343.045 616.774 347.093 624.078L398.165 716.233C401.294 721.879 406.696 725.909 412.999 727.299L544.226 756.243C549.761 757.464 555.552 756.551 560.443 753.687L665.594 692.109C672.233 688.221 676.425 681.211 676.709 673.524L680.318 575.861C680.602 568.174 676.939 560.874 670.606 556.507L570.286 487.335C565.62 484.118 559.912 482.78 554.302 483.589L421.297 502.768C414.909 503.689 409.224 507.309 405.687 512.708L347.952 600.842Z" stroke="url(#paint45_linear_3078_7124)" stroke-width="5"/>
<path opacity="0.681159" d="M342.169 598.848C337.287 605.558 336.494 614.411 340.107 621.882L385.48 715.706C388.297 721.53 393.484 725.86 399.718 727.591L526.953 762.908C532.448 764.433 538.319 763.814 543.376 761.177L649.792 705.672C656.589 702.127 661.113 695.365 661.797 687.729L670.44 591.196C671.124 583.56 667.873 576.102 661.813 571.406L566.951 497.879C562.443 494.385 556.776 492.733 551.096 493.258L419.611 505.41C413.169 506.005 407.295 509.345 403.489 514.576L342.169 598.848Z" stroke="url(#paint46_linear_3078_7124)" stroke-width="5"/>
<path opacity="0.695652" d="M336.812 597.192C331.64 603.613 330.394 612.349 333.565 619.959L373.208 715.112C375.702 721.099 380.658 725.718 386.805 727.785L509.744 769.136C515.185 770.966 521.12 770.647 526.334 768.244L633.672 718.777C640.609 715.58 645.451 709.082 646.529 701.52L660.099 606.37C661.177 598.808 658.346 591.215 652.578 586.206L563.348 508.706C559.014 504.942 553.404 502.977 547.668 503.213L418.071 508.548C411.592 508.815 405.542 511.864 401.474 516.915L336.812 597.192Z" stroke="url(#paint47_linear_3078_7124)" stroke-width="5"/>
<path opacity="0.710145" d="M331.854 595.897C326.41 602.016 324.721 610.61 327.445 618.334L361.347 714.477C363.509 720.608 368.217 725.504 374.258 727.904L492.624 774.935C497.995 777.069 503.98 777.055 509.341 774.895L617.265 731.412C624.325 728.568 629.468 722.348 630.935 714.88L649.311 621.361C650.778 613.893 648.371 606.19 642.913 600.886L559.464 519.8C555.32 515.773 549.784 513.495 544.006 513.438L416.645 512.186C410.145 512.122 403.934 514.873 399.613 519.73L331.854 595.897Z" stroke="url(#paint48_linear_3078_7124)" stroke-width="5"/>
<path opacity="0.724638" d="M327.269 594.98C321.571 600.786 319.451 609.215 321.725 617.026L349.895 713.822C351.716 720.079 356.16 725.24 362.078 727.968L475.617 780.314C480.9 782.75 486.922 783.044 492.419 781.135L600.604 743.563C607.766 741.076 613.194 735.149 615.043 727.796L638.092 636.144C639.941 628.792 637.963 621.002 632.83 615.423L555.289 531.142C551.35 526.861 545.905 524.271 540.097 523.918L415.304 516.326C408.799 515.93 402.442 518.374 397.878 523.025L327.269 594.98Z" stroke="url(#paint49_linear_3078_7124)" stroke-width="5"/>
<path opacity="0.73913" d="M323.03 594.458C317.098 599.941 314.559 608.183 316.38 616.053L338.846 713.171C340.318 719.536 344.484 724.946 350.261 727.997L458.745 785.281C463.926 788.016 469.969 788.623 475.59 786.973L583.719 755.221C590.965 753.093 596.66 747.472 598.883 740.255L626.462 650.698C628.685 643.481 627.138 635.63 622.345 629.794L550.811 542.715C547.092 538.188 541.754 535.29 535.932 534.637L414.016 520.968C407.524 520.24 401.036 522.37 396.238 526.804L323.03 594.458Z" stroke="url(#paint50_linear_3078_7124)" stroke-width="5"/>
<path opacity="0.753623" d="M319.11 594.348C312.961 599.498 310.019 607.531 311.386 615.434L328.194 712.545C329.311 718.998 333.184 724.645 338.802 728.01L442.031 789.847C447.092 792.879 453.142 793.801 458.877 792.416L566.641 766.379C573.952 764.612 579.897 759.309 582.484 752.246L614.439 665.004C617.026 657.941 615.912 650.052 611.472 643.982L546.02 554.5C542.536 549.738 537.322 546.534 531.499 545.58L412.752 526.112C406.289 525.053 399.686 526.862 394.665 531.067L319.11 594.348Z" stroke="url(#paint51_linear_3078_7124)" stroke-width="5"/>
<path opacity="0.768116" d="M315.479 594.662C309.134 599.471 305.802 607.275 306.719 615.184L317.933 711.967C318.689 718.489 322.256 724.356 327.698 728.028L425.496 794.025C430.422 797.349 436.463 798.59 442.301 797.475L549.404 777.03C556.761 775.625 562.937 770.651 565.878 763.762L602.044 679.041C604.984 672.152 604.304 664.251 600.229 657.966L540.908 566.478C537.675 561.492 532.6 557.987 526.792 556.729L411.482 531.755C405.066 530.365 398.362 531.848 393.129 535.813L315.479 594.662Z" stroke="url(#paint52_linear_3078_7124)" stroke-width="5"/>
<path opacity="0.782609" d="M312.109 595.412C305.587 599.873 301.883 607.428 302.351 615.316L308.056 711.457C308.446 718.028 311.693 724.098 316.942 728.069L409.162 797.827C413.936 801.439 419.954 802.999 425.882 802.161L532.038 787.17C539.423 786.127 545.812 781.492 549.095 774.795L589.297 692.791C592.58 686.095 592.332 678.206 588.633 671.729L535.468 578.63C532.5 573.431 527.581 569.63 521.802 568.067L410.177 537.891C403.823 536.173 397.036 537.324 391.603 541.04L312.109 595.412Z" stroke="url(#paint53_linear_3078_7124)" stroke-width="5"/>
<path opacity="0.797101" d="M308.97 596.607C302.291 600.714 298.231 608.002 298.256 615.843L298.552 711.035C298.572 717.634 301.488 723.891 306.528 728.151L393.047 801.267C397.655 805.161 403.632 807.042 409.639 806.487L514.577 796.797C521.971 796.115 528.552 791.828 532.165 785.341L576.221 706.24C579.835 699.753 580.014 691.901 576.702 685.256L529.694 590.937C527.003 585.538 522.257 581.446 516.521 579.578L408.808 544.514C402.534 542.471 395.678 543.286 390.057 546.743L308.97 596.607Z" stroke="url(#paint54_linear_3078_7124)" stroke-width="5"/>
<path opacity="0.811594" d="M306.031 598.255C299.216 602.004 294.82 609.007 294.407 616.775L289.41 710.721C289.059 717.327 291.633 723.754 296.448 728.291L377.172 804.361C381.596 808.53 387.518 810.732 393.592 810.465L497.051 805.912C504.436 805.588 511.189 801.657 515.119 795.396L562.839 719.373C566.768 713.113 567.373 705.322 564.455 698.53L523.58 603.379C521.18 597.793 516.623 593.416 510.945 591.244L407.346 551.616C401.167 549.252 394.261 549.728 388.464 552.916L306.031 598.255Z" stroke="url(#paint55_linear_3078_7124)" stroke-width="5"/>
<path opacity="0.826087" d="M303.265 600.363C296.333 603.749 291.62 610.452 290.777 618.121L280.621 710.533C279.897 717.126 282.118 723.703 286.692 728.507L361.554 807.125C365.779 811.563 371.631 814.085 377.758 814.109L479.494 814.517C486.85 814.547 493.757 810.978 497.989 804.96L549.173 732.176C553.405 726.159 554.428 718.452 551.912 711.539L517.122 615.936C515.027 610.178 510.674 605.524 505.069 603.048L405.765 559.187C399.698 556.507 392.757 556.64 386.798 559.552L303.265 600.363Z" stroke="url(#paint56_linear_3078_7124)" stroke-width="5"/>
<path opacity="0.84058" d="M300.64 602.933C293.612 605.956 288.601 612.343 287.338 619.888L272.172 710.489C271.074 717.048 272.934 723.757 277.252 728.814L346.209 809.576C350.22 814.274 355.985 817.116 362.154 817.436L461.935 822.615C469.245 822.995 476.284 819.794 480.803 814.034L535.248 744.639C539.767 738.879 541.201 731.281 539.093 724.27L510.317 628.589C508.538 622.674 504.405 617.75 498.888 614.972L404.036 567.215C398.097 564.225 391.138 564.015 385.029 566.642L300.64 602.933Z" stroke="url(#paint57_linear_3078_7124)" stroke-width="5"/>
<path opacity="0.855072" d="M298.127 605.969C291.023 608.626 285.735 614.684 284.063 622.082L264.049 710.606C262.579 717.11 264.069 723.93 268.117 729.228L331.154 811.732C334.936 816.681 340.599 819.841 346.796 820.46L444.405 830.213C451.653 830.937 458.803 828.107 463.593 822.62L521.087 756.75C525.877 751.263 527.714 743.796 526.017 736.712L503.163 641.317C501.712 635.261 497.816 630.076 492.401 626.999L402.135 575.689C396.339 572.394 389.379 571.84 383.134 574.176L298.127 605.969Z" stroke="url(#paint58_linear_3078_7124)" stroke-width="5"/>
<path opacity="0.869565" d="M295.695 609.471C288.535 611.762 282.993 617.478 280.923 624.705L256.239 710.9C254.398 717.326 255.511 724.239 259.275 729.763L316.405 813.611C319.941 818.802 325.487 822.278 331.7 823.199L426.934 837.316C434.102 838.379 441.343 835.924 446.387 830.722L506.716 768.503C511.76 763.301 513.99 755.988 512.707 748.856L495.66 654.102C494.548 647.92 490.903 642.485 485.605 639.11L400.036 584.593C394.398 581.001 387.454 580.102 381.087 582.14L295.695 609.471Z" stroke="url(#paint59_linear_3078_7124)" stroke-width="5"/>
<path opacity="0.884058" d="M293.316 613.436C286.121 615.364 280.345 620.727 277.892 627.761L248.727 711.385C246.52 717.714 247.249 724.697 250.716 730.434L301.973 815.234C305.251 820.656 310.662 824.445 316.878 825.67L409.553 843.936C416.624 845.33 423.935 843.252 429.215 838.347L492.159 779.89C497.44 774.986 500.051 767.849 499.183 760.694L487.808 666.924C487.045 660.634 483.666 654.958 478.5 651.289L397.715 593.913C392.25 590.032 385.339 588.789 378.865 590.523L293.316 613.436Z" stroke="url(#paint60_linear_3078_7124)" stroke-width="5"/>
<path opacity="0.898551" d="M290.96 617.862C283.749 619.427 277.763 624.429 274.942 631.248L241.497 712.075C238.928 718.285 239.269 725.318 242.427 731.25L287.873 816.619C290.876 822.262 296.138 826.36 302.344 827.891L392.289 850.082C399.247 851.799 406.606 850.098 412.106 845.502L477.44 790.907C482.939 786.311 485.92 779.371 485.467 772.218L479.608 679.762C479.204 673.383 476.105 667.477 471.086 663.519L395.149 603.63C389.872 599.468 383.011 597.883 376.443 599.309L290.96 617.862Z" stroke="url(#paint61_linear_3078_7124)" stroke-width="5"/>
<path opacity="0.913043" d="M288.599 622.744C281.392 623.95 275.219 628.582 272.046 635.165L234.535 712.983C231.609 719.053 231.557 726.115 234.395 732.227L274.114 817.789C276.83 823.64 281.927 828.043 288.11 829.882L375.169 855.768C381.999 857.798 389.387 856.474 395.086 852.198L462.584 801.549C468.283 797.272 471.62 790.549 471.58 783.424L471.063 692.599C471.026 686.149 468.222 680.024 463.364 675.781L392.316 613.727C387.241 609.294 380.446 607.369 373.8 608.482L288.599 622.744Z" stroke="url(#paint62_linear_3078_7124)" stroke-width="5"/>
<path opacity="0.927536" d="M286.206 628.074C279.021 628.927 272.684 633.182 269.177 639.51L227.822 714.12C224.547 720.029 224.1 727.098 226.606 733.372L260.708 818.763C263.123 824.81 268.038 829.514 274.185 831.66L358.221 861.007C364.908 863.342 372.304 862.392 378.183 858.444L447.617 811.815C453.497 807.867 457.174 801.38 457.543 794.307L462.175 705.415C462.514 698.913 460.02 692.583 455.336 688.06L389.197 624.184C384.337 619.49 377.625 617.229 370.916 618.025L286.206 628.074Z" stroke="url(#paint63_linear_3078_7124)" stroke-width="5"/>
<path opacity="0.942029" d="M283.752 633.845C276.609 634.349 270.132 638.223 266.309 644.277L221.343 715.497C217.727 721.226 216.883 728.279 219.048 734.698L247.663 819.565C249.763 825.794 254.482 830.792 260.58 833.248L341.471 865.816C348 868.444 355.383 867.866 361.423 864.254L432.563 821.705C438.604 818.092 442.606 811.861 443.378 804.865L452.951 718.191C453.672 711.658 451.5 705.135 447.006 700.338L385.773 634.981C381.141 630.037 374.528 627.443 367.77 627.92L283.752 633.845Z" stroke="url(#paint64_linear_3078_7124)" stroke-width="5"/>
<path opacity="0.956522" d="M281.211 640.046C274.128 640.208 267.535 643.696 263.417 649.461L215.08 717.124C211.131 722.651 209.891 729.666 211.705 736.212L234.986 820.215C236.759 826.612 241.266 831.9 247.302 834.663L324.941 870.211C331.3 873.122 338.65 872.911 344.831 869.641L417.446 831.22C423.627 827.949 427.936 821.991 429.106 815.097L443.394 730.91C444.504 724.366 442.668 717.664 438.377 712.6L382.024 646.096C377.632 640.913 371.135 637.992 364.344 638.147L281.211 640.046Z" stroke="url(#paint65_linear_3078_7124)" stroke-width="5"/>
<path opacity="0.971014" d="M278.558 646.666C271.553 646.493 264.868 649.594 260.475 655.054L209.014 719.007C204.744 724.314 203.108 731.268 204.564 737.922L222.684 820.736C224.117 827.286 228.398 832.856 234.358 835.928L308.656 874.211C314.831 877.392 322.128 877.544 328.429 874.621L402.29 840.362C408.591 837.439 413.189 831.77 414.748 825.002L433.511 743.554C435.016 737.019 433.528 730.154 429.453 724.829L377.935 657.506C373.796 652.098 367.429 648.855 360.62 648.687L278.558 646.666Z" stroke="url(#paint66_linear_3078_7124)" stroke-width="5"/>
<path opacity="0.985507" d="M275.77 653.691C268.859 653.193 262.105 655.906 257.459 661.045L203.129 721.155C198.55 726.221 196.52 733.093 197.61 739.835L210.762 821.151C211.844 827.839 215.882 833.684 221.754 837.062L292.637 877.836C298.616 881.275 305.842 881.782 312.243 879.211L387.119 849.136C393.519 846.565 398.387 841.201 400.325 834.581L423.31 756.104C425.214 749.602 424.087 742.589 420.242 737.01L373.491 669.19C369.615 663.567 363.396 660.009 356.584 659.518L275.77 653.691Z" stroke="url(#paint67_linear_3078_7124)" stroke-width="5"/>
<path d="M272.82 661.107C266.021 660.293 259.222 662.619 254.346 667.426L197.405 723.574C192.53 728.381 190.108 735.148 190.827 741.957L199.223 821.482C199.942 828.292 203.722 834.404 209.494 838.087L276.904 881.107C282.676 884.79 289.812 885.645 296.291 883.429L371.954 857.548C378.433 855.332 383.55 850.286 385.857 843.839L412.797 768.546C415.104 762.099 414.35 754.953 410.748 749.129L368.679 681.122C365.077 675.299 359.019 671.433 352.22 670.618L272.82 661.107Z" stroke="url(#paint68_linear_3078_7124)" stroke-width="5"/>
<defs>
<linearGradient id="paint0_linear_3078_7124" x1="1149.39" y1="541.368" x2="725.934" y2="85.4132" gradientUnits="userSpaceOnUse">
<stop stop-color="#2E43FF" stop-opacity="0.66"/>
<stop offset="1" stop-color="#46FFBC"/>
</linearGradient>
<linearGradient id="paint1_linear_3078_7124" x1="1126.42" y1="556.319" x2="730.932" y2="83.0418" gradientUnits="userSpaceOnUse">
<stop stop-color="#2E43FF" stop-opacity="0.66"/>
<stop offset="1" stop-color="#46FFBC"/>
</linearGradient>
<linearGradient id="paint2_linear_3078_7124" x1="1103.14" y1="570.468" x2="736.262" y2="81.5335" gradientUnits="userSpaceOnUse">
<stop stop-color="#2E43FF" stop-opacity="0.66"/>
<stop offset="1" stop-color="#46FFBC"/>
</linearGradient>
<linearGradient id="paint3_linear_3078_7124" x1="1079.6" y1="583.804" x2="741.876" y2="80.8983" gradientUnits="userSpaceOnUse">
<stop stop-color="#2E43FF" stop-opacity="0.66"/>
<stop offset="1" stop-color="#46FFBC"/>
</linearGradient>
<linearGradient id="paint4_linear_3078_7124" x1="1055.85" y1="596.322" x2="747.721" y2="81.1434" gradientUnits="userSpaceOnUse">
<stop stop-color="#2E43FF" stop-opacity="0.66"/>
<stop offset="1" stop-color="#46FFBC"/>
</linearGradient>
<linearGradient id="paint5_linear_3078_7124" x1="1031.92" y1="608.017" x2="753.749" y2="82.2726" gradientUnits="userSpaceOnUse">
<stop stop-color="#2E43FF" stop-opacity="0.66"/>
<stop offset="1" stop-color="#46FFBC"/>
</linearGradient>
<linearGradient id="paint6_linear_3078_7124" x1="1007.87" y1="618.888" x2="759.908" y2="84.2879" gradientUnits="userSpaceOnUse">
<stop stop-color="#2E43FF" stop-opacity="0.66"/>
<stop offset="1" stop-color="#46FFBC"/>
</linearGradient>
<linearGradient id="paint7_linear_3078_7124" x1="983.75" y1="628.936" x2="766.149" y2="87.1875" gradientUnits="userSpaceOnUse">
<stop stop-color="#2E43FF" stop-opacity="0.66"/>
<stop offset="1" stop-color="#46FFBC"/>
</linearGradient>
<linearGradient id="paint8_linear_3078_7124" x1="959.595" y1="638.165" x2="772.423" y2="90.9674" gradientUnits="userSpaceOnUse">
<stop stop-color="#2E43FF" stop-opacity="0.66"/>
<stop offset="1" stop-color="#46FFBC"/>
</linearGradient>
<linearGradient id="paint9_linear_3078_7124" x1="935.455" y1="646.582" x2="778.681" y2="95.6206" gradientUnits="userSpaceOnUse">
<stop stop-color="#2E43FF" stop-opacity="0.66"/>
<stop offset="1" stop-color="#46FFBC"/>
</linearGradient>
<linearGradient id="paint10_linear_3078_7124" x1="911.375" y1="654.195" x2="784.875" y2="101.138" gradientUnits="userSpaceOnUse">
<stop stop-color="#2E43FF" stop-opacity="0.66"/>
<stop offset="1" stop-color="#46FFBC"/>
</linearGradient>
<linearGradient id="paint11_linear_3078_7124" x1="887.397" y1="661.016" x2="790.958" y2="107.507" gradientUnits="userSpaceOnUse">
<stop stop-color="#2E43FF" stop-opacity="0.66"/>
<stop offset="1" stop-color="#46FFBC"/>
</linearGradient>
<linearGradient id="paint12_linear_3078_7124" x1="863.565" y1="667.058" x2="796.885" y2="114.713" gradientUnits="userSpaceOnUse">
<stop stop-color="#2E43FF" stop-opacity="0.66"/>
<stop offset="1" stop-color="#46FFBC"/>
</linearGradient>
<linearGradient id="paint13_linear_3078_7124" x1="839.92" y1="672.337" x2="802.611" y2="122.739" gradientUnits="userSpaceOnUse">
<stop stop-color="#2E43FF" stop-opacity="0.66"/>
<stop offset="1" stop-color="#46FFBC"/>
</linearGradient>
<linearGradient id="paint14_linear_3078_7124" x1="816.502" y1="676.872" x2="808.093" y2="131.566" gradientUnits="userSpaceOnUse">
<stop stop-color="#2E43FF" stop-opacity="0.66"/>
<stop offset="1" stop-color="#46FFBC"/>
</linearGradient>
<linearGradient id="paint15_linear_3078_7124" x1="793.35" y1="680.682" x2="813.288" y2="141.172" gradientUnits="userSpaceOnUse">
<stop stop-color="#2E43FF" stop-opacity="0.66"/>
<stop offset="1" stop-color="#46FFBC"/>
</linearGradient>
<linearGradient id="paint16_linear_3078_7124" x1="770.501" y1="683.79" x2="818.158" y2="151.532" gradientUnits="userSpaceOnUse">
<stop stop-color="#2E43FF" stop-opacity="0.66"/>
<stop offset="1" stop-color="#46FFBC"/>
</linearGradient>
<linearGradient id="paint17_linear_3078_7124" x1="747.992" y1="686.219" x2="822.664" y2="162.622" gradientUnits="userSpaceOnUse">
<stop stop-color="#2E43FF" stop-opacity="0.66"/>
<stop offset="1" stop-color="#46FFBC"/>
</linearGradient>
<linearGradient id="paint18_linear_3078_7124" x1="725.855" y1="687.995" x2="826.769" y2="174.414" gradientUnits="userSpaceOnUse">
<stop stop-color="#2E43FF" stop-opacity="0.66"/>
<stop offset="1" stop-color="#46FFBC"/>
</linearGradient>
<linearGradient id="paint19_linear_3078_7124" x1="704.123" y1="689.148" x2="830.438" y2="186.877" gradientUnits="userSpaceOnUse">
<stop stop-color="#2E43FF" stop-opacity="0.66"/>
<stop offset="1" stop-color="#46FFBC"/>
</linearGradient>
<linearGradient id="paint20_linear_3078_7124" x1="682.826" y1="689.703" x2="833.639" y2="199.981" gradientUnits="userSpaceOnUse">
<stop stop-color="#2E43FF" stop-opacity="0.66"/>
<stop offset="1" stop-color="#46FFBC"/>
</linearGradient>
<linearGradient id="paint21_linear_3078_7124" x1="661.994" y1="689.694" x2="836.341" y2="213.693" gradientUnits="userSpaceOnUse">
<stop stop-color="#2E43FF" stop-opacity="0.66"/>
<stop offset="1" stop-color="#46FFBC"/>
</linearGradient>
<linearGradient id="paint22_linear_3078_7124" x1="641.652" y1="689.151" x2="838.516" y2="227.978" gradientUnits="userSpaceOnUse">
<stop stop-color="#2E43FF" stop-opacity="0.66"/>
<stop offset="1" stop-color="#46FFBC"/>
</linearGradient>
<linearGradient id="paint23_linear_3078_7124" x1="621.825" y1="688.107" x2="840.138" y2="242.801" gradientUnits="userSpaceOnUse">
<stop stop-color="#2E43FF" stop-opacity="0.66"/>
<stop offset="1" stop-color="#46FFBC"/>
</linearGradient>
<linearGradient id="paint24_linear_3078_7124" x1="602.535" y1="686.598" x2="841.181" y2="258.125" gradientUnits="userSpaceOnUse">
<stop stop-color="#2E43FF" stop-opacity="0.66"/>
<stop offset="1" stop-color="#46FFBC"/>
</linearGradient>
<linearGradient id="paint25_linear_3078_7124" x1="583.803" y1="684.657" x2="841.627" y2="273.913" gradientUnits="userSpaceOnUse">
<stop stop-color="#2E43FF" stop-opacity="0.66"/>
<stop offset="1" stop-color="#46FFBC"/>
</linearGradient>
<linearGradient id="paint26_linear_3078_7124" x1="565.645" y1="682.321" x2="841.453" y2="290.126" gradientUnits="userSpaceOnUse">
<stop stop-color="#2E43FF" stop-opacity="0.66"/>
<stop offset="1" stop-color="#46FFBC"/>
</linearGradient>
<linearGradient id="paint27_linear_3078_7124" x1="548.079" y1="679.626" x2="840.645" y2="306.724" gradientUnits="userSpaceOnUse">
<stop stop-color="#2E43FF" stop-opacity="0.66"/>
<stop offset="1" stop-color="#46FFBC"/>
</linearGradient>
<linearGradient id="paint28_linear_3078_7124" x1="531.117" y1="676.609" x2="839.186" y2="323.668" gradientUnits="userSpaceOnUse">
<stop stop-color="#2E43FF" stop-opacity="0.66"/>
<stop offset="1" stop-color="#46FFBC"/>
</linearGradient>
<linearGradient id="paint29_linear_3078_7124" x1="514.771" y1="673.309" x2="837.066" y2="340.917" gradientUnits="userSpaceOnUse">
<stop stop-color="#2E43FF" stop-opacity="0.66"/>
<stop offset="1" stop-color="#46FFBC"/>
</linearGradient>
<linearGradient id="paint30_linear_3078_7124" x1="499.049" y1="669.762" x2="834.274" y2="358.431" gradientUnits="userSpaceOnUse">
<stop stop-color="#2E43FF" stop-opacity="0.66"/>
<stop offset="1" stop-color="#46FFBC"/>
</linearGradient>
<linearGradient id="paint31_linear_3078_7124" x1="483.958" y1="666.007" x2="830.804" y2="376.169" gradientUnits="userSpaceOnUse">
<stop stop-color="#2E43FF" stop-opacity="0.66"/>
<stop offset="1" stop-color="#46FFBC"/>
</linearGradient>
<linearGradient id="paint32_linear_3078_7124" x1="469.504" y1="662.082" x2="826.65" y2="394.09" gradientUnits="userSpaceOnUse">
<stop stop-color="#2E43FF" stop-opacity="0.66"/>
<stop offset="1" stop-color="#46FFBC"/>
</linearGradient>
<linearGradient id="paint33_linear_3078_7124" x1="455.688" y1="658.025" x2="821.811" y2="412.153" gradientUnits="userSpaceOnUse">
<stop stop-color="#2E43FF" stop-opacity="0.66"/>
<stop offset="1" stop-color="#46FFBC"/>
</linearGradient>
<linearGradient id="paint34_linear_3078_7124" x1="442.509" y1="653.873" x2="816.285" y2="430.319" gradientUnits="userSpaceOnUse">
<stop stop-color="#2E43FF" stop-opacity="0.66"/>
<stop offset="1" stop-color="#46FFBC"/>
</linearGradient>
<linearGradient id="paint35_linear_3078_7124" x1="429.967" y1="649.663" x2="810.075" y2="448.546" gradientUnits="userSpaceOnUse">
<stop stop-color="#2E43FF" stop-opacity="0.66"/>
<stop offset="1" stop-color="#46FFBC"/>
</linearGradient>
<linearGradient id="paint36_linear_3078_7124" x1="418.056" y1="645.432" x2="803.187" y2="466.795" gradientUnits="userSpaceOnUse">
<stop stop-color="#2E43FF" stop-opacity="0.66"/>
<stop offset="1" stop-color="#46FFBC"/>
</linearGradient>
<linearGradient id="paint37_linear_3078_7124" x1="406.77" y1="641.217" x2="795.626" y2="485.028" gradientUnits="userSpaceOnUse">
<stop stop-color="#2E43FF" stop-opacity="0.66"/>
<stop offset="1" stop-color="#46FFBC"/>
</linearGradient>
<linearGradient id="paint38_linear_3078_7124" x1="396.102" y1="637.052" x2="787.402" y2="503.206" gradientUnits="userSpaceOnUse">
<stop stop-color="#2E43FF" stop-opacity="0.66"/>
<stop offset="1" stop-color="#46FFBC"/>
</linearGradient>
<linearGradient id="paint39_linear_3078_7124" x1="386.04" y1="632.973" x2="778.527" y2="521.292" gradientUnits="userSpaceOnUse">
<stop stop-color="#2E43FF" stop-opacity="0.66"/>
<stop offset="1" stop-color="#46FFBC"/>
</linearGradient>
<linearGradient id="paint40_linear_3078_7124" x1="376.572" y1="629.013" x2="769.012" y2="539.251" gradientUnits="userSpaceOnUse">
<stop stop-color="#2E43FF" stop-opacity="0.66"/>
<stop offset="1" stop-color="#46FFBC"/>
</linearGradient>
<linearGradient id="paint41_linear_3078_7124" x1="367.684" y1="625.204" x2="758.874" y2="557.047" gradientUnits="userSpaceOnUse">
<stop stop-color="#2E43FF" stop-opacity="0.66"/>
<stop offset="1" stop-color="#46FFBC"/>
</linearGradient>
<linearGradient id="paint42_linear_3078_7124" x1="359.361" y1="621.579" x2="748.129" y2="574.646" gradientUnits="userSpaceOnUse">
<stop stop-color="#2E43FF" stop-opacity="0.66"/>
<stop offset="1" stop-color="#46FFBC"/>
</linearGradient>
<linearGradient id="paint43_linear_3078_7124" x1="351.584" y1="618.166" x2="736.796" y2="592.016" gradientUnits="userSpaceOnUse">
<stop stop-color="#2E43FF" stop-opacity="0.66"/>
<stop offset="1" stop-color="#46FFBC"/>
</linearGradient>
<linearGradient id="paint44_linear_3078_7124" x1="344.335" y1="614.995" x2="724.896" y2="609.126" gradientUnits="userSpaceOnUse">
<stop stop-color="#2E43FF" stop-opacity="0.66"/>
<stop offset="1" stop-color="#46FFBC"/>
</linearGradient>
<linearGradient id="paint45_linear_3078_7124" x1="337.593" y1="612.093" x2="712.451" y2="625.947" gradientUnits="userSpaceOnUse">
<stop stop-color="#2E43FF" stop-opacity="0.66"/>
<stop offset="1" stop-color="#46FFBC"/>
</linearGradient>
<linearGradient id="paint46_linear_3078_7124" x1="331.336" y1="609.487" x2="699.485" y2="642.45" gradientUnits="userSpaceOnUse">
<stop stop-color="#2E43FF" stop-opacity="0.66"/>
<stop offset="1" stop-color="#46FFBC"/>
</linearGradient>
<linearGradient id="paint47_linear_3078_7124" x1="325.541" y1="607.2" x2="686.023" y2="658.61" gradientUnits="userSpaceOnUse">
<stop stop-color="#2E43FF" stop-opacity="0.66"/>
<stop offset="1" stop-color="#46FFBC"/>
</linearGradient>
<linearGradient id="paint48_linear_3078_7124" x1="320.182" y1="605.255" x2="672.09" y2="674.402" gradientUnits="userSpaceOnUse">
<stop stop-color="#2E43FF" stop-opacity="0.66"/>
<stop offset="1" stop-color="#46FFBC"/>
</linearGradient>
<linearGradient id="paint49_linear_3078_7124" x1="315.235" y1="603.674" x2="657.716" y2="689.804" gradientUnits="userSpaceOnUse">
<stop stop-color="#2E43FF" stop-opacity="0.66"/>
<stop offset="1" stop-color="#46FFBC"/>
</linearGradient>
<linearGradient id="paint50_linear_3078_7124" x1="310.673" y1="602.474" x2="642.928" y2="704.794" gradientUnits="userSpaceOnUse">
<stop stop-color="#2E43FF" stop-opacity="0.66"/>
<stop offset="1" stop-color="#46FFBC"/>
</linearGradient>
<linearGradient id="paint51_linear_3078_7124" x1="306.468" y1="601.675" x2="627.756" y2="719.355" gradientUnits="userSpaceOnUse">
<stop stop-color="#2E43FF" stop-opacity="0.66"/>
<stop offset="1" stop-color="#46FFBC"/>
</linearGradient>
<linearGradient id="paint52_linear_3078_7124" x1="302.592" y1="601.292" x2="612.229" y2="733.469" gradientUnits="userSpaceOnUse">
<stop stop-color="#2E43FF" stop-opacity="0.66"/>
<stop offset="1" stop-color="#46FFBC"/>
</linearGradient>
<linearGradient id="paint53_linear_3078_7124" x1="299.017" y1="601.337" x2="596.381" y2="747.121" gradientUnits="userSpaceOnUse">
<stop stop-color="#2E43FF" stop-opacity="0.66"/>
<stop offset="1" stop-color="#46FFBC"/>
</linearGradient>
<linearGradient id="paint54_linear_3078_7124" x1="295.712" y1="601.825" x2="580.241" y2="760.298" gradientUnits="userSpaceOnUse">
<stop stop-color="#2E43FF" stop-opacity="0.66"/>
<stop offset="1" stop-color="#46FFBC"/>
</linearGradient>
<linearGradient id="paint55_linear_3078_7124" x1="292.648" y1="602.763" x2="563.841" y2="772.991" gradientUnits="userSpaceOnUse">
<stop stop-color="#2E43FF" stop-opacity="0.66"/>
<stop offset="1" stop-color="#46FFBC"/>
</linearGradient>
<linearGradient id="paint56_linear_3078_7124" x1="289.796" y1="604.161" x2="547.216" y2="785.189" gradientUnits="userSpaceOnUse">
<stop stop-color="#2E43FF" stop-opacity="0.66"/>
<stop offset="1" stop-color="#46FFBC"/>
</linearGradient>
<linearGradient id="paint57_linear_3078_7124" x1="287.124" y1="606.025" x2="530.396" y2="796.887" gradientUnits="userSpaceOnUse">
<stop stop-color="#2E43FF" stop-opacity="0.66"/>
<stop offset="1" stop-color="#46FFBC"/>
</linearGradient>
<linearGradient id="paint58_linear_3078_7124" x1="284.602" y1="608.359" x2="513.414" y2="808.08" gradientUnits="userSpaceOnUse">
<stop stop-color="#2E43FF" stop-opacity="0.66"/>
<stop offset="1" stop-color="#46FFBC"/>
</linearGradient>
<linearGradient id="paint59_linear_3078_7124" x1="282.2" y1="611.165" x2="496.303" y2="818.764" gradientUnits="userSpaceOnUse">
<stop stop-color="#2E43FF" stop-opacity="0.66"/>
<stop offset="1" stop-color="#46FFBC"/>
</linearGradient>
<linearGradient id="paint60_linear_3078_7124" x1="279.889" y1="614.445" x2="479.096" y2="828.94" gradientUnits="userSpaceOnUse">
<stop stop-color="#2E43FF" stop-opacity="0.66"/>
<stop offset="1" stop-color="#46FFBC"/>
</linearGradient>
<linearGradient id="paint61_linear_3078_7124" x1="277.637" y1="618.196" x2="461.824" y2="838.609" gradientUnits="userSpaceOnUse">
<stop stop-color="#2E43FF" stop-opacity="0.66"/>
<stop offset="1" stop-color="#46FFBC"/>
</linearGradient>
<linearGradient id="paint62_linear_3078_7124" x1="275.416" y1="622.416" x2="444.518" y2="847.774" gradientUnits="userSpaceOnUse">
<stop stop-color="#2E43FF" stop-opacity="0.66"/>
<stop offset="1" stop-color="#46FFBC"/>
</linearGradient>
<linearGradient id="paint63_linear_3078_7124" x1="273.197" y1="627.1" x2="427.211" y2="856.44" gradientUnits="userSpaceOnUse">
<stop stop-color="#2E43FF" stop-opacity="0.66"/>
<stop offset="1" stop-color="#46FFBC"/>
</linearGradient>
<linearGradient id="paint64_linear_3078_7124" x1="270.952" y1="632.242" x2="409.933" y2="864.614" gradientUnits="userSpaceOnUse">
<stop stop-color="#2E43FF" stop-opacity="0.66"/>
<stop offset="1" stop-color="#46FFBC"/>
</linearGradient>
<linearGradient id="paint65_linear_3078_7124" x1="268.652" y1="637.832" x2="392.713" y2="872.306" gradientUnits="userSpaceOnUse">
<stop stop-color="#2E43FF" stop-opacity="0.66"/>
<stop offset="1" stop-color="#46FFBC"/>
</linearGradient>
<linearGradient id="paint66_linear_3078_7124" x1="266.271" y1="643.862" x2="375.579" y2="879.525" gradientUnits="userSpaceOnUse">
<stop stop-color="#2E43FF" stop-opacity="0.66"/>
<stop offset="1" stop-color="#46FFBC"/>
</linearGradient>
<linearGradient id="paint67_linear_3078_7124" x1="263.784" y1="650.32" x2="358.562" y2="886.284" gradientUnits="userSpaceOnUse">
<stop stop-color="#2E43FF" stop-opacity="0.66"/>
<stop offset="1" stop-color="#46FFBC"/>
</linearGradient>
<linearGradient id="paint68_linear_3078_7124" x1="261.164" y1="657.193" x2="341.685" y2="892.597" gradientUnits="userSpaceOnUse">
<stop stop-color="#2E43FF" stop-opacity="0.66"/>
<stop offset="1" stop-color="#46FFBC"/>
</linearGradient>
</defs>
</svg>
