<svg width="390" height="528" viewBox="0 0 390 528" fill="none" xmlns="http://www.w3.org/2000/svg">
<mask id="mask0_3345_4801" style="mask-type:alpha" maskUnits="userSpaceOnUse" x="-183" y="-134" width="833" height="662">
<rect x="-183" y="149.278" width="730.273" height="410.778" transform="rotate(-22.8244 -183 149.278)" fill="url(#paint0_linear_3345_4801)"/>
</mask>
<g mask="url(#mask0_3345_4801)">
<path opacity="0.0144928" d="M483.265 184.709L463.971 98.9025C463.646 97.4561 462.763 96.1966 461.514 95.3978L355.817 27.7981C354.835 27.1699 353.682 26.8624 352.517 26.9182L242.625 32.1834C240.513 32.2845 238.636 33.5611 237.767 35.4879L206.175 105.482C205.305 107.408 205.589 109.66 206.91 111.311L275.658 197.205C276.386 198.116 277.38 198.777 278.501 199.098L399.116 233.644C400.541 234.053 402.07 233.882 403.37 233.169L480.482 190.875C482.68 189.67 483.815 187.155 483.265 184.709Z" stroke="url(#paint1_linear_3345_4801)" stroke-width="1.25"/>
<path opacity="0.0289855" d="M475.715 196.15L461.182 110.046C460.935 108.582 460.119 107.275 458.912 106.41L357.867 33.992C356.917 33.3108 355.777 32.9428 354.608 32.9391L245.533 32.5972C243.422 32.5906 241.485 33.7668 240.517 35.643L205.514 103.484C204.545 105.36 204.71 107.62 205.938 109.337L269.426 198.031C270.107 198.982 271.067 199.697 272.173 200.077L389.748 240.459C391.152 240.941 392.69 240.849 394.026 240.202L472.62 202.149C474.871 201.059 476.132 198.615 475.715 196.15Z" stroke="url(#paint2_linear_3345_4801)" stroke-width="1.25"/>
<path opacity="0.0434783" d="M467.867 207.289L458.071 121.15C457.903 119.672 457.157 118.322 455.996 117.393L359.814 40.4562C358.898 39.7235 357.776 39.2955 356.605 39.232L248.631 33.3826C246.526 33.2686 244.534 34.3415 243.47 36.1621L205.193 101.686C204.13 103.506 204.174 105.769 205.307 107.547L263.433 198.727C264.063 199.716 264.987 200.484 266.075 200.922L380.332 246.916C381.711 247.472 383.254 247.458 384.624 246.879L464.469 213.105C466.765 212.134 468.148 209.766 467.867 207.289Z" stroke="url(#paint3_linear_3345_4801)" stroke-width="1.25"/>
<path opacity="0.057971" d="M459.736 218.114L454.641 132.198C454.553 130.711 453.879 129.32 452.767 128.33L361.643 47.1837C360.764 46.4012 359.662 45.914 358.492 45.7905L251.895 34.5474C249.801 34.3265 247.759 35.2937 246.603 37.0537L205.198 100.105C204.043 101.865 203.967 104.123 205.001 105.957L257.68 199.307C258.259 200.332 259.144 201.15 260.211 201.645L370.887 253.017C372.238 253.644 373.782 253.71 375.181 253.2L456.047 223.732C458.383 222.881 459.883 220.596 459.736 218.114Z" stroke="url(#paint4_linear_3345_4801)" stroke-width="1.25"/>
<path opacity="0.0724638" d="M451.345 228.613L450.9 143.173C450.892 141.682 450.293 140.255 449.233 139.205L363.34 54.1665C362.502 53.3361 361.423 52.7905 360.257 52.6071L255.302 36.0973C253.225 35.7706 251.139 36.6297 249.894 38.3245L205.515 98.7567C204.271 100.452 204.075 102.699 205.009 104.583L252.175 199.785C252.699 200.843 253.542 201.709 254.586 202.261L361.434 258.763C362.753 259.46 364.294 259.606 365.719 259.167L447.375 234.018C449.745 233.288 451.358 231.093 451.345 228.613Z" stroke="url(#paint5_linear_3345_4801)" stroke-width="1.25"/>
<path opacity="0.0869565" d="M442.713 238.774L446.854 154.06C446.927 152.568 446.404 151.109 445.399 150.003L364.894 61.3948C364.098 60.5184 363.045 59.9156 361.886 59.6723L258.83 38.036C256.775 37.6046 254.651 38.3537 253.321 39.9788L206.128 97.6545C204.798 99.2796 204.484 101.51 205.314 103.439L246.919 200.174C247.387 201.262 248.186 202.174 249.203 202.781L351.993 264.156C353.275 264.921 354.81 265.146 356.258 264.779L438.476 243.952C440.873 243.345 442.592 241.244 442.713 238.774Z" stroke="url(#paint6_linear_3345_4801)" stroke-width="1.25"/>
<path opacity="0.101449" d="M433.86 248.588L442.51 164.844C442.663 163.356 442.218 161.868 441.272 160.709L366.29 68.8599C365.539 67.9397 364.515 67.281 363.367 66.9781L262.456 40.3677C260.429 39.833 258.272 40.4705 256.861 42.0216L207.019 96.813C205.608 98.3641 205.176 100.571 205.9 102.539L241.916 200.488C242.326 201.603 243.078 202.559 244.065 203.22L342.581 269.199C343.825 270.031 345.348 270.334 346.815 270.041L429.368 253.526C431.786 253.042 433.607 251.04 433.86 248.588Z" stroke="url(#paint7_linear_3345_4801)" stroke-width="1.25"/>
<path opacity="0.115942" d="M424.81 258.046L437.877 175.51C438.111 174.03 437.745 172.518 436.86 171.309L367.518 76.5517C366.814 75.5899 365.823 74.8766 364.688 74.5145L266.159 43.094C264.164 42.4579 261.981 42.9824 260.493 44.4555L208.173 96.2444C206.685 97.7174 206.138 99.895 206.754 101.896L237.168 200.741C237.518 201.88 238.222 202.878 239.176 203.592L333.221 273.897C334.421 274.794 335.93 275.175 337.412 274.956L420.077 262.731C422.509 262.371 424.425 260.474 424.81 258.046Z" stroke="url(#paint8_linear_3345_4801)" stroke-width="1.25"/>
<path opacity="0.130435" d="M415.581 267.14L432.963 186.043C433.278 184.576 432.993 183.043 432.172 181.787L368.566 84.4588C367.912 83.4578 366.956 82.6914 365.837 82.2707L269.914 46.2152C267.957 45.4796 265.753 45.8902 264.192 47.2812L209.572 95.9596C208.011 97.3507 207.35 99.4927 207.857 101.521L232.675 200.946C232.965 202.106 233.617 203.144 234.536 203.908L323.929 278.255C325.083 279.214 326.573 279.673 328.066 279.529L410.622 271.56C413.061 271.325 415.068 269.537 415.581 267.14Z" stroke="url(#paint9_linear_3345_4801)" stroke-width="1.25"/>
<path opacity="0.144928" d="M406.198 275.865L427.78 196.431C428.174 194.98 427.971 193.432 427.216 192.132L369.425 92.5707C368.822 91.5331 367.904 90.7152 366.804 90.2365L273.699 49.7313C271.785 48.8985 269.567 49.1943 267.938 50.4999L211.198 95.9698C209.569 97.2753 208.797 99.3757 209.193 101.426L228.44 201.118C228.667 202.296 229.265 203.371 230.147 204.185L314.725 282.28C315.829 283.3 317.296 283.835 318.798 283.766L401.026 280.01C403.467 279.898 405.557 278.223 406.198 275.865Z" stroke="url(#paint10_linear_3345_4801)" stroke-width="1.25"/>
<path opacity="0.15942" d="M396.68 284.216L422.336 206.659C422.808 205.23 422.688 203.67 422.003 202.33L370.082 100.875C369.534 99.8033 368.656 98.9358 367.578 98.4001L277.493 53.6397C275.626 52.7122 273.4 52.893 271.707 54.1096L213.033 96.2836C211.34 97.5002 210.459 99.5531 210.743 101.618L224.46 201.271C224.624 202.463 225.167 203.572 226.008 204.433L305.626 285.98C306.677 287.057 308.117 287.668 309.623 287.675L391.312 288.075C393.748 288.087 395.915 286.529 396.68 284.216Z" stroke="url(#paint11_linear_3345_4801)" stroke-width="1.25"/>
<path opacity="0.173913" d="M387.051 292.19L416.642 216.717C417.193 215.313 417.156 213.747 416.541 212.37L370.531 109.36C370.038 108.257 369.203 107.342 368.15 106.75L281.273 57.9381C279.459 56.9187 277.23 56.9844 275.478 58.109L215.058 96.91C213.307 98.0347 212.319 100.034 212.492 102.108L220.736 201.417C220.836 202.621 221.32 203.761 222.119 204.668L296.649 289.363C297.645 290.495 299.054 291.18 300.56 291.263L381.502 295.753C383.927 295.888 386.164 294.451 387.051 292.19Z" stroke="url(#paint12_linear_3345_4801)" stroke-width="1.25"/>
<path opacity="0.188406" d="M377.331 299.783L410.711 226.592C411.338 225.217 411.385 223.649 410.843 222.239L370.762 118.013C370.326 116.881 369.537 115.92 368.512 115.274L285.018 62.6209C283.26 61.5125 281.035 61.4634 279.23 62.4932L217.254 97.8548C215.449 98.8846 214.359 100.826 214.419 102.903L217.265 201.571C217.3 202.783 217.725 203.951 218.478 204.901L287.811 292.438C288.749 293.622 290.123 294.379 291.625 294.539L371.618 303.042C374.025 303.298 376.326 301.985 377.331 299.783Z" stroke="url(#paint13_linear_3345_4801)" stroke-width="1.25"/>
<path opacity="0.202899" d="M367.544 306.994L404.555 236.273C405.257 234.932 405.388 233.365 404.921 231.926L370.768 126.819C370.392 125.662 369.651 124.658 368.656 123.958L288.707 67.6829C287.011 66.4888 284.795 66.3254 282.941 67.2578L219.603 99.1244C217.75 100.057 216.561 101.934 216.508 104.008L214.046 201.745C214.015 202.961 214.38 204.155 215.085 205.146L279.129 295.215C280.006 296.448 281.342 297.276 282.837 297.511L361.684 309.943C364.067 310.318 366.425 309.132 367.544 306.994Z" stroke="url(#paint14_linear_3345_4801)" stroke-width="1.25"/>
<path opacity="0.217391" d="M357.709 313.826L398.185 245.751C398.96 244.448 399.176 242.888 398.784 241.424L370.541 135.768C370.226 134.588 369.535 133.543 368.574 132.791L292.318 73.1184C290.687 71.842 288.487 71.5653 286.59 72.398L222.085 100.725C220.188 101.557 218.903 103.365 218.739 105.43L211.075 201.954C210.978 203.171 211.28 204.387 211.935 205.417L270.617 297.706C271.43 298.985 272.725 299.882 274.208 300.193L351.719 316.456C354.073 316.95 356.48 315.893 357.709 313.826Z" stroke="url(#paint15_linear_3345_4801)" stroke-width="1.25"/>
<path opacity="0.231884" d="M347.85 320.277L391.615 255.016C392.461 253.755 392.761 252.206 392.447 250.721L370.077 144.844C369.823 143.644 369.185 142.561 368.259 141.758L295.833 78.9186C294.271 77.5635 292.091 77.1745 290.157 77.9057L224.68 102.658C222.746 103.389 221.369 105.122 221.094 107.172L208.348 202.208C208.185 203.423 208.424 204.658 209.027 205.725L262.29 299.923C263.037 301.245 264.287 302.208 265.756 302.594L341.747 322.584C344.065 323.194 346.515 322.268 347.85 320.277Z" stroke="url(#paint16_linear_3345_4801)" stroke-width="1.25"/>
<path opacity="0.246377" d="M337.987 326.352L384.859 264.061C385.773 262.846 386.156 261.312 385.921 259.809L369.368 154.034C369.178 152.818 368.595 151.699 367.708 150.847L299.23 85.0755C297.741 83.6456 295.589 83.146 293.623 83.7738L227.369 104.928C225.403 105.556 223.939 107.21 223.554 109.238L205.862 202.523C205.633 203.731 205.806 204.982 206.355 206.083L254.163 301.879C254.842 303.24 256.043 304.268 257.493 304.728L331.789 328.331C334.066 329.054 336.551 328.261 337.987 326.352Z" stroke="url(#paint17_linear_3345_4801)" stroke-width="1.25"/>
<path opacity="0.26087" d="M328.141 332.053L377.928 272.876C378.909 271.71 379.375 270.197 379.22 268.681L368.412 163.322C368.286 162.094 367.759 160.941 366.913 160.042L302.492 91.5775C301.08 90.0768 298.96 89.4684 296.967 89.9915L230.134 107.535C228.14 108.058 226.593 109.629 226.1 111.63L203.61 202.907C203.315 204.106 203.422 205.369 203.916 206.501L246.247 303.585C246.856 304.982 248.006 306.072 249.433 306.605L321.866 333.7C324.095 334.534 326.608 333.875 328.141 332.053Z" stroke="url(#paint18_linear_3345_4801)" stroke-width="1.25"/>
<path opacity="0.275362" d="M318.332 337.386L370.839 281.456C371.884 280.344 372.431 278.854 372.356 277.33L367.204 172.697C367.143 171.459 366.674 170.275 365.871 169.331L305.6 98.4153C304.268 96.848 302.187 96.1328 300.172 96.5502L232.953 110.48C230.939 110.898 229.314 112.381 228.714 114.349L201.588 203.376C201.227 204.562 201.267 205.834 201.703 206.994L238.556 305.058C239.093 306.486 240.188 307.635 241.588 308.241L311.998 338.699C314.175 339.641 316.709 339.116 318.332 337.386Z" stroke="url(#paint19_linear_3345_4801)" stroke-width="1.25"/>
<path opacity="0.289855" d="M308.58 342.358L363.604 289.795C364.71 288.739 365.338 287.278 365.343 285.749L365.74 182.142C365.745 180.898 365.337 179.687 364.58 178.699L308.537 105.577C307.288 103.947 305.25 103.128 303.22 103.438L235.81 113.763C233.78 114.074 232.081 115.466 231.377 117.395L199.789 203.939C199.362 205.108 199.335 206.385 199.712 207.572L231.1 306.31C231.564 307.767 232.6 308.973 233.971 309.65L302.205 343.334C304.324 344.381 306.871 343.99 308.58 342.358Z" stroke="url(#paint20_linear_3345_4801)" stroke-width="1.25"/>
<path opacity="0.304348" d="M298.905 346.973L356.238 297.886C357.402 296.89 358.108 295.462 358.196 293.933L364.02 191.643C364.091 190.395 363.744 189.16 363.035 188.131L311.285 113.048C310.122 111.361 308.133 110.439 306.094 110.643L238.683 117.381C236.644 117.585 234.877 118.881 234.071 120.766L198.205 204.606C197.714 205.755 197.619 207.035 197.935 208.243L223.89 307.357C224.279 308.839 225.254 310.098 226.592 310.844L292.506 347.612C294.563 348.76 297.116 348.504 298.905 346.973Z" stroke="url(#paint21_linear_3345_4801)" stroke-width="1.25"/>
<path opacity="0.318841" d="M289.326 351.241L348.757 305.726C349.975 304.793 350.759 303.403 350.928 301.878L362.043 201.186C362.18 199.939 361.897 198.682 361.238 197.614L313.831 120.816C312.757 119.076 310.822 118.056 308.779 118.152L241.557 121.332C239.514 121.428 237.684 122.627 236.779 124.461L196.832 205.39C196.277 206.515 196.114 207.793 196.368 209.022L216.937 308.215C217.249 309.718 218.161 311.028 219.462 311.841L282.923 351.544C284.912 352.788 287.464 352.668 289.326 351.241Z" stroke="url(#paint22_linear_3345_4801)" stroke-width="1.25"/>
<path opacity="0.333333" d="M279.86 355.172L341.173 313.313C342.442 312.446 343.302 311.097 343.551 309.58L359.806 210.757C360.01 209.514 359.791 208.238 359.184 207.134L316.159 128.868C315.175 127.079 313.3 125.964 311.258 125.953L244.411 125.612C242.369 125.602 240.483 126.699 239.481 128.477L195.659 206.3C195.041 207.398 194.809 208.672 195.001 209.917L210.247 308.9C210.481 310.42 211.327 311.777 212.587 312.657L273.47 355.14C275.386 356.477 277.93 356.49 279.86 355.172Z" stroke="url(#paint23_linear_3345_4801)" stroke-width="1.25"/>
<path opacity="0.347826" d="M270.526 358.775L333.502 320.641C334.819 319.843 335.752 318.54 336.082 317.035L357.311 220.34C357.582 219.105 357.429 217.814 356.876 216.676L318.254 137.187C317.364 135.354 315.552 134.147 313.518 134.03L247.228 130.217C245.194 130.1 243.256 131.092 242.161 132.81L194.679 207.346C194 208.413 193.7 209.678 193.827 210.936L203.828 309.428C203.984 310.96 204.761 312.362 205.979 313.305L264.166 358.409C266.006 359.835 268.535 359.981 270.526 358.775Z" stroke="url(#paint24_linear_3345_4801)" stroke-width="1.25"/>
<path opacity="0.362319" d="M261.34 362.061L325.758 327.71C327.12 326.984 328.124 325.731 328.534 324.243L354.559 229.922C354.897 228.698 354.81 227.395 354.313 226.226L320.105 145.758C319.309 143.887 317.566 142.591 315.545 142.368L249.992 135.14C247.971 134.917 245.987 135.802 244.802 137.455L193.884 208.536C193.144 209.569 192.776 210.822 192.839 212.091L197.688 309.816C197.765 311.357 198.471 312.799 199.642 313.804L255.029 361.365C256.788 362.875 259.294 363.152 261.34 362.061Z" stroke="url(#paint25_linear_3345_4801)" stroke-width="1.25"/>
<path opacity="0.376812" d="M252.318 365.041L317.957 334.519C319.359 333.867 320.431 332.667 320.921 331.201L351.553 239.489C351.957 238.279 351.937 236.967 351.498 235.769L321.699 154.564C321 152.659 319.329 151.279 317.327 150.951L252.685 140.375C250.682 140.047 248.658 140.823 247.389 142.406L193.264 209.88C192.465 210.875 192.029 212.112 192.026 213.388L191.832 310.08C191.829 311.626 192.463 313.105 193.584 314.17L246.073 364.019C247.748 365.609 250.224 366.015 252.318 365.041Z" stroke="url(#paint26_linear_3345_4801)" stroke-width="1.25"/>
<path opacity="0.391304" d="M243.475 367.729L310.112 341.068C311.551 340.493 312.688 339.35 313.256 337.908L348.293 249.026C348.763 247.834 348.812 246.517 348.431 245.293L323.025 163.589C322.424 161.656 320.83 160.195 318.852 159.764L255.289 145.914C253.311 145.483 251.253 146.148 249.902 147.656L192.808 211.384C191.953 212.339 191.449 213.557 191.381 214.837L186.264 310.238C186.181 311.785 186.74 313.297 187.808 314.419L237.313 366.386C238.899 368.051 241.34 368.583 243.475 367.729Z" stroke="url(#paint27_linear_3345_4801)" stroke-width="1.25"/>
<path opacity="0.405797" d="M234.826 370.137L302.239 347.357C303.709 346.86 304.909 345.777 305.554 344.366L344.785 258.52C345.32 257.349 345.437 256.03 345.117 254.784L324.075 172.815C323.572 170.858 322.059 169.321 320.11 168.788L257.791 151.749C255.842 151.216 253.757 151.769 252.329 153.198L192.508 213.057C191.598 213.968 191.028 215.163 190.893 216.443L180.988 310.307C180.825 311.85 181.307 313.392 182.32 314.568L228.764 368.479C230.258 370.215 232.656 370.87 234.826 370.137Z" stroke="url(#paint28_linear_3345_4801)" stroke-width="1.25"/>
<path opacity="0.42029" d="M226.384 372.28L294.35 353.387C295.848 352.97 297.107 351.952 297.828 350.574L341.031 267.958C341.631 266.812 341.817 265.495 341.559 264.228L324.838 182.225C324.435 180.249 323.006 178.641 321.092 178.008L260.175 157.871C258.261 157.238 256.155 157.678 254.654 159.024L192.354 214.906C191.391 215.769 190.755 216.938 190.554 218.215L176.006 310.304C175.763 311.84 176.167 313.408 177.122 314.636L220.437 370.314C221.838 372.114 224.186 372.891 226.384 372.28Z" stroke="url(#paint29_linear_3345_4801)" stroke-width="1.25"/>
<path opacity="0.434783" d="M218.161 374.172L286.46 359.161C287.982 358.826 289.297 357.875 290.091 356.535L337.039 277.326C337.701 276.208 337.956 274.896 337.761 273.611L325.308 191.8C325.005 189.811 323.664 188.135 321.79 187.405L262.427 164.27C260.553 163.539 258.431 163.865 256.863 165.125L192.334 216.935C191.321 217.748 190.621 218.887 190.352 220.159L171.32 310.247C170.998 311.771 171.323 313.361 172.217 314.637L212.347 371.906C213.65 373.766 215.943 374.66 218.161 374.172Z" stroke="url(#paint30_linear_3345_4801)" stroke-width="1.25"/>
<path opacity="0.449275" d="M210.169 375.828L278.583 364.681C280.124 364.429 281.492 363.549 282.358 362.25L332.812 286.611C333.536 285.525 333.86 284.221 333.728 282.922L325.478 201.521C325.276 199.524 324.025 197.787 322.196 196.961L264.533 170.934C262.704 170.109 260.573 170.32 258.942 171.489L192.439 219.151C191.378 219.911 190.614 221.017 190.279 222.279L166.931 310.152C166.53 311.661 166.775 313.269 167.606 314.591L204.503 373.271C205.706 375.184 207.938 376.192 210.169 375.828Z" stroke="url(#paint31_linear_3345_4801)" stroke-width="1.25"/>
<path opacity="0.463768" d="M202.419 377.265L270.732 369.951C272.288 369.784 273.704 368.977 274.64 367.724L328.357 295.802C329.142 294.751 329.534 293.459 329.468 292.149L325.344 211.371C325.241 209.371 324.084 207.577 322.305 206.659L266.479 177.855C264.7 176.937 262.567 177.033 260.878 178.109L192.657 221.56C191.55 222.264 190.725 223.333 190.323 224.582L162.838 310.038C162.359 311.527 162.522 313.149 163.288 314.513L196.915 374.425C198.017 376.387 200.182 377.505 202.419 377.265Z" stroke="url(#paint32_linear_3345_4801)" stroke-width="1.25"/>
<path opacity="0.478261" d="M194.92 378.497L262.92 374.975C264.486 374.894 265.947 374.163 266.951 372.959L323.68 304.886C324.524 303.873 324.985 302.597 324.984 301.279L324.899 221.329C324.897 219.332 323.836 217.486 322.111 216.478L268.254 185.017C266.53 184.01 264.401 183.992 262.66 184.971L192.976 224.164C191.827 224.81 190.942 225.839 190.474 227.071L159.04 309.92C158.484 311.386 158.564 313.018 159.263 314.421L189.593 375.385C190.59 377.391 192.683 378.613 194.92 378.497Z" stroke="url(#paint33_linear_3345_4801)" stroke-width="1.25"/>
<path opacity="0.492754" d="M187.68 379.543L255.161 379.759C256.732 379.764 258.233 379.111 259.302 377.96L318.791 313.852C319.692 312.881 320.221 311.623 320.286 310.3L324.142 231.379C324.239 229.389 323.277 227.496 321.611 226.403L269.847 192.41C268.182 191.317 266.063 191.186 264.275 192.066L193.386 226.968C192.198 227.553 191.254 228.538 190.721 229.751L155.534 309.817C154.902 311.255 154.9 312.893 155.529 314.332L182.544 376.17C183.436 378.213 185.451 379.536 187.68 379.543Z" stroke="url(#paint34_linear_3345_4801)" stroke-width="1.25"/>
<path opacity="0.507246" d="M180.707 380.419L247.465 384.308C249.036 384.399 250.574 383.828 251.705 382.733L313.695 322.689C314.651 321.763 315.248 320.528 315.379 319.203L323.07 241.501C323.266 239.524 322.404 237.59 320.802 236.413L271.247 200.022C269.645 198.846 267.542 198.602 265.713 199.38L193.876 229.975C192.651 230.497 191.651 231.436 191.053 232.626L152.316 309.745C151.61 311.152 151.525 312.791 152.083 314.263L175.774 376.796C176.56 378.871 178.492 380.29 180.707 380.419Z" stroke="url(#paint35_linear_3345_4801)" stroke-width="1.25"/>
<path opacity="0.521739" d="M174.008 381.141L239.845 388.627C241.413 388.806 242.983 388.317 244.173 387.282L308.404 331.387C309.413 330.508 310.077 329.299 310.275 327.976L321.684 251.676C321.978 249.716 321.217 247.746 319.683 246.491L272.445 207.837C270.911 206.582 268.829 206.227 266.966 206.902L194.434 233.188C193.176 233.644 192.122 234.533 191.46 235.697L149.384 309.72C148.605 311.091 148.437 312.727 148.922 314.228L169.291 377.281C169.97 379.382 171.815 380.891 174.008 381.141Z" stroke="url(#paint36_linear_3345_4801)" stroke-width="1.25"/>
<path opacity="0.536232" d="M167.588 381.727L232.312 392.725C233.871 392.99 235.469 392.586 236.715 391.613L302.924 339.935C303.985 339.107 304.713 337.927 304.978 336.608L319.982 261.884C320.372 259.946 319.715 257.946 318.253 256.616L273.43 215.842C271.968 214.512 269.915 214.047 268.022 214.617L195.048 236.607C193.76 236.995 192.654 237.832 191.93 238.966L146.731 309.756C145.88 311.089 145.629 312.718 146.04 314.245L163.098 377.643C163.669 379.764 165.422 381.359 167.588 381.727Z" stroke="url(#paint37_linear_3345_4801)" stroke-width="1.25"/>
<path opacity="0.550725" d="M161.45 382.194L224.878 396.608C226.423 396.959 228.044 396.642 229.344 395.735L297.267 348.325C298.376 347.551 299.169 346.403 299.501 345.092L317.967 272.109C318.451 270.198 317.899 268.173 316.512 266.772L274.197 224.023C272.81 222.622 270.791 222.049 268.875 222.513L195.707 240.235C194.393 240.553 193.237 241.334 192.452 242.435L144.352 309.872C143.431 311.162 143.098 312.78 143.433 314.329L157.199 377.9C157.662 380.035 159.319 381.71 161.45 382.194Z" stroke="url(#paint38_linear_3345_4801)" stroke-width="1.25"/>
<path opacity="0.565217" d="M155.599 382.561L217.552 400.284C219.078 400.721 220.718 400.492 222.067 399.654L291.442 356.548C292.597 355.83 293.453 354.718 293.851 353.418L315.64 282.331C316.217 280.452 315.77 278.408 314.462 276.94L274.737 232.366C273.429 230.899 271.45 230.221 269.517 230.577L196.4 244.072C195.063 244.318 193.86 245.041 193.015 246.106L142.238 310.081C141.251 311.325 140.836 312.928 141.095 314.494L151.597 378.07C151.951 380.215 153.509 381.964 155.599 382.561Z" stroke="url(#paint39_linear_3345_4801)" stroke-width="1.25"/>
<path opacity="0.57971" d="M150.037 382.844L210.344 403.761C211.848 404.282 213.502 404.143 214.897 403.376L285.461 364.594C286.659 363.936 287.576 362.863 288.041 361.577L313.006 292.532C313.673 290.689 313.332 288.631 312.106 287.102L275.045 240.855C273.819 239.326 271.886 238.545 269.942 238.793L197.116 248.116C195.759 248.289 194.513 248.951 193.609 249.977L140.385 310.396C139.333 311.591 138.836 313.175 139.017 314.756L146.292 378.171C146.539 380.319 147.995 382.135 150.037 382.844Z" stroke="url(#paint40_linear_3345_4801)" stroke-width="1.25"/>
<path opacity="0.594203" d="M144.764 383.062L203.263 407.049C204.739 407.654 206.402 407.604 207.839 406.912L279.332 372.459C280.57 371.862 281.548 370.832 282.079 369.563L310.068 302.696C310.823 300.893 310.587 298.828 309.447 297.241L275.115 249.477C273.974 247.89 272.092 247.009 270.143 247.15L197.841 252.369C196.47 252.468 195.182 253.066 194.222 254.05L138.78 310.835C137.666 311.976 137.089 313.537 137.192 315.128L141.285 378.221C141.424 380.367 142.775 382.246 144.764 383.062Z" stroke="url(#paint41_linear_3345_4801)" stroke-width="1.25"/>
<path opacity="0.608696" d="M139.782 383.23L196.318 410.156C197.761 410.844 199.429 410.884 200.904 410.268L273.069 380.133C274.345 379.6 275.38 378.616 275.976 377.368L306.832 312.803C307.672 311.045 307.543 308.978 306.49 307.338L274.944 258.215C273.891 256.575 272.065 255.598 270.117 255.63L198.567 256.828C197.185 256.851 195.859 257.383 194.843 258.322L137.417 311.407C136.244 312.493 135.587 314.026 135.611 315.625L136.576 378.238C136.609 380.376 137.851 382.31 139.782 383.23Z" stroke="url(#paint42_linear_3345_4801)" stroke-width="1.25"/>
<path opacity="0.623188" d="M135.088 383.368L189.518 413.093C190.924 413.861 192.591 413.993 194.1 413.455L266.683 387.613C267.993 387.146 269.084 386.211 269.745 384.987L303.306 322.839C304.228 321.13 304.204 319.066 303.242 317.379L274.528 267.055C273.566 265.368 271.801 264.297 269.86 264.222L199.283 261.492C197.893 261.439 196.532 261.902 195.464 262.793L136.286 312.129C135.056 313.155 134.321 314.657 134.266 316.258L132.163 378.24C132.091 380.365 133.223 382.349 135.088 383.368Z" stroke="url(#paint43_linear_3345_4801)" stroke-width="1.25"/>
<path opacity="0.637681" d="M130.682 383.49L182.868 415.868C184.232 416.715 185.894 416.938 187.434 416.481L260.184 394.89C261.526 394.492 262.671 393.608 263.396 392.411L299.494 332.786C300.496 331.13 300.577 329.074 299.707 327.345L273.864 275.981C272.994 274.251 271.296 273.091 269.368 272.909L199.976 266.358C198.583 266.226 197.19 266.619 196.071 267.459L135.375 313.009C134.09 313.973 133.279 315.44 133.145 317.04L128.042 378.242C127.866 380.348 128.886 382.375 130.682 383.49Z" stroke="url(#paint44_linear_3345_4801)" stroke-width="1.25"/>
<path opacity="0.652174" d="M126.559 383.614L176.376 418.493C177.695 419.416 179.346 419.73 180.911 419.355L253.587 401.963C254.956 401.635 256.153 400.806 256.941 399.638L295.406 342.629C296.486 341.03 296.67 338.989 295.894 337.222L272.952 284.978C272.176 283.211 270.549 281.965 268.64 281.678L200.637 271.423C199.244 271.213 197.824 271.533 196.656 272.319L134.673 314.06C133.338 314.959 132.452 316.388 132.239 317.983L124.21 378.264C123.932 380.346 124.838 382.409 126.559 383.614Z" stroke="url(#paint45_linear_3345_4801)" stroke-width="1.25"/>
<path opacity="0.666667" d="M122.717 383.758L170.048 420.977C171.316 421.975 172.952 422.379 174.539 422.088L246.902 408.826C248.296 408.57 249.542 407.798 250.391 406.664L291.052 352.354C292.205 350.814 292.491 348.793 291.811 346.994L271.79 294.032C271.11 292.233 269.558 290.906 267.675 290.514L201.255 276.684C199.868 276.395 198.423 276.64 197.209 277.371L134.168 315.294C132.786 316.126 131.827 317.511 131.535 319.098L120.662 378.32C120.285 380.374 121.076 382.467 122.717 383.758Z" stroke="url(#paint46_linear_3345_4801)" stroke-width="1.25"/>
<path opacity="0.681159" d="M119.152 383.935L163.89 423.332C165.104 424.401 166.719 424.896 168.323 424.69L240.143 415.476C241.557 415.294 242.85 414.582 243.759 413.484L286.441 361.945C287.663 360.469 288.05 358.472 287.467 356.647L270.379 303.128C269.796 301.302 268.324 299.899 266.472 299.404L201.821 282.136C200.443 281.768 198.977 281.937 197.719 282.609L133.849 316.719C132.422 317.481 131.393 318.82 131.023 320.395L117.393 378.428C116.919 380.448 117.595 382.564 119.152 383.935Z" stroke="url(#paint47_linear_3345_4801)" stroke-width="1.25"/>
<path opacity="0.695652" d="M115.856 384.163L157.906 425.568C159.061 426.706 160.651 427.29 162.268 427.17L233.322 421.91C234.753 421.804 236.09 421.155 237.058 420.095L281.584 371.389C282.873 369.98 283.358 368.013 282.873 366.166L268.721 312.25C268.236 310.402 266.847 308.928 265.032 308.333L202.325 287.775C200.961 287.327 199.478 287.419 198.179 288.029L133.702 318.345C132.235 319.034 131.137 320.324 130.689 321.882L114.397 378.602C113.828 380.583 114.388 382.717 115.856 384.163Z" stroke="url(#paint48_linear_3345_4801)" stroke-width="1.25"/>
<path opacity="0.710145" d="M112.825 384.456L152.1 427.698C153.193 428.901 154.753 429.572 156.378 429.54L226.451 428.127C227.895 428.098 229.273 427.514 230.299 426.497L276.492 380.674C277.843 379.334 278.425 377.402 278.039 375.539L266.816 321.385C266.43 319.522 265.128 317.98 263.356 317.287L202.757 293.596C201.412 293.07 199.915 293.082 198.578 293.629L133.715 320.18C132.21 320.796 131.046 322.032 130.522 323.57L111.665 378.858C111.004 380.796 111.448 382.94 112.825 384.456Z" stroke="url(#paint49_linear_3345_4801)" stroke-width="1.25"/>
<path opacity="0.724638" d="M110.05 384.827L146.476 429.729C147.503 430.994 149.027 431.752 150.655 431.807L219.542 434.125C220.996 434.174 222.412 433.658 223.494 432.685L271.177 389.786C272.587 388.518 273.262 386.626 272.975 384.753L264.669 330.517C264.382 328.643 263.17 327.04 261.446 326.252L203.109 299.592C201.786 298.987 200.28 298.919 198.908 299.4L133.872 322.23C132.335 322.77 131.107 323.949 130.507 325.464L109.189 379.21C108.44 381.1 108.769 383.248 110.05 384.827Z" stroke="url(#paint50_linear_3345_4801)" stroke-width="1.25"/>
<path opacity="0.73913" d="M107.523 385.293L141.036 431.676C141.993 433 143.477 433.843 145.104 433.985L212.61 439.905C214.069 440.033 215.52 439.586 216.655 438.661L265.652 398.716C267.116 397.523 267.883 395.675 267.695 393.796L262.281 339.634C262.094 337.755 260.976 336.096 259.305 335.216L203.371 305.759C202.075 305.076 200.564 304.926 199.16 305.34L134.161 324.504C132.595 324.966 131.306 326.086 130.631 327.573L106.961 379.672C106.126 381.51 106.34 383.656 107.523 385.293Z" stroke="url(#paint51_linear_3345_4801)" stroke-width="1.25"/>
<path opacity="0.753623" d="M105.236 385.864L135.783 433.549C136.666 434.927 138.106 435.853 139.727 436.083L205.665 445.466C207.125 445.674 208.608 445.299 209.796 444.424L259.93 407.451C261.443 406.335 262.299 404.537 262.21 402.659L259.659 348.721C259.57 346.843 258.549 345.133 256.937 344.165L203.537 312.09C202.272 311.33 200.76 311.098 199.326 311.442L134.568 327.006C132.976 327.389 131.629 328.446 130.88 329.902L104.971 380.256C104.053 382.039 104.154 384.176 105.236 385.864Z" stroke="url(#paint52_linear_3345_4801)" stroke-width="1.25"/>
<path opacity="0.768116" d="M103.179 386.555L130.717 435.358C131.523 436.788 132.914 437.794 134.524 438.112L198.72 450.81C200.178 451.098 201.69 450.798 202.927 449.975L254.025 415.984C255.584 414.947 256.525 413.202 256.534 411.33L256.807 357.767C256.817 355.895 255.894 354.14 254.345 353.087L203.597 318.578C202.368 317.742 200.859 317.427 199.399 317.7L135.077 329.742C133.464 330.044 132.063 331.036 131.241 332.457L103.208 380.977C102.212 382.7 102.201 384.822 103.179 386.555Z" stroke="url(#paint53_linear_3345_4801)" stroke-width="1.25"/>
<path opacity="0.782609" d="M101.343 387.377L125.84 437.116C126.567 438.592 127.904 439.676 129.498 440.082L191.788 455.937C193.238 456.306 194.776 456.082 196.061 455.314L247.95 424.305C249.551 423.349 250.573 421.661 250.68 419.8L253.731 366.758C253.839 364.897 253.016 363.103 251.536 361.969L203.545 325.215C202.356 324.305 200.854 323.906 199.371 324.106L135.674 332.715C134.043 332.935 132.591 333.858 131.7 335.242L101.661 381.844C100.591 383.504 100.47 385.604 101.343 387.377Z" stroke="url(#paint54_linear_3345_4801)" stroke-width="1.25"/>
<path opacity="0.797101" d="M99.7156 388.34L121.151 438.832C121.796 440.351 123.074 441.51 124.649 442.002L184.881 460.851C186.32 461.301 187.88 461.155 189.21 460.445L241.721 432.407C243.359 431.532 244.459 429.906 244.663 428.061L250.438 375.682C250.642 373.837 249.922 372.01 248.514 370.8L203.373 331.994C202.23 331.011 200.739 330.529 199.236 330.655L136.345 335.927C134.701 336.065 133.2 336.918 132.24 338.259L100.319 382.868C99.1782 384.463 98.9496 386.536 99.7156 388.34Z" stroke="url(#paint55_linear_3345_4801)" stroke-width="1.25"/>
<path opacity="0.811594" d="M98.2865 389.456L116.65 440.519C117.21 442.075 118.426 443.306 119.976 443.885L178.01 465.555C179.433 466.086 181.012 466.019 182.385 465.369L235.352 440.282C237.022 439.491 238.197 437.93 238.496 436.106L246.935 384.527C247.233 382.704 246.617 380.85 245.286 379.568L203.076 338.909C201.981 337.854 200.507 337.288 198.988 337.338L137.074 339.382C135.421 339.437 133.876 340.216 132.849 341.513L99.1692 384.061C97.9622 385.586 97.6285 387.626 98.2865 389.456Z" stroke="url(#paint56_linear_3345_4801)" stroke-width="1.25"/>
<path opacity="0.826087" d="M97.0441 390.734L112.337 442.186C112.809 443.776 113.959 445.076 115.479 445.739L171.187 470.052C172.591 470.665 174.184 470.678 175.598 470.09L228.859 447.925C230.557 447.219 231.802 445.726 232.194 443.929L243.229 393.284C243.621 391.487 243.109 389.612 241.859 388.263L202.647 345.95C201.606 344.826 200.152 344.176 198.62 344.149L137.847 343.082C136.189 343.052 134.603 343.756 133.512 345.005L98.1996 385.431C96.9307 386.884 96.4946 388.885 97.0441 390.734Z" stroke="url(#paint57_linear_3345_4801)" stroke-width="1.25"/>
<path opacity="0.84058" d="M95.9754 392.183L108.208 443.845C108.591 445.463 109.67 446.828 111.156 447.575L164.424 474.347C165.803 475.04 167.407 475.136 168.86 474.612L222.256 455.332C223.978 454.71 225.289 453.29 225.772 451.525L239.329 401.941C239.812 400.176 239.405 398.286 238.24 396.875L202.081 353.109C201.098 351.919 199.668 351.185 198.127 351.08L138.648 347.025C136.99 346.912 135.366 347.538 134.213 348.736L97.3964 386.986C96.07 388.364 95.5347 390.322 95.9754 392.183Z" stroke="url(#paint58_linear_3345_4801)" stroke-width="1.25"/>
<path opacity="0.855072" d="M95.0691 393.811L104.263 445.504C104.555 447.145 105.56 448.573 107.006 449.401L157.731 478.444C159.082 479.217 160.694 479.396 162.182 478.938L215.561 462.497C217.301 461.961 218.674 460.616 219.246 458.887L235.245 410.489C235.816 408.76 235.516 406.861 234.438 405.393L201.374 360.378C200.452 359.123 199.052 358.306 197.505 358.122L139.465 351.211C137.81 351.014 136.152 351.561 134.94 352.704L96.7472 388.734C95.3679 390.035 94.737 391.944 95.0691 393.811Z" stroke="url(#paint59_linear_3345_4801)" stroke-width="1.25"/>
<path opacity="0.869565" d="M94.3108 395.624L100.498 447.176C100.697 448.835 101.624 450.32 103.027 451.228L151.12 482.349C152.438 483.202 154.053 483.465 155.574 483.075L208.787 469.42C210.542 468.969 211.972 467.702 212.63 466.014L230.984 418.918C231.642 417.23 231.447 415.329 230.459 413.81L200.52 367.748C199.664 366.431 198.297 365.532 196.749 365.268L140.28 355.639C138.633 355.358 136.946 355.824 135.676 356.911L96.2372 390.681C94.8096 391.904 94.0869 393.758 94.3108 395.624Z" stroke="url(#paint60_linear_3345_4801)" stroke-width="1.25"/>
<path opacity="0.884058" d="M93.6881 397.63L96.9093 448.868C97.0144 450.541 97.8597 452.079 99.2149 453.065L144.599 486.069C145.88 487 147.495 487.349 149.046 487.028L201.951 476.097C203.715 475.732 205.198 474.544 205.939 472.902L226.558 427.22C227.299 425.578 227.209 423.68 226.315 422.116L199.515 375.21C198.73 373.834 197.401 372.854 195.854 372.51L141.081 360.307C139.446 359.943 137.733 360.327 136.409 361.354L95.853 392.834C94.3818 393.976 93.5712 395.772 93.6881 397.63Z" stroke="url(#paint61_linear_3345_4801)" stroke-width="1.25"/>
<path opacity="0.898551" d="M93.1865 399.833L93.4926 450.591C93.5028 452.271 94.2634 453.859 95.5664 454.92L138.18 489.609C139.419 490.618 141.029 491.052 142.608 490.803L195.067 482.527C196.837 482.247 198.368 481.142 199.189 479.549L221.975 435.388C222.797 433.796 222.81 431.908 222.012 430.304L198.357 382.754C197.645 381.324 196.358 380.263 194.818 379.838L141.852 365.212C140.233 364.765 138.498 365.065 137.123 366.03L95.5794 395.195C94.0695 396.255 93.1754 397.988 93.1865 399.833Z" stroke="url(#paint62_linear_3345_4801)" stroke-width="1.25"/>
<path opacity="0.913043" d="M92.7942 402.238L90.2453 452.354C90.1597 454.036 90.8327 455.668 92.0792 456.801L131.872 492.977C133.065 494.062 134.667 494.582 136.27 494.406L188.153 488.71C189.924 488.516 191.498 487.494 192.397 485.956L217.248 443.415C218.146 441.877 218.263 440.004 217.563 438.366L197.042 390.373C196.408 388.891 195.168 387.751 193.637 387.245L142.582 370.35C140.982 369.82 139.23 370.036 137.807 370.937L95.4039 397.771C93.8601 398.748 92.887 400.414 92.7942 402.238Z" stroke="url(#paint63_linear_3345_4801)" stroke-width="1.25"/>
<path opacity="0.927536" d="M92.4953 404.85L87.1604 454.165C86.9787 455.844 87.5613 457.517 88.7472 458.719L125.683 496.182C126.826 497.341 128.414 497.948 130.039 497.847L181.223 494.649C182.99 494.539 184.602 493.603 185.574 492.123L212.385 451.295C213.357 449.814 213.576 447.963 212.975 446.298L195.568 398.058C195.016 396.527 193.827 395.31 192.309 394.722L143.254 375.716C141.679 375.106 139.913 375.236 138.444 376.07L95.3101 400.563C93.7373 401.456 92.6899 403.051 92.4953 404.85Z" stroke="url(#paint64_linear_3345_4801)" stroke-width="1.25"/>
<path opacity="0.942029" d="M92.2773 407.669L84.2337 456.032C83.9558 457.703 84.4455 459.41 85.5668 460.679L119.622 499.229C120.71 500.461 122.282 501.155 123.925 501.129L174.293 500.344C176.052 500.316 177.697 499.467 178.739 498.049L207.4 459.02C208.441 457.602 208.759 455.778 208.259 454.091L193.933 405.797C193.466 404.222 192.333 402.929 190.832 402.26L143.857 381.304C142.31 380.614 140.535 380.658 139.024 381.423L95.2848 403.573C93.6877 404.382 92.571 405.903 92.2773 407.669Z" stroke="url(#paint65_linear_3345_4801)" stroke-width="1.25"/>
<path opacity="0.956522" d="M92.1265 410.698L81.4599 457.964C81.0861 459.62 81.4806 461.357 82.5334 462.689L113.698 502.129C114.726 503.431 116.278 504.212 117.937 504.264L167.377 505.798C169.125 505.852 170.798 505.09 171.905 503.737L202.303 466.588C203.41 465.235 203.825 463.444 203.426 461.742L192.137 413.583C191.758 411.967 190.685 410.601 189.205 409.85L144.378 387.109C142.863 386.341 141.083 386.298 139.533 386.992L95.3137 406.803C93.6974 407.527 92.5164 408.97 92.1265 410.698Z" stroke="url(#paint66_linear_3345_4801)" stroke-width="1.25"/>
<path opacity="0.971014" d="M92.0282 413.938L78.8317 459.967C78.3625 461.603 78.6599 463.365 79.6406 464.757L107.916 504.89C108.882 506.26 110.408 507.128 112.079 507.258L160.491 511.014C162.222 511.148 163.918 510.476 165.087 509.191L197.105 473.994C198.273 472.71 198.783 470.957 198.486 469.247L190.178 421.406C189.891 419.754 188.882 418.316 187.427 417.485L144.804 393.123C143.326 392.278 141.544 392.148 139.959 392.77L95.3817 410.252C93.7508 410.891 92.511 412.254 92.0282 413.938Z" stroke="url(#paint67_linear_3345_4801)" stroke-width="1.25"/>
<path opacity="0.985507" d="M91.9688 417.39L76.3432 462.048C75.7794 463.66 75.9779 465.44 76.8829 466.888L102.285 507.521C103.183 508.957 104.68 509.912 106.361 510.121L153.648 515.998C155.359 516.211 157.073 515.627 158.299 514.414L191.817 481.235C193.043 480.022 193.644 478.314 193.449 476.601L188.055 429.256C187.863 427.574 186.923 426.067 185.496 425.154L145.124 399.339C143.686 398.419 141.907 398.203 140.29 398.75L95.4747 413.919C93.8341 414.475 92.5408 415.755 91.9688 417.39Z" stroke="url(#paint68_linear_3345_4801)" stroke-width="1.25"/>
<path d="M91.9353 421.052L73.9879 464.215C73.3307 465.796 73.429 467.59 74.255 469.089L96.8111 510.033C97.6371 511.532 99.1009 512.574 100.788 512.863L146.863 520.756C148.55 521.045 150.277 520.55 151.555 519.411L186.453 488.309C187.731 487.17 188.42 485.511 188.327 483.802L185.769 437.127C185.675 435.417 184.809 433.844 183.414 432.851L145.327 405.749C143.932 404.757 142.161 404.453 140.516 404.925L95.5794 417.805C93.9338 418.276 92.5926 419.472 91.9353 421.052Z" stroke="url(#paint69_linear_3345_4801)" stroke-width="1.25"/>
</g>
<defs>
<linearGradient id="paint0_linear_3345_4801" x1="182.136" y1="149.278" x2="182.136" y2="560.057" gradientUnits="userSpaceOnUse">
<stop offset="0.748717" stop-color="#D9D9D9"/>
<stop offset="1" stop-color="#D9D9D9" stop-opacity="0"/>
</linearGradient>
<linearGradient id="paint1_linear_3345_4801" x1="484.907" y1="189.161" x2="197.278" y2="59.3394" gradientUnits="userSpaceOnUse">
<stop stop-color="#2E43FF" stop-opacity="0.66"/>
<stop offset="1" stop-color="#46FFBC"/>
</linearGradient>
<linearGradient id="paint2_linear_3345_4801" x1="477.112" y1="200.668" x2="199.147" y2="57.2481" gradientUnits="userSpaceOnUse">
<stop stop-color="#2E43FF" stop-opacity="0.66"/>
<stop offset="1" stop-color="#46FFBC"/>
</linearGradient>
<linearGradient id="paint3_linear_3345_4801" x1="469.015" y1="211.86" x2="201.342" y2="55.4942" gradientUnits="userSpaceOnUse">
<stop stop-color="#2E43FF" stop-opacity="0.66"/>
<stop offset="1" stop-color="#46FFBC"/>
</linearGradient>
<linearGradient id="paint4_linear_3345_4801" x1="460.636" y1="222.725" x2="203.841" y2="54.093" gradientUnits="userSpaceOnUse">
<stop stop-color="#2E43FF" stop-opacity="0.66"/>
<stop offset="1" stop-color="#46FFBC"/>
</linearGradient>
<linearGradient id="paint5_linear_3345_4801" x1="451.994" y1="233.25" x2="206.621" y2="53.0579" gradientUnits="userSpaceOnUse">
<stop stop-color="#2E43FF" stop-opacity="0.66"/>
<stop offset="1" stop-color="#46FFBC"/>
</linearGradient>
<linearGradient id="paint6_linear_3345_4801" x1="443.111" y1="243.423" x2="209.661" y2="52.3997" gradientUnits="userSpaceOnUse">
<stop stop-color="#2E43FF" stop-opacity="0.66"/>
<stop offset="1" stop-color="#46FFBC"/>
</linearGradient>
<linearGradient id="paint7_linear_3345_4801" x1="434.008" y1="253.235" x2="212.936" y2="52.13" gradientUnits="userSpaceOnUse">
<stop stop-color="#2E43FF" stop-opacity="0.66"/>
<stop offset="1" stop-color="#46FFBC"/>
</linearGradient>
<linearGradient id="paint8_linear_3345_4801" x1="424.709" y1="262.677" x2="216.424" y2="52.2577" gradientUnits="userSpaceOnUse">
<stop stop-color="#2E43FF" stop-opacity="0.66"/>
<stop offset="1" stop-color="#46FFBC"/>
</linearGradient>
<linearGradient id="paint9_linear_3345_4801" x1="415.234" y1="271.743" x2="220.1" y2="52.7902" gradientUnits="userSpaceOnUse">
<stop stop-color="#2E43FF" stop-opacity="0.66"/>
<stop offset="1" stop-color="#46FFBC"/>
</linearGradient>
<linearGradient id="paint10_linear_3345_4801" x1="405.606" y1="280.426" x2="223.941" y2="53.7344" gradientUnits="userSpaceOnUse">
<stop stop-color="#2E43FF" stop-opacity="0.66"/>
<stop offset="1" stop-color="#46FFBC"/>
</linearGradient>
<linearGradient id="paint11_linear_3345_4801" x1="395.848" y1="288.722" x2="227.921" y2="55.0947" gradientUnits="userSpaceOnUse">
<stop stop-color="#2E43FF" stop-opacity="0.66"/>
<stop offset="1" stop-color="#46FFBC"/>
</linearGradient>
<linearGradient id="paint12_linear_3345_4801" x1="385.982" y1="296.627" x2="232.017" y2="56.8755" gradientUnits="userSpaceOnUse">
<stop stop-color="#2E43FF" stop-opacity="0.66"/>
<stop offset="1" stop-color="#46FFBC"/>
</linearGradient>
<linearGradient id="paint13_linear_3345_4801" x1="376.031" y1="304.14" x2="236.205" y2="59.0777" gradientUnits="userSpaceOnUse">
<stop stop-color="#2E43FF" stop-opacity="0.66"/>
<stop offset="1" stop-color="#46FFBC"/>
</linearGradient>
<linearGradient id="paint14_linear_3345_4801" x1="366.018" y1="311.258" x2="240.461" y2="61.7024" gradientUnits="userSpaceOnUse">
<stop stop-color="#2E43FF" stop-opacity="0.66"/>
<stop offset="1" stop-color="#46FFBC"/>
</linearGradient>
<linearGradient id="paint15_linear_3345_4801" x1="355.963" y1="317.985" x2="244.759" y2="64.7501" gradientUnits="userSpaceOnUse">
<stop stop-color="#2E43FF" stop-opacity="0.66"/>
<stop offset="1" stop-color="#46FFBC"/>
</linearGradient>
<linearGradient id="paint16_linear_3345_4801" x1="345.891" y1="324.32" x2="249.078" y2="68.2177" gradientUnits="userSpaceOnUse">
<stop stop-color="#2E43FF" stop-opacity="0.66"/>
<stop offset="1" stop-color="#46FFBC"/>
</linearGradient>
<linearGradient id="paint17_linear_3345_4801" x1="335.823" y1="330.268" x2="253.393" y2="72.1031" gradientUnits="userSpaceOnUse">
<stop stop-color="#2E43FF" stop-opacity="0.66"/>
<stop offset="1" stop-color="#46FFBC"/>
</linearGradient>
<linearGradient id="paint18_linear_3345_4801" x1="325.779" y1="335.831" x2="257.68" y2="76.4" gradientUnits="userSpaceOnUse">
<stop stop-color="#2E43FF" stop-opacity="0.66"/>
<stop offset="1" stop-color="#46FFBC"/>
</linearGradient>
<linearGradient id="paint19_linear_3345_4801" x1="315.781" y1="341.017" x2="261.919" y2="81.1042" gradientUnits="userSpaceOnUse">
<stop stop-color="#2E43FF" stop-opacity="0.66"/>
<stop offset="1" stop-color="#46FFBC"/>
</linearGradient>
<linearGradient id="paint20_linear_3345_4801" x1="305.85" y1="345.831" x2="266.085" y2="86.2085" gradientUnits="userSpaceOnUse">
<stop stop-color="#2E43FF" stop-opacity="0.66"/>
<stop offset="1" stop-color="#46FFBC"/>
</linearGradient>
<linearGradient id="paint21_linear_3345_4801" x1="296.004" y1="350.279" x2="270.159" y2="91.7032" gradientUnits="userSpaceOnUse">
<stop stop-color="#2E43FF" stop-opacity="0.66"/>
<stop offset="1" stop-color="#46FFBC"/>
</linearGradient>
<linearGradient id="paint22_linear_3345_4801" x1="286.265" y1="354.373" x2="274.12" y2="97.5805" gradientUnits="userSpaceOnUse">
<stop stop-color="#2E43FF" stop-opacity="0.66"/>
<stop offset="1" stop-color="#46FFBC"/>
</linearGradient>
<linearGradient id="paint23_linear_3345_4801" x1="276.65" y1="358.121" x2="277.946" y2="103.83" gradientUnits="userSpaceOnUse">
<stop stop-color="#2E43FF" stop-opacity="0.66"/>
<stop offset="1" stop-color="#46FFBC"/>
</linearGradient>
<linearGradient id="paint24_linear_3345_4801" x1="267.177" y1="361.533" x2="281.62" y2="110.44" gradientUnits="userSpaceOnUse">
<stop stop-color="#2E43FF" stop-opacity="0.66"/>
<stop offset="1" stop-color="#46FFBC"/>
</linearGradient>
<linearGradient id="paint25_linear_3345_4801" x1="257.863" y1="364.623" x2="285.123" y2="117.398" gradientUnits="userSpaceOnUse">
<stop stop-color="#2E43FF" stop-opacity="0.66"/>
<stop offset="1" stop-color="#46FFBC"/>
</linearGradient>
<linearGradient id="paint26_linear_3345_4801" x1="248.726" y1="367.401" x2="288.437" y2="124.69" gradientUnits="userSpaceOnUse">
<stop stop-color="#2E43FF" stop-opacity="0.66"/>
<stop offset="1" stop-color="#46FFBC"/>
</linearGradient>
<linearGradient id="paint27_linear_3345_4801" x1="239.779" y1="369.881" x2="291.545" y2="132.302" gradientUnits="userSpaceOnUse">
<stop stop-color="#2E43FF" stop-opacity="0.66"/>
<stop offset="1" stop-color="#46FFBC"/>
</linearGradient>
<linearGradient id="paint28_linear_3345_4801" x1="231.038" y1="372.077" x2="294.432" y2="140.22" gradientUnits="userSpaceOnUse">
<stop stop-color="#2E43FF" stop-opacity="0.66"/>
<stop offset="1" stop-color="#46FFBC"/>
</linearGradient>
<linearGradient id="paint29_linear_3345_4801" x1="222.516" y1="374.004" x2="297.084" y2="148.427" gradientUnits="userSpaceOnUse">
<stop stop-color="#2E43FF" stop-opacity="0.66"/>
<stop offset="1" stop-color="#46FFBC"/>
</linearGradient>
<linearGradient id="paint30_linear_3345_4801" x1="214.226" y1="375.677" x2="299.486" y2="156.907" gradientUnits="userSpaceOnUse">
<stop stop-color="#2E43FF" stop-opacity="0.66"/>
<stop offset="1" stop-color="#46FFBC"/>
</linearGradient>
<linearGradient id="paint31_linear_3345_4801" x1="206.18" y1="377.111" x2="301.627" y2="165.642" gradientUnits="userSpaceOnUse">
<stop stop-color="#2E43FF" stop-opacity="0.66"/>
<stop offset="1" stop-color="#46FFBC"/>
</linearGradient>
<linearGradient id="paint32_linear_3345_4801" x1="198.387" y1="378.325" x2="303.494" y2="174.616" gradientUnits="userSpaceOnUse">
<stop stop-color="#2E43FF" stop-opacity="0.66"/>
<stop offset="1" stop-color="#46FFBC"/>
</linearGradient>
<linearGradient id="paint33_linear_3345_4801" x1="190.859" y1="379.334" x2="305.078" y2="183.809" gradientUnits="userSpaceOnUse">
<stop stop-color="#2E43FF" stop-opacity="0.66"/>
<stop offset="1" stop-color="#46FFBC"/>
</linearGradient>
<linearGradient id="paint34_linear_3345_4801" x1="183.602" y1="380.155" x2="306.369" y2="193.204" gradientUnits="userSpaceOnUse">
<stop stop-color="#2E43FF" stop-opacity="0.66"/>
<stop offset="1" stop-color="#46FFBC"/>
</linearGradient>
<linearGradient id="paint35_linear_3345_4801" x1="176.625" y1="380.807" x2="307.359" y2="202.783" gradientUnits="userSpaceOnUse">
<stop stop-color="#2E43FF" stop-opacity="0.66"/>
<stop offset="1" stop-color="#46FFBC"/>
</linearGradient>
<linearGradient id="paint36_linear_3345_4801" x1="169.935" y1="381.307" x2="308.043" y2="212.524" gradientUnits="userSpaceOnUse">
<stop stop-color="#2E43FF" stop-opacity="0.66"/>
<stop offset="1" stop-color="#46FFBC"/>
</linearGradient>
<linearGradient id="paint37_linear_3345_4801" x1="163.535" y1="381.672" x2="308.413" y2="222.409" gradientUnits="userSpaceOnUse">
<stop stop-color="#2E43FF" stop-opacity="0.66"/>
<stop offset="1" stop-color="#46FFBC"/>
</linearGradient>
<linearGradient id="paint38_linear_3345_4801" x1="157.431" y1="381.922" x2="308.466" y2="232.419" gradientUnits="userSpaceOnUse">
<stop stop-color="#2E43FF" stop-opacity="0.66"/>
<stop offset="1" stop-color="#46FFBC"/>
</linearGradient>
<linearGradient id="paint39_linear_3345_4801" x1="151.625" y1="382.074" x2="308.198" y2="242.534" gradientUnits="userSpaceOnUse">
<stop stop-color="#2E43FF" stop-opacity="0.66"/>
<stop offset="1" stop-color="#46FFBC"/>
</linearGradient>
<linearGradient id="paint40_linear_3345_4801" x1="146.119" y1="382.147" x2="307.607" y2="252.734" gradientUnits="userSpaceOnUse">
<stop stop-color="#2E43FF" stop-opacity="0.66"/>
<stop offset="1" stop-color="#46FFBC"/>
</linearGradient>
<linearGradient id="paint41_linear_3345_4801" x1="140.914" y1="382.158" x2="306.692" y2="263" gradientUnits="userSpaceOnUse">
<stop stop-color="#2E43FF" stop-opacity="0.66"/>
<stop offset="1" stop-color="#46FFBC"/>
</linearGradient>
<linearGradient id="paint42_linear_3345_4801" x1="136.011" y1="382.126" x2="305.454" y2="273.313" gradientUnits="userSpaceOnUse">
<stop stop-color="#2E43FF" stop-opacity="0.66"/>
<stop offset="1" stop-color="#46FFBC"/>
</linearGradient>
<linearGradient id="paint43_linear_3345_4801" x1="131.407" y1="382.069" x2="303.894" y2="283.653" gradientUnits="userSpaceOnUse">
<stop stop-color="#2E43FF" stop-opacity="0.66"/>
<stop offset="1" stop-color="#46FFBC"/>
</linearGradient>
<linearGradient id="paint44_linear_3345_4801" x1="127.101" y1="382.003" x2="302.014" y2="294.001" gradientUnits="userSpaceOnUse">
<stop stop-color="#2E43FF" stop-opacity="0.66"/>
<stop offset="1" stop-color="#46FFBC"/>
</linearGradient>
<linearGradient id="paint45_linear_3345_4801" x1="123.089" y1="381.947" x2="299.817" y2="304.34" gradientUnits="userSpaceOnUse">
<stop stop-color="#2E43FF" stop-opacity="0.66"/>
<stop offset="1" stop-color="#46FFBC"/>
</linearGradient>
<linearGradient id="paint46_linear_3345_4801" x1="119.366" y1="381.917" x2="297.309" y2="314.65" gradientUnits="userSpaceOnUse">
<stop stop-color="#2E43FF" stop-opacity="0.66"/>
<stop offset="1" stop-color="#46FFBC"/>
</linearGradient>
<linearGradient id="paint47_linear_3345_4801" x1="115.929" y1="381.93" x2="294.495" y2="324.915" gradientUnits="userSpaceOnUse">
<stop stop-color="#2E43FF" stop-opacity="0.66"/>
<stop offset="1" stop-color="#46FFBC"/>
</linearGradient>
<linearGradient id="paint48_linear_3345_4801" x1="112.77" y1="382.001" x2="291.382" y2="335.117" gradientUnits="userSpaceOnUse">
<stop stop-color="#2E43FF" stop-opacity="0.66"/>
<stop offset="1" stop-color="#46FFBC"/>
</linearGradient>
<linearGradient id="paint49_linear_3345_4801" x1="109.883" y1="382.147" x2="287.976" y2="345.24" gradientUnits="userSpaceOnUse">
<stop stop-color="#2E43FF" stop-opacity="0.66"/>
<stop offset="1" stop-color="#46FFBC"/>
</linearGradient>
<linearGradient id="paint50_linear_3345_4801" x1="107.26" y1="382.38" x2="284.287" y2="355.266" gradientUnits="userSpaceOnUse">
<stop stop-color="#2E43FF" stop-opacity="0.66"/>
<stop offset="1" stop-color="#46FFBC"/>
</linearGradient>
<linearGradient id="paint51_linear_3345_4801" x1="104.891" y1="382.717" x2="280.324" y2="365.182" gradientUnits="userSpaceOnUse">
<stop stop-color="#2E43FF" stop-opacity="0.66"/>
<stop offset="1" stop-color="#46FFBC"/>
</linearGradient>
<linearGradient id="paint52_linear_3345_4801" x1="102.768" y1="383.171" x2="276.096" y2="374.973" gradientUnits="userSpaceOnUse">
<stop stop-color="#2E43FF" stop-opacity="0.66"/>
<stop offset="1" stop-color="#46FFBC"/>
</linearGradient>
<linearGradient id="paint53_linear_3345_4801" x1="100.881" y1="383.754" x2="271.615" y2="384.625" gradientUnits="userSpaceOnUse">
<stop stop-color="#2E43FF" stop-opacity="0.66"/>
<stop offset="1" stop-color="#46FFBC"/>
</linearGradient>
<linearGradient id="paint54_linear_3345_4801" x1="99.219" y1="384.479" x2="266.893" y2="394.124" gradientUnits="userSpaceOnUse">
<stop stop-color="#2E43FF" stop-opacity="0.66"/>
<stop offset="1" stop-color="#46FFBC"/>
</linearGradient>
<linearGradient id="paint55_linear_3345_4801" x1="97.7701" y1="385.356" x2="261.941" y2="403.458" gradientUnits="userSpaceOnUse">
<stop stop-color="#2E43FF" stop-opacity="0.66"/>
<stop offset="1" stop-color="#46FFBC"/>
</linearGradient>
<linearGradient id="paint56_linear_3345_4801" x1="96.5225" y1="386.397" x2="256.772" y2="412.617" gradientUnits="userSpaceOnUse">
<stop stop-color="#2E43FF" stop-opacity="0.66"/>
<stop offset="1" stop-color="#46FFBC"/>
</linearGradient>
<linearGradient id="paint57_linear_3345_4801" x1="95.4642" y1="387.612" x2="251.401" y2="421.59" gradientUnits="userSpaceOnUse">
<stop stop-color="#2E43FF" stop-opacity="0.66"/>
<stop offset="1" stop-color="#46FFBC"/>
</linearGradient>
<linearGradient id="paint58_linear_3345_4801" x1="94.5816" y1="389.009" x2="245.84" y2="430.366" gradientUnits="userSpaceOnUse">
<stop stop-color="#2E43FF" stop-opacity="0.66"/>
<stop offset="1" stop-color="#46FFBC"/>
</linearGradient>
<linearGradient id="paint59_linear_3345_4801" x1="93.8625" y1="390.596" x2="240.104" y2="438.938" gradientUnits="userSpaceOnUse">
<stop stop-color="#2E43FF" stop-opacity="0.66"/>
<stop offset="1" stop-color="#46FFBC"/>
</linearGradient>
<linearGradient id="paint60_linear_3345_4801" x1="93.292" y1="392.38" x2="234.208" y2="447.299" gradientUnits="userSpaceOnUse">
<stop stop-color="#2E43FF" stop-opacity="0.66"/>
<stop offset="1" stop-color="#46FFBC"/>
</linearGradient>
<linearGradient id="paint61_linear_3345_4801" x1="92.8568" y1="394.368" x2="228.167" y2="455.441" gradientUnits="userSpaceOnUse">
<stop stop-color="#2E43FF" stop-opacity="0.66"/>
<stop offset="1" stop-color="#46FFBC"/>
</linearGradient>
<linearGradient id="paint62_linear_3345_4801" x1="92.5418" y1="396.564" x2="221.995" y2="463.357" gradientUnits="userSpaceOnUse">
<stop stop-color="#2E43FF" stop-opacity="0.66"/>
<stop offset="1" stop-color="#46FFBC"/>
</linearGradient>
<linearGradient id="paint63_linear_3345_4801" x1="92.3344" y1="398.974" x2="215.709" y2="471.045" gradientUnits="userSpaceOnUse">
<stop stop-color="#2E43FF" stop-opacity="0.66"/>
<stop offset="1" stop-color="#46FFBC"/>
</linearGradient>
<linearGradient id="paint64_linear_3345_4801" x1="92.2182" y1="401.6" x2="209.324" y2="478.501" gradientUnits="userSpaceOnUse">
<stop stop-color="#2E43FF" stop-opacity="0.66"/>
<stop offset="1" stop-color="#46FFBC"/>
</linearGradient>
<linearGradient id="paint65_linear_3345_4801" x1="92.1798" y1="404.445" x2="202.856" y2="485.721" gradientUnits="userSpaceOnUse">
<stop stop-color="#2E43FF" stop-opacity="0.66"/>
<stop offset="1" stop-color="#46FFBC"/>
</linearGradient>
<linearGradient id="paint66_linear_3345_4801" x1="92.2051" y1="407.511" x2="196.32" y2="492.704" gradientUnits="userSpaceOnUse">
<stop stop-color="#2E43FF" stop-opacity="0.66"/>
<stop offset="1" stop-color="#46FFBC"/>
</linearGradient>
<linearGradient id="paint67_linear_3345_4801" x1="92.2785" y1="410.797" x2="189.732" y2="499.448" gradientUnits="userSpaceOnUse">
<stop stop-color="#2E43FF" stop-opacity="0.66"/>
<stop offset="1" stop-color="#46FFBC"/>
</linearGradient>
<linearGradient id="paint68_linear_3345_4801" x1="92.386" y1="414.305" x2="183.107" y2="505.955" gradientUnits="userSpaceOnUse">
<stop stop-color="#2E43FF" stop-opacity="0.66"/>
<stop offset="1" stop-color="#46FFBC"/>
</linearGradient>
<linearGradient id="paint69_linear_3345_4801" x1="92.5138" y1="418.033" x2="176.46" y2="512.227" gradientUnits="userSpaceOnUse">
<stop stop-color="#2E43FF" stop-opacity="0.66"/>
<stop offset="1" stop-color="#46FFBC"/>
</linearGradient>
</defs>
</svg>
