<svg width="38" height="24" viewBox="0 0 38 24" fill="none" xmlns="http://www.w3.org/2000/svg">
<path d="M25.7143 10.3394C28.56 10.3394 30.84 8.07813 30.84 5.27687C30.84 2.47561 28.56 0.214355 25.7143 0.214355C22.8686 0.214355 20.5714 2.47561 20.5714 5.27687C20.5714 8.07813 22.8686 10.3394 25.7143 10.3394ZM12 10.3394C14.8457 10.3394 17.1257 8.07813 17.1257 5.27687C17.1257 2.47561 14.8457 0.214355 12 0.214355C9.15429 0.214355 6.85714 2.47561 6.85714 5.27687C6.85714 8.07813 9.15429 10.3394 12 10.3394ZM12 13.7144C8.00571 13.7144 0 15.6888 0 19.6207V23.8394H24V19.6207C24 15.6888 15.9943 13.7144 12 13.7144ZM25.7143 13.7144C25.2171 13.7144 24.6514 13.7482 24.0514 13.7988C26.04 15.2163 27.4286 17.1232 27.4286 19.6207V23.8394H37.7143V19.6207C37.7143 15.6888 29.7086 13.7144 25.7143 13.7144Z" fill="white"/>
</svg>
